%TF.GenerationSoftware,Altium Limited,Altium Designer,24.9.1 (31)*%
G04 Layer_Physical_Order=2*
G04 Layer_Color=36540*
%FSLAX45Y45*%
%MOMM*%
%TF.SameCoordinates,261FE19A-EF30-4485-92B3-4F91B7BE389E*%
%TF.FilePolarity,Positive*%
%TF.FileFunction,Copper,L2,Inr,Signal*%
%TF.Part,Single*%
G01*
G75*
%TA.AperFunction,Conductor*%
%ADD23C,0.15500*%
%ADD24C,0.25400*%
%TA.AperFunction,ComponentPad*%
G04:AMPARAMS|DCode=26|XSize=1.6mm|YSize=1.6mm|CornerRadius=0.4mm|HoleSize=0mm|Usage=FLASHONLY|Rotation=0.000|XOffset=0mm|YOffset=0mm|HoleType=Round|Shape=RoundedRectangle|*
%AMROUNDEDRECTD26*
21,1,1.60000,0.80000,0,0,0.0*
21,1,0.80000,1.60000,0,0,0.0*
1,1,0.80000,0.40000,-0.40000*
1,1,0.80000,-0.40000,-0.40000*
1,1,0.80000,-0.40000,0.40000*
1,1,0.80000,0.40000,0.40000*
%
%ADD26ROUNDEDRECTD26*%
%ADD27C,1.60000*%
G04:AMPARAMS|DCode=28|XSize=1.6mm|YSize=1.6mm|CornerRadius=0.4mm|HoleSize=0mm|Usage=FLASHONLY|Rotation=90.000|XOffset=0mm|YOffset=0mm|HoleType=Round|Shape=RoundedRectangle|*
%AMROUNDEDRECTD28*
21,1,1.60000,0.80000,0,0,90.0*
21,1,0.80000,1.60000,0,0,90.0*
1,1,0.80000,0.40000,0.40000*
1,1,0.80000,0.40000,-0.40000*
1,1,0.80000,-0.40000,-0.40000*
1,1,0.80000,-0.40000,0.40000*
%
%ADD28ROUNDEDRECTD28*%
%ADD29C,1.65000*%
G04:AMPARAMS|DCode=30|XSize=1.65mm|YSize=1.65mm|CornerRadius=0.4125mm|HoleSize=0mm|Usage=FLASHONLY|Rotation=0.000|XOffset=0mm|YOffset=0mm|HoleType=Round|Shape=RoundedRectangle|*
%AMROUNDEDRECTD30*
21,1,1.65000,0.82500,0,0,0.0*
21,1,0.82500,1.65000,0,0,0.0*
1,1,0.82500,0.41250,-0.41250*
1,1,0.82500,-0.41250,-0.41250*
1,1,0.82500,-0.41250,0.41250*
1,1,0.82500,0.41250,0.41250*
%
%ADD30ROUNDEDRECTD30*%
%TA.AperFunction,ViaPad*%
%ADD31C,0.45000*%
%ADD32C,1.27000*%
%ADD33C,0.70000*%
%ADD34C,3.20000*%
G36*
X27863800Y3200400D02*
X27785068D01*
X27775299Y3212304D01*
X27776199Y3216840D01*
Y3253360D01*
X27769073Y3289179D01*
X27755099Y3322920D01*
X27734811Y3353286D01*
X27708987Y3379110D01*
X27678619Y3399399D01*
X27644879Y3413375D01*
X27609061Y3420500D01*
X27572540D01*
X27543484Y3414721D01*
X27536722Y3413375D01*
X27502979Y3399399D01*
X27472614Y3379110D01*
X27446790Y3353286D01*
X27426501Y3322920D01*
X27412524Y3289179D01*
X27405399Y3253360D01*
Y3216840D01*
X27412524Y3181021D01*
X27426501Y3147280D01*
X27446790Y3116914D01*
X27472614Y3091090D01*
X27502979Y3070801D01*
X27536722Y3056825D01*
X27572540Y3049700D01*
X27609061D01*
X27644879Y3056825D01*
X27678619Y3070801D01*
X27708987Y3091090D01*
X27734811Y3116914D01*
X27740976Y3126142D01*
X27756375Y3121470D01*
Y2241550D01*
Y628650D01*
X27277991D01*
X27267300Y639735D01*
X27286362Y1166257D01*
X26991776Y1167999D01*
X26985083Y1387296D01*
X26995978Y1398178D01*
X27294412Y1388674D01*
X27359995Y3200400D01*
X26741302D01*
X26734924Y3215800D01*
X26741138Y3222014D01*
X26752841Y3242286D01*
X26758899Y3264896D01*
Y3288304D01*
X26752841Y3310914D01*
X26741138Y3331186D01*
X26724585Y3347738D01*
X26704315Y3359442D01*
X26681705Y3365500D01*
X26658295D01*
X26635687Y3359442D01*
X26615414Y3347738D01*
X26598862Y3331186D01*
X26587158Y3310914D01*
X26581100Y3288304D01*
Y3264896D01*
X26587158Y3242286D01*
X26598862Y3222014D01*
X26605075Y3215800D01*
X26598697Y3200400D01*
X25348933D01*
X25343143Y3222014D01*
X25331438Y3242286D01*
X25314886Y3258838D01*
X25294614Y3270542D01*
X25272005Y3276600D01*
X25248596D01*
X25225986Y3270542D01*
X25205714Y3258838D01*
X25189162Y3242286D01*
X25177458Y3222014D01*
X25171667Y3200400D01*
X23618330D01*
X23615942Y3209314D01*
X23604237Y3229586D01*
X23587686Y3246138D01*
X23567413Y3257842D01*
X23544804Y3263900D01*
X23521396D01*
X23498785Y3257842D01*
X23478514Y3246138D01*
X23461961Y3229586D01*
X23450258Y3209314D01*
X23447870Y3200400D01*
X21945599D01*
Y3212104D01*
X21939542Y3234714D01*
X21927838Y3254986D01*
X21911285Y3271538D01*
X21891014Y3283242D01*
X21868404Y3289300D01*
X21844997D01*
X21822386Y3283242D01*
X21802113Y3271538D01*
X21785562Y3254986D01*
X21773859Y3234714D01*
X21767799Y3212104D01*
Y3200400D01*
X20214729D01*
X20212341Y3209314D01*
X20200638Y3229586D01*
X20184087Y3246138D01*
X20163814Y3257842D01*
X20141203Y3263900D01*
X20117796D01*
X20095186Y3257842D01*
X20074915Y3246138D01*
X20058362Y3229586D01*
X20046658Y3209314D01*
X20044270Y3200400D01*
X18525507D01*
Y3208310D01*
X18519447Y3230920D01*
X18507744Y3251192D01*
X18491193Y3267744D01*
X18470920Y3279447D01*
X18448309Y3285506D01*
X18424902D01*
X18402292Y3279447D01*
X18382021Y3267744D01*
X18365468Y3251192D01*
X18353764Y3230920D01*
X18347707Y3208310D01*
Y3200400D01*
X17856136D01*
X17627457Y3429080D01*
X17623210Y3435435D01*
X17602946Y3455698D01*
Y3467100D01*
X17599989Y3481966D01*
X17591570Y3494569D01*
X17578966Y3502989D01*
X17564101Y3505947D01*
X17549234Y3502989D01*
X17536630Y3494569D01*
X17528210Y3481966D01*
X17525253Y3467100D01*
Y3439607D01*
X17528210Y3424741D01*
X17536630Y3412139D01*
X17564027Y3384743D01*
X17568272Y3378389D01*
X17732034Y3214628D01*
X17726140Y3200400D01*
X16852901D01*
Y3212104D01*
X16846841Y3234714D01*
X16835138Y3254986D01*
X16818587Y3271538D01*
X16798314Y3283242D01*
X16775703Y3289300D01*
X16752296D01*
X16729686Y3283242D01*
X16709415Y3271538D01*
X16692862Y3254986D01*
X16681158Y3234714D01*
X16675101Y3212104D01*
Y3200400D01*
X15236330D01*
X15233942Y3209314D01*
X15222238Y3229586D01*
X15205685Y3246138D01*
X15185414Y3257842D01*
X15162804Y3263900D01*
X15139397D01*
X15116786Y3257842D01*
X15096513Y3246138D01*
X15079962Y3229586D01*
X15068259Y3209314D01*
X15065871Y3200400D01*
X13516652D01*
Y3209248D01*
X13510594Y3231858D01*
X13498891Y3252130D01*
X13482338Y3268682D01*
X13462067Y3280386D01*
X13439456Y3286444D01*
X13416048D01*
X13393439Y3280386D01*
X13373166Y3268682D01*
X13356615Y3252130D01*
X13344910Y3231858D01*
X13338852Y3209248D01*
Y3200400D01*
X11781930D01*
X11779542Y3209314D01*
X11767838Y3229586D01*
X11751286Y3246138D01*
X11731014Y3257842D01*
X11708404Y3263900D01*
X11684996D01*
X11662386Y3257842D01*
X11642114Y3246138D01*
X11625562Y3229586D01*
X11613858Y3209314D01*
X11611470Y3200400D01*
X10160765D01*
X10160000Y3201396D01*
Y3224804D01*
X10153942Y3247414D01*
X10142238Y3267686D01*
X10125686Y3284238D01*
X10105414Y3295942D01*
X10082804Y3302000D01*
X10059396D01*
X10036786Y3295942D01*
X10016514Y3284238D01*
X9999962Y3267686D01*
X9988258Y3247414D01*
X9982200Y3224804D01*
Y3201396D01*
X9981435Y3200400D01*
X8344483D01*
X8332779Y3220672D01*
X8316227Y3237224D01*
X8295956Y3248927D01*
X8273345Y3254986D01*
X8249938D01*
X8227327Y3248927D01*
X8207056Y3237224D01*
X8190504Y3220672D01*
X8178800Y3200400D01*
X6696886D01*
X6693483Y3213100D01*
X6681779Y3233372D01*
X6665227Y3249924D01*
X6644956Y3261627D01*
X6622345Y3267686D01*
X6598938D01*
X6576327Y3261627D01*
X6556056Y3249924D01*
X6539504Y3233372D01*
X6527800Y3213100D01*
X6524397Y3200400D01*
X4919356D01*
X4909838Y3216886D01*
X4893286Y3233438D01*
X4873014Y3245142D01*
X4850404Y3251200D01*
X4826996D01*
X4804386Y3245142D01*
X4784114Y3233438D01*
X4767562Y3216886D01*
X4758044Y3200400D01*
X3195418D01*
X3183914Y3207042D01*
X3161304Y3213100D01*
X3137896D01*
X3115286Y3207042D01*
X3103782Y3200400D01*
X835068D01*
X825298Y3212304D01*
X826200Y3216840D01*
Y3253360D01*
X819075Y3289179D01*
X805099Y3322920D01*
X784810Y3353286D01*
X758986Y3379110D01*
X728620Y3399399D01*
X694879Y3413375D01*
X659060Y3420500D01*
X622540D01*
X586721Y3413375D01*
X552980Y3399399D01*
X522614Y3379110D01*
X496790Y3353286D01*
X476501Y3322920D01*
X462525Y3289179D01*
X455400Y3253360D01*
Y3216840D01*
X456302Y3212304D01*
X446533Y3200400D01*
X330200D01*
Y3632633D01*
X12436509D01*
X12438536Y3617233D01*
X12424386Y3613442D01*
X12404114Y3601738D01*
X12387562Y3585186D01*
X12375858Y3564914D01*
X12370067Y3543300D01*
X12547333D01*
X12541542Y3564914D01*
X12529838Y3585186D01*
X12513286Y3601738D01*
X12493014Y3613442D01*
X12478864Y3617233D01*
X12480891Y3632633D01*
X14017731D01*
X14021857Y3617233D01*
X14017014Y3614438D01*
X14000462Y3597886D01*
X13988757Y3577614D01*
X13982967Y3556000D01*
X14160233D01*
X14154442Y3577614D01*
X14142738Y3597886D01*
X14126186Y3614438D01*
X14121344Y3617233D01*
X14125470Y3632633D01*
X27863800D01*
Y3200400D01*
D02*
G37*
G36*
X17918953Y3027708D02*
Y2365489D01*
X17903552Y2355199D01*
X17900656Y2356400D01*
X17881599D01*
X17863995Y2349107D01*
X17850520Y2335633D01*
X17843228Y2318028D01*
Y2298972D01*
X17850520Y2281367D01*
X17863995Y2267892D01*
X17881599Y2260600D01*
X17900656D01*
X17903552Y2261800D01*
X17918953Y2251510D01*
Y1730591D01*
X17332431Y1144068D01*
X17324010Y1131465D01*
X17321053Y1116599D01*
Y1050300D01*
X16345522D01*
X16339629Y1064528D01*
X16435100Y1160000D01*
X16920560D01*
X16927367Y1153193D01*
X16944972Y1145900D01*
X16964027D01*
X16981633Y1153193D01*
X16995107Y1166667D01*
X17002400Y1184272D01*
Y1203328D01*
X16995107Y1220933D01*
X16981633Y1234407D01*
X16964027Y1241700D01*
X16944972D01*
X16927367Y1234407D01*
X16920560Y1227600D01*
X16421100D01*
X16408165Y1225027D01*
X16397200Y1217700D01*
X16229800Y1050300D01*
X15869699D01*
Y2042399D01*
X16078101Y2250800D01*
X16087727D01*
X16105333Y2258093D01*
X16118806Y2271567D01*
X16126100Y2289172D01*
Y2308228D01*
X16118806Y2325833D01*
X16105333Y2339307D01*
X16087727Y2346600D01*
X16068672D01*
X16051067Y2339307D01*
X16037593Y2325833D01*
X16030299Y2308228D01*
Y2298600D01*
X15812000Y2080299D01*
X15804672Y2069334D01*
X15802100Y2056399D01*
Y1050300D01*
X15489700D01*
Y1244600D01*
X15487128Y1257535D01*
X15479800Y1268500D01*
X14437000Y2311300D01*
Y2320928D01*
X14429707Y2338533D01*
X14416232Y2352007D01*
X14398628Y2359300D01*
X14379572D01*
X14361967Y2352007D01*
X14348492Y2338533D01*
X14341200Y2320928D01*
Y2301872D01*
X14348492Y2284267D01*
X14361967Y2270793D01*
X14379572Y2263500D01*
X14389200D01*
X15422099Y1230600D01*
Y1129328D01*
X15406700Y1126265D01*
X15404436Y1131733D01*
X15397627Y1138541D01*
Y1196972D01*
X15395055Y1209907D01*
X15387727Y1220872D01*
X14233800Y2374800D01*
Y2384428D01*
X14226508Y2402033D01*
X14213033Y2415507D01*
X14195428Y2422800D01*
X14176372D01*
X14158768Y2415507D01*
X14145293Y2402033D01*
X14138000Y2384428D01*
Y2365372D01*
X14145293Y2347767D01*
X14158768Y2334293D01*
X14176372Y2327000D01*
X14186000D01*
X15330028Y1182972D01*
Y1138541D01*
X15323219Y1131733D01*
X15315929Y1114128D01*
Y1095072D01*
X15323219Y1077467D01*
X15334987Y1065700D01*
X15333730Y1057677D01*
X15330266Y1050300D01*
X14091699D01*
Y1283701D01*
X14089127Y1296635D01*
X14081799Y1307601D01*
X13100999Y2288400D01*
X13090034Y2295726D01*
X13077100Y2298299D01*
X13064900D01*
X13060759Y2297475D01*
X13057864D01*
X13057333Y2298008D01*
X13039728Y2305300D01*
X13020673D01*
X13003067Y2298008D01*
X12989594Y2284533D01*
X12982300Y2266928D01*
Y2251079D01*
X12973138Y2245075D01*
X12968073Y2243527D01*
X12843050Y2368550D01*
X12832085Y2375877D01*
X12819150Y2378449D01*
X12540234D01*
X12532000Y2390772D01*
Y2409828D01*
X12524707Y2427433D01*
X12511233Y2440907D01*
X12493628Y2448200D01*
X12474572D01*
X12456967Y2440907D01*
X12443493Y2427433D01*
X12436200Y2409828D01*
Y2390772D01*
X12427966Y2378449D01*
X10818051D01*
X10817500Y2379000D01*
Y2384428D01*
X10810207Y2402033D01*
X10796733Y2415507D01*
X10779128Y2422800D01*
X10760072D01*
X10742467Y2415507D01*
X10728993Y2402033D01*
X10721700Y2384428D01*
Y2365372D01*
X10728993Y2347767D01*
X10742467Y2334293D01*
X10760072Y2327000D01*
X10773900D01*
X10780150Y2320750D01*
X10791116Y2313423D01*
X10804050Y2310850D01*
X10815787D01*
X10824343Y2298045D01*
X10823300Y2295528D01*
Y2284926D01*
X10705774Y2167400D01*
X9931400D01*
X9918466Y2164827D01*
X9907500Y2157500D01*
X9678771Y1928770D01*
X9669143D01*
X9651537Y1921478D01*
X9638063Y1908004D01*
X9630771Y1890398D01*
Y1871343D01*
X9633481Y1864800D01*
X9623191Y1849399D01*
X9539500D01*
X9254000Y2134900D01*
Y2290159D01*
X9260807Y2296967D01*
X9268100Y2314572D01*
Y2333628D01*
X9260807Y2351233D01*
X9247333Y2364707D01*
X9229728Y2372000D01*
X9210672D01*
X9193067Y2364707D01*
X9179593Y2351233D01*
X9172300Y2333628D01*
Y2314572D01*
X9179593Y2296967D01*
X9186400Y2290159D01*
Y2120900D01*
X9188973Y2107965D01*
X9196300Y2097000D01*
X9501600Y1791700D01*
X9512565Y1784373D01*
X9525500Y1781800D01*
X13118300D01*
X13744299Y1155800D01*
Y1146172D01*
X13751593Y1128567D01*
X13745081Y1113300D01*
X13394044D01*
X13385489Y1126104D01*
X13385600Y1126372D01*
Y1145428D01*
X13378308Y1163033D01*
X13364835Y1176508D01*
X13347227Y1183800D01*
X13328172D01*
X13310567Y1176508D01*
X13297093Y1163033D01*
X13289801Y1145428D01*
Y1126372D01*
X13289912Y1126104D01*
X13281355Y1113300D01*
X12394045D01*
X12385489Y1126104D01*
X12385600Y1126372D01*
Y1145428D01*
X12378308Y1163033D01*
X12364834Y1176508D01*
X12347228Y1183800D01*
X12328173D01*
X12310567Y1176508D01*
X12297093Y1163033D01*
X12289801Y1145428D01*
Y1126372D01*
X12289912Y1126104D01*
X12281356Y1113300D01*
X12180600D01*
X12127000Y1166900D01*
X12116035Y1174227D01*
X12103100Y1176800D01*
X9500900D01*
X8657100Y2020600D01*
Y2260600D01*
X8654527Y2273534D01*
X8647200Y2284500D01*
X8545600Y2386100D01*
X8534635Y2393427D01*
X8521700Y2396000D01*
X8315325D01*
X8302391Y2393427D01*
X8291425Y2386100D01*
X8199725Y2294400D01*
X7783189D01*
X7774524Y2309800D01*
X7779028Y2320672D01*
Y2339728D01*
X7771735Y2357333D01*
X7758261Y2370808D01*
X7740656Y2378100D01*
X7721600D01*
X7703995Y2370808D01*
X7690520Y2357333D01*
X7683228Y2339728D01*
Y2320672D01*
X7687732Y2309800D01*
X7679067Y2294400D01*
X7507000D01*
X7401200Y2400200D01*
Y2409828D01*
X7393907Y2427433D01*
X7380433Y2440907D01*
X7362828Y2448200D01*
X7343772D01*
X7326167Y2440907D01*
X7312693Y2427433D01*
X7305400Y2409828D01*
Y2390772D01*
X7312693Y2373167D01*
X7326167Y2359693D01*
X7343772Y2352400D01*
X7353400D01*
X7469100Y2236700D01*
X7480066Y2229373D01*
X7493000Y2226800D01*
X8213725D01*
X8226660Y2229373D01*
X8237625Y2236700D01*
X8329325Y2328400D01*
X8485935D01*
X8488999Y2313000D01*
X8481954Y2310083D01*
X8468480Y2296608D01*
X8461187Y2279003D01*
Y2259947D01*
X8468480Y2242342D01*
X8475288Y2235534D01*
Y1943013D01*
X8477860Y1930078D01*
X8485187Y1919113D01*
X9336000Y1068300D01*
X9337289Y1067439D01*
X9332617Y1052039D01*
X8850454D01*
X8846328Y1067439D01*
X8853117Y1071359D01*
X8872741Y1090983D01*
X8886617Y1115017D01*
X8893800Y1141824D01*
Y1143000D01*
X8788400D01*
X8683000D01*
Y1141824D01*
X8690183Y1115017D01*
X8704059Y1090983D01*
X8723683Y1071359D01*
X8730472Y1067439D01*
X8726346Y1052039D01*
X8599884D01*
X8599881Y1052039D01*
X8597890D01*
X8595967Y1051656D01*
X8595614D01*
X8595035Y1051541D01*
X8592837D01*
X8590914Y1051158D01*
X8589266Y1050475D01*
X8588143Y1050300D01*
X4256911D01*
Y2114189D01*
X4254338Y2127123D01*
X4247011Y2138088D01*
X4149700Y2235400D01*
X4156079Y2250800D01*
X4162428D01*
X4180033Y2258093D01*
X4193507Y2271567D01*
X4200800Y2289172D01*
Y2308228D01*
X4193507Y2325833D01*
X4180033Y2339307D01*
X4162428Y2346600D01*
X4143372D01*
X4125767Y2339307D01*
X4112293Y2325833D01*
X4105000Y2308228D01*
Y2301879D01*
X4089600Y2295500D01*
X4073800Y2311300D01*
Y2320928D01*
X4066507Y2338533D01*
X4053033Y2352007D01*
X4035428Y2359300D01*
X4016372D01*
X3998767Y2352007D01*
X3985293Y2338533D01*
X3978000Y2320928D01*
Y2301872D01*
X3985293Y2284267D01*
X3998767Y2270793D01*
X4016372Y2263500D01*
X4026000D01*
X4189312Y2100188D01*
Y1050300D01*
X3671100D01*
X2421400Y2300000D01*
Y2302859D01*
X2428207Y2309667D01*
X2435500Y2327272D01*
Y2346328D01*
X2428207Y2363933D01*
X2414733Y2377407D01*
X2397128Y2384700D01*
X2378072D01*
X2360467Y2377407D01*
X2346993Y2363933D01*
X2339700Y2346328D01*
Y2327272D01*
X2346993Y2309667D01*
X2353800Y2302859D01*
Y2286000D01*
X2356373Y2273065D01*
X2363700Y2262100D01*
X3561272Y1064528D01*
X3555379Y1050300D01*
X2172500D01*
X936900Y2285900D01*
Y2295528D01*
X929607Y2313133D01*
X916133Y2326607D01*
X898528Y2333900D01*
X879472D01*
X861867Y2326607D01*
X848393Y2313133D01*
X841100Y2295528D01*
Y2276472D01*
X848393Y2258867D01*
X861867Y2245393D01*
X879472Y2238100D01*
X889100D01*
X2062672Y1064528D01*
X2056779Y1050300D01*
X349244D01*
Y3162664D01*
X470129D01*
X476501Y3147280D01*
X496790Y3116914D01*
X522614Y3091090D01*
X552980Y3070801D01*
X586721Y3056825D01*
X622540Y3049700D01*
X659060D01*
X694879Y3056825D01*
X728620Y3070801D01*
X758986Y3091090D01*
X784810Y3116914D01*
X805099Y3147280D01*
X811472Y3162664D01*
X3052009D01*
X3063744Y3147264D01*
X3060700Y3135904D01*
Y3112496D01*
X3066758Y3089886D01*
X3078462Y3069614D01*
X3095014Y3053062D01*
X3115286Y3041358D01*
X3137896Y3035300D01*
X3161304D01*
X3183914Y3041358D01*
X3204186Y3053062D01*
X3220738Y3069614D01*
X3232442Y3089886D01*
X3238500Y3112496D01*
Y3135904D01*
X3235456Y3147264D01*
X3247191Y3162664D01*
X4749800D01*
Y3150596D01*
X4755858Y3127986D01*
X4767562Y3107714D01*
X4784114Y3091162D01*
X4804386Y3079458D01*
X4826996Y3073400D01*
X4850404D01*
X4873014Y3079458D01*
X4893286Y3091162D01*
X4909838Y3107714D01*
X4921542Y3127986D01*
X4927600Y3150596D01*
Y3162664D01*
X6522925D01*
X6527800Y3144472D01*
X6539504Y3124200D01*
X6556056Y3107648D01*
X6576327Y3095944D01*
X6598938Y3089886D01*
X6622345D01*
X6644956Y3095944D01*
X6665227Y3107648D01*
X6681779Y3124200D01*
X6693483Y3144472D01*
X6698358Y3162664D01*
X8172742D01*
Y3154382D01*
X8178800Y3131772D01*
X8190504Y3111500D01*
X8207056Y3094948D01*
X8227327Y3083244D01*
X8249938Y3077186D01*
X8273345D01*
X8295956Y3083244D01*
X8316227Y3094948D01*
X8332779Y3111500D01*
X8344483Y3131772D01*
X8350542Y3154382D01*
Y3162664D01*
X9606461D01*
X9612840Y3147264D01*
X9606262Y3140686D01*
X9594558Y3120414D01*
X9588767Y3098800D01*
X9766033D01*
X9760242Y3120414D01*
X9748538Y3140686D01*
X9741960Y3147264D01*
X9748339Y3162664D01*
X9997566D01*
X9999962Y3158514D01*
X10016514Y3141962D01*
X10036786Y3130258D01*
X10059396Y3124200D01*
X10082804D01*
X10105414Y3130258D01*
X10125686Y3141962D01*
X10142238Y3158514D01*
X10144634Y3162664D01*
X11607969D01*
X11613858Y3140686D01*
X11625562Y3120414D01*
X11642114Y3103862D01*
X11662386Y3092158D01*
X11684996Y3086100D01*
X11708404D01*
X11731014Y3092158D01*
X11751286Y3103862D01*
X11767838Y3120414D01*
X11779542Y3140686D01*
X11785431Y3162664D01*
X13345238D01*
X13356615Y3142958D01*
X13373166Y3126406D01*
X13393439Y3114703D01*
X13416048Y3108644D01*
X13439456D01*
X13462067Y3114703D01*
X13482338Y3126406D01*
X13498891Y3142958D01*
X13510268Y3162664D01*
X15062369D01*
X15068259Y3140686D01*
X15079962Y3120414D01*
X15096513Y3103862D01*
X15116786Y3092158D01*
X15139397Y3086100D01*
X15162804D01*
X15185414Y3092158D01*
X15205685Y3103862D01*
X15222238Y3120414D01*
X15233942Y3140686D01*
X15239832Y3162664D01*
X16683134D01*
X16692862Y3145814D01*
X16709415Y3129262D01*
X16729686Y3117558D01*
X16752296Y3111500D01*
X16775703D01*
X16798314Y3117558D01*
X16818587Y3129262D01*
X16835138Y3145814D01*
X16844865Y3162664D01*
X17783998D01*
X17918953Y3027708D01*
D02*
G37*
G36*
X27251401Y1427022D02*
X27240338Y1416307D01*
X26996802Y1424062D01*
X26996399Y1423995D01*
X26995996Y1424076D01*
X26991428Y1423170D01*
X26986835Y1422408D01*
X26986487Y1422191D01*
X26986084Y1422111D01*
X26982211Y1419526D01*
X26978259Y1417064D01*
X26978021Y1416730D01*
X26977679Y1416503D01*
X26966782Y1405620D01*
X26966553Y1405279D01*
X26966220Y1405041D01*
X26963754Y1401095D01*
X26961163Y1397222D01*
X26961081Y1396820D01*
X26960864Y1396471D01*
X26960095Y1391877D01*
X26959186Y1387313D01*
X26959265Y1386911D01*
X26959198Y1386505D01*
X26965891Y1167209D01*
X26966925Y1162733D01*
X26967792Y1158230D01*
X26968057Y1157830D01*
X26968164Y1157363D01*
X26970831Y1153624D01*
X26973358Y1149795D01*
X26973752Y1149527D01*
X26974033Y1149136D01*
X26977924Y1146704D01*
X26981726Y1144132D01*
X26982196Y1144035D01*
X26982602Y1143781D01*
X26987131Y1143023D01*
X26991623Y1142102D01*
X27251401Y1140566D01*
Y1050300D01*
X26283530D01*
X26285724Y914400D01*
X26479501D01*
Y698500D01*
X25730200D01*
Y914400D01*
X25910309D01*
X25911761Y1050300D01*
X25843500D01*
X25841327Y1051200D01*
X25822272D01*
X25820099Y1050300D01*
X24470000D01*
Y1050928D01*
X24462708Y1068533D01*
X24449232Y1082007D01*
X24431628Y1089300D01*
X24412572D01*
X24394968Y1082007D01*
X24381493Y1068533D01*
X24374200Y1050928D01*
Y1050300D01*
X23914722D01*
X23908829Y1064528D01*
X25236200Y2391900D01*
X25874060D01*
X25880865Y2385093D01*
X25898471Y2377800D01*
X25917529D01*
X25935132Y2385093D01*
X25948608Y2398567D01*
X25955899Y2416172D01*
Y2435228D01*
X25948608Y2452833D01*
X25935132Y2466307D01*
X25917529Y2473600D01*
X25898471D01*
X25880865Y2466307D01*
X25874060Y2459500D01*
X25711786D01*
X25707809Y2470473D01*
X25707440Y2474900D01*
X25720007Y2487467D01*
X25727301Y2505072D01*
Y2524128D01*
X25720007Y2541733D01*
X25706534Y2555207D01*
X25688928Y2562500D01*
X25669873D01*
X25652267Y2555207D01*
X25638794Y2541733D01*
X25631500Y2524128D01*
Y2505072D01*
X25638794Y2487467D01*
X25651361Y2474900D01*
X25650992Y2470473D01*
X25647015Y2459500D01*
X25222200D01*
X25209267Y2456927D01*
X25198300Y2449600D01*
X23799001Y1050300D01*
X22454401D01*
X21382500Y2122200D01*
Y2290159D01*
X21389307Y2296967D01*
X21396600Y2314572D01*
Y2333628D01*
X21389307Y2351233D01*
X21375833Y2364707D01*
X21358228Y2372000D01*
X21339172D01*
X21321567Y2364707D01*
X21308093Y2351233D01*
X21300800Y2333628D01*
Y2314572D01*
X21308093Y2296967D01*
X21314900Y2290159D01*
Y2108200D01*
X21317473Y2095265D01*
X21324800Y2084300D01*
X22344572Y1064528D01*
X22338680Y1050300D01*
X20955968D01*
X19682182Y2324083D01*
Y2333711D01*
X19674892Y2351317D01*
X19661417Y2364791D01*
X19643811Y2372083D01*
X19624756D01*
X19607150Y2364791D01*
X19593677Y2351317D01*
X19586385Y2333711D01*
Y2314656D01*
X19593677Y2297051D01*
X19607150Y2283576D01*
X19624756Y2276284D01*
X19634384D01*
X20846140Y1064528D01*
X20840247Y1050300D01*
X17398746D01*
Y1100509D01*
X17985269Y1687031D01*
X17993689Y1699634D01*
X17996648Y1714500D01*
Y2963251D01*
X18012047Y2969630D01*
X18017514Y2964162D01*
X18037785Y2952458D01*
X18059399Y2946667D01*
Y3035300D01*
Y3123933D01*
X18037785Y3118142D01*
X18017514Y3106438D01*
X18000961Y3089886D01*
X17996301Y3081812D01*
X17977129Y3079407D01*
X17908099Y3148436D01*
X17913992Y3162664D01*
X18353664D01*
X18353764Y3162292D01*
X18365468Y3142020D01*
X18382021Y3125468D01*
X18402292Y3113764D01*
X18424902Y3107706D01*
X18448309D01*
X18470920Y3113764D01*
X18491193Y3125468D01*
X18507744Y3142020D01*
X18519447Y3162292D01*
X18519547Y3162664D01*
X20040768D01*
X20046658Y3140686D01*
X20058362Y3120414D01*
X20074915Y3103862D01*
X20095186Y3092158D01*
X20117796Y3086100D01*
X20141203D01*
X20163814Y3092158D01*
X20184087Y3103862D01*
X20200638Y3120414D01*
X20212341Y3140686D01*
X20218231Y3162664D01*
X21775835D01*
X21785562Y3145814D01*
X21802113Y3129262D01*
X21822386Y3117558D01*
X21844997Y3111500D01*
X21868404D01*
X21891014Y3117558D01*
X21911285Y3129262D01*
X21927838Y3145814D01*
X21937566Y3162664D01*
X23444370D01*
X23450258Y3140686D01*
X23459303Y3125018D01*
X23448032Y3113744D01*
X23440414Y3118142D01*
X23418800Y3123933D01*
Y3048000D01*
X23494733D01*
X23488942Y3069614D01*
X23479897Y3085282D01*
X23491170Y3096556D01*
X23498785Y3092158D01*
X23521396Y3086100D01*
X23544804D01*
X23567413Y3092158D01*
X23587686Y3103862D01*
X23604237Y3120414D01*
X23615942Y3140686D01*
X23621831Y3162664D01*
X25174973D01*
X25177458Y3153386D01*
X25189162Y3133114D01*
X25205714Y3116562D01*
X25225986Y3104858D01*
X25248596Y3098800D01*
X25272005D01*
X25294614Y3104858D01*
X25314886Y3116562D01*
X25331438Y3133114D01*
X25343143Y3153386D01*
X25345628Y3162664D01*
X27251401D01*
Y1427022D01*
D02*
G37*
G36*
X13156239Y1959761D02*
X13146422Y1947799D01*
X13144736Y1948927D01*
X13131799Y1951500D01*
X10028841D01*
X10022033Y1958307D01*
X10004428Y1965600D01*
X9985372D01*
X9967767Y1958307D01*
X9954293Y1944833D01*
X9947000Y1927228D01*
Y1908172D01*
X9954293Y1890567D01*
X9967767Y1877093D01*
X9985372Y1869800D01*
X10004428D01*
X10022033Y1877093D01*
X10028841Y1883900D01*
X13117799D01*
X13137666Y1864034D01*
X13133830Y1853571D01*
X13130522Y1849399D01*
X9923906D01*
X9913616Y1864800D01*
X9915800Y1870072D01*
Y1889128D01*
X9908507Y1906733D01*
X9895033Y1920207D01*
X9877428Y1927500D01*
X9858372D01*
X9840767Y1920207D01*
X9827293Y1906733D01*
X9820000Y1889128D01*
Y1870072D01*
X9822184Y1864800D01*
X9811894Y1849399D01*
X9734150D01*
X9723860Y1864800D01*
X9726570Y1871343D01*
Y1880971D01*
X9945400Y2099800D01*
X10719774D01*
X10732709Y2102373D01*
X10743674Y2109700D01*
X10872074Y2238100D01*
X10880728D01*
X10898333Y2245393D01*
X10911807Y2258867D01*
X10919100Y2276472D01*
Y2295528D01*
X10918057Y2298045D01*
X10926613Y2310850D01*
X12175870D01*
X12186160Y2295450D01*
X12182975Y2287761D01*
Y2268705D01*
X12190267Y2251100D01*
X12203741Y2237625D01*
X12221347Y2230333D01*
X12240402D01*
X12258007Y2237625D01*
X12271482Y2251100D01*
X12278774Y2268705D01*
Y2287761D01*
X12275589Y2295450D01*
X12285879Y2310850D01*
X12805150D01*
X13156239Y1959761D01*
D02*
G37*
G36*
X14024100Y1269701D02*
Y1204944D01*
X14008701Y1200516D01*
X14003899Y1207701D01*
X13016327Y2195272D01*
X13017876Y2200339D01*
X13023878Y2209500D01*
X13039728D01*
X13057333Y2216793D01*
X13067171Y2226630D01*
X14024100Y1269701D01*
D02*
G37*
G36*
X8589500Y2246600D02*
Y2006600D01*
X8592073Y1993665D01*
X8599400Y1982700D01*
X9441873Y1140227D01*
X9435979Y1126000D01*
X9373900D01*
X8542887Y1957013D01*
Y2235534D01*
X8549695Y2242342D01*
X8556222Y2258100D01*
X8564202Y2261712D01*
X8572387Y2263713D01*
X8589500Y2246600D01*
D02*
G37*
G36*
X10675419Y1011914D02*
X10669558Y1006052D01*
X10655352Y981448D01*
X10647999Y954005D01*
Y952500D01*
X10755899D01*
Y939800D01*
X10768599D01*
Y831900D01*
X10770104D01*
X10797547Y839253D01*
X10822151Y853459D01*
X10830400Y861707D01*
X10845800Y855328D01*
Y770272D01*
X10830400Y763893D01*
X10822151Y772141D01*
X10797547Y786347D01*
X10770104Y793700D01*
X10741694D01*
X10714251Y786347D01*
X10689647Y772141D01*
X10669558Y752052D01*
X10655352Y727448D01*
X10647999Y700005D01*
Y671595D01*
X10655352Y644152D01*
X10669558Y619548D01*
X10681106Y608000D01*
X10674727Y592600D01*
X10583071D01*
X10576692Y608000D01*
X10588241Y619548D01*
X10602446Y644152D01*
X10609799Y671595D01*
Y700005D01*
X10602446Y727448D01*
X10588241Y752052D01*
X10568151Y772141D01*
X10543547Y786347D01*
X10516104Y793700D01*
X10487694D01*
X10460251Y786347D01*
X10435647Y772141D01*
X10415558Y752052D01*
X10401352Y727448D01*
X10393999Y700005D01*
Y671595D01*
X10401352Y644152D01*
X10415558Y619548D01*
X10427106Y608000D01*
X10420727Y592600D01*
X10329071D01*
X10322692Y608000D01*
X10334241Y619548D01*
X10348446Y644152D01*
X10355799Y671595D01*
Y700005D01*
X10348446Y727448D01*
X10334241Y752052D01*
X10314151Y772141D01*
X10289547Y786347D01*
X10262104Y793700D01*
X10233694D01*
X10206251Y786347D01*
X10181647Y772141D01*
X10161558Y752052D01*
X10147352Y727448D01*
X10139999Y700005D01*
Y671595D01*
X10147352Y644152D01*
X10161558Y619548D01*
X10173106Y608000D01*
X10166727Y592600D01*
X10075071D01*
X10068692Y608000D01*
X10080241Y619548D01*
X10094446Y644152D01*
X10101799Y671595D01*
Y700005D01*
X10094446Y727448D01*
X10080241Y752052D01*
X10060151Y772141D01*
X10035547Y786347D01*
X10008104Y793700D01*
X9979694D01*
X9952251Y786347D01*
X9927647Y772141D01*
X9907558Y752052D01*
X9893352Y727448D01*
X9885999Y700005D01*
Y671595D01*
X9893352Y644152D01*
X9907558Y619548D01*
X9919106Y608000D01*
X9912727Y592600D01*
X9821071D01*
X9814692Y608000D01*
X9826241Y619548D01*
X9840446Y644152D01*
X9847799Y671595D01*
Y700005D01*
X9840446Y727448D01*
X9826241Y752052D01*
X9806151Y772141D01*
X9781547Y786347D01*
X9754104Y793700D01*
X9725694D01*
X9698251Y786347D01*
X9673647Y772141D01*
X9653558Y752052D01*
X9639352Y727448D01*
X9631999Y700005D01*
Y671595D01*
X9639352Y644152D01*
X9653558Y619548D01*
X9665106Y608000D01*
X9658727Y592600D01*
X8588053D01*
X8577397Y603718D01*
X8595321Y1025651D01*
X8595614Y1025758D01*
X8595968D01*
X8597890Y1026141D01*
X8599881D01*
X8599884Y1026141D01*
X9653526D01*
X9659419Y1011914D01*
X9653558Y1006052D01*
X9639352Y981448D01*
X9631999Y954005D01*
Y925595D01*
X9639352Y898152D01*
X9653558Y873548D01*
X9673647Y853459D01*
X9698251Y839253D01*
X9725694Y831900D01*
X9754104D01*
X9781547Y839253D01*
X9806151Y853459D01*
X9826241Y873548D01*
X9840446Y898152D01*
X9847799Y925595D01*
Y954005D01*
X9840446Y981448D01*
X9826241Y1006052D01*
X9820379Y1011914D01*
X9826273Y1026141D01*
X9907526D01*
X9913419Y1011914D01*
X9907558Y1006052D01*
X9893352Y981448D01*
X9885999Y954005D01*
Y925595D01*
X9893352Y898152D01*
X9907558Y873548D01*
X9927647Y853459D01*
X9952251Y839253D01*
X9979694Y831900D01*
X10008104D01*
X10035547Y839253D01*
X10060151Y853459D01*
X10080241Y873548D01*
X10094446Y898152D01*
X10101799Y925595D01*
Y954005D01*
X10094446Y981448D01*
X10080241Y1006052D01*
X10074379Y1011914D01*
X10080273Y1026141D01*
X10161526D01*
X10167419Y1011914D01*
X10161558Y1006052D01*
X10147352Y981448D01*
X10139999Y954005D01*
Y925595D01*
X10147352Y898152D01*
X10161558Y873548D01*
X10181647Y853459D01*
X10206251Y839253D01*
X10233694Y831900D01*
X10262104D01*
X10289547Y839253D01*
X10314151Y853459D01*
X10334241Y873548D01*
X10348446Y898152D01*
X10355799Y925595D01*
Y954005D01*
X10348446Y981448D01*
X10334241Y1006052D01*
X10328379Y1011914D01*
X10334273Y1026141D01*
X10415526D01*
X10421419Y1011914D01*
X10415558Y1006052D01*
X10401352Y981448D01*
X10393999Y954005D01*
Y952500D01*
X10609799D01*
Y954005D01*
X10602446Y981448D01*
X10588241Y1006052D01*
X10582379Y1011914D01*
X10588273Y1026141D01*
X10669526D01*
X10675419Y1011914D01*
D02*
G37*
%LPC*%
G36*
X25996899Y3606533D02*
Y3530600D01*
X26072833D01*
X26067041Y3552214D01*
X26055338Y3572486D01*
X26038785Y3589038D01*
X26018515Y3600742D01*
X25996899Y3606533D01*
D02*
G37*
G36*
X25971500D02*
X25949887Y3600742D01*
X25929614Y3589038D01*
X25913062Y3572486D01*
X25901358Y3552214D01*
X25895566Y3530600D01*
X25971500D01*
Y3606533D01*
D02*
G37*
G36*
X8991600D02*
Y3530600D01*
X9067533D01*
X9061742Y3552214D01*
X9050038Y3572486D01*
X9033486Y3589038D01*
X9013214Y3600742D01*
X8991600Y3606533D01*
D02*
G37*
G36*
X8966200D02*
X8944586Y3600742D01*
X8924314Y3589038D01*
X8907762Y3572486D01*
X8896058Y3552214D01*
X8890267Y3530600D01*
X8966200D01*
Y3606533D01*
D02*
G37*
G36*
X24320500Y3593833D02*
Y3517900D01*
X24396432D01*
X24390642Y3539514D01*
X24378938Y3559786D01*
X24362386Y3576338D01*
X24342114Y3588042D01*
X24320500Y3593833D01*
D02*
G37*
G36*
X24295100D02*
X24273486Y3588042D01*
X24253214Y3576338D01*
X24236662Y3559786D01*
X24224957Y3539514D01*
X24219167Y3517900D01*
X24295100D01*
Y3593833D01*
D02*
G37*
G36*
X20993100D02*
Y3517900D01*
X21069032D01*
X21063242Y3539514D01*
X21051538Y3559786D01*
X21034985Y3576338D01*
X21014714Y3588042D01*
X20993100Y3593833D01*
D02*
G37*
G36*
X20967700D02*
X20946086Y3588042D01*
X20925813Y3576338D01*
X20909262Y3559786D01*
X20897559Y3539514D01*
X20891766Y3517900D01*
X20967700D01*
Y3593833D01*
D02*
G37*
G36*
X5499100D02*
Y3517900D01*
X5575033D01*
X5569242Y3539514D01*
X5557538Y3559786D01*
X5540986Y3576338D01*
X5520714Y3588042D01*
X5499100Y3593833D01*
D02*
G37*
G36*
X5473700D02*
X5452086Y3588042D01*
X5431814Y3576338D01*
X5415262Y3559786D01*
X5403558Y3539514D01*
X5397767Y3517900D01*
X5473700D01*
Y3593833D01*
D02*
G37*
G36*
X2146300D02*
Y3517900D01*
X2222233D01*
X2216442Y3539514D01*
X2204738Y3559786D01*
X2188186Y3576338D01*
X2167914Y3588042D01*
X2146300Y3593833D01*
D02*
G37*
G36*
X2120900D02*
X2099286Y3588042D01*
X2079014Y3576338D01*
X2062462Y3559786D01*
X2050758Y3539514D01*
X2044967Y3517900D01*
X2120900D01*
Y3593833D01*
D02*
G37*
G36*
X15845815Y3586195D02*
Y3510262D01*
X15921747D01*
X15915956Y3531876D01*
X15904253Y3552148D01*
X15887700Y3568700D01*
X15867429Y3580404D01*
X15845815Y3586195D01*
D02*
G37*
G36*
X15820415D02*
X15798801Y3580404D01*
X15778528Y3568700D01*
X15761977Y3552148D01*
X15750273Y3531876D01*
X15744481Y3510262D01*
X15820415D01*
Y3586195D01*
D02*
G37*
G36*
X22669501Y3581133D02*
Y3505200D01*
X22745433D01*
X22739642Y3526814D01*
X22727937Y3547086D01*
X22711386Y3563638D01*
X22691113Y3575342D01*
X22669501Y3581133D01*
D02*
G37*
G36*
X22644099D02*
X22622485Y3575342D01*
X22602214Y3563638D01*
X22585661Y3547086D01*
X22573958Y3526814D01*
X22568167Y3505200D01*
X22644099D01*
Y3581133D01*
D02*
G37*
G36*
X10718800D02*
Y3505200D01*
X10794733D01*
X10788942Y3526814D01*
X10777238Y3547086D01*
X10760686Y3563638D01*
X10740414Y3575342D01*
X10718800Y3581133D01*
D02*
G37*
G36*
X10693400D02*
X10671786Y3575342D01*
X10651514Y3563638D01*
X10634962Y3547086D01*
X10623258Y3526814D01*
X10617467Y3505200D01*
X10693400D01*
Y3581133D01*
D02*
G37*
G36*
X7239000D02*
Y3505200D01*
X7314933D01*
X7309142Y3526814D01*
X7297438Y3547086D01*
X7280886Y3563638D01*
X7260614Y3575342D01*
X7239000Y3581133D01*
D02*
G37*
G36*
X7213600D02*
X7191986Y3575342D01*
X7171714Y3563638D01*
X7155162Y3547086D01*
X7143458Y3526814D01*
X7137667Y3505200D01*
X7213600D01*
Y3581133D01*
D02*
G37*
G36*
X3911600D02*
Y3505200D01*
X3987533D01*
X3981742Y3526814D01*
X3970038Y3547086D01*
X3953486Y3563638D01*
X3933214Y3575342D01*
X3911600Y3581133D01*
D02*
G37*
G36*
X3886200D02*
X3864586Y3575342D01*
X3844314Y3563638D01*
X3827762Y3547086D01*
X3816058Y3526814D01*
X3810267Y3505200D01*
X3886200D01*
Y3581133D01*
D02*
G37*
G36*
X1146786Y3562375D02*
Y3486442D01*
X1222719D01*
X1216927Y3508056D01*
X1205224Y3528327D01*
X1188672Y3544879D01*
X1168400Y3556583D01*
X1146786Y3562375D01*
D02*
G37*
G36*
X1121386D02*
X1099772Y3556583D01*
X1079500Y3544879D01*
X1062948Y3528327D01*
X1051244Y3508056D01*
X1045453Y3486442D01*
X1121386D01*
Y3562375D01*
D02*
G37*
G36*
X19189700Y3543033D02*
Y3467100D01*
X19265633D01*
X19259842Y3488714D01*
X19248138Y3508986D01*
X19231586Y3525538D01*
X19211314Y3537242D01*
X19189700Y3543033D01*
D02*
G37*
G36*
X19164301D02*
X19142686Y3537242D01*
X19122414Y3525538D01*
X19105862Y3508986D01*
X19094157Y3488714D01*
X19088367Y3467100D01*
X19164301D01*
Y3543033D01*
D02*
G37*
G36*
X14160233Y3530600D02*
X14084300D01*
Y3454667D01*
X14105914Y3460458D01*
X14126186Y3472162D01*
X14142738Y3488714D01*
X14154442Y3508986D01*
X14160233Y3530600D01*
D02*
G37*
G36*
X14058900D02*
X13982967D01*
X13988757Y3508986D01*
X14000462Y3488714D01*
X14017014Y3472162D01*
X14037286Y3460458D01*
X14058900Y3454667D01*
Y3530600D01*
D02*
G37*
G36*
X12547333Y3517900D02*
X12471400D01*
Y3441967D01*
X12493014Y3447758D01*
X12513286Y3459462D01*
X12529838Y3476014D01*
X12541542Y3496286D01*
X12547333Y3517900D01*
D02*
G37*
G36*
X12446000D02*
X12370067D01*
X12375858Y3496286D01*
X12387562Y3476014D01*
X12404114Y3459462D01*
X12424386Y3447758D01*
X12446000Y3441967D01*
Y3517900D01*
D02*
G37*
G36*
X26072833Y3505200D02*
X25996899D01*
Y3429267D01*
X26018515Y3435058D01*
X26038785Y3446762D01*
X26055338Y3463314D01*
X26067041Y3483586D01*
X26072833Y3505200D01*
D02*
G37*
G36*
X25971500D02*
X25895566D01*
X25901358Y3483586D01*
X25913062Y3463314D01*
X25929614Y3446762D01*
X25949887Y3435058D01*
X25971500Y3429267D01*
Y3505200D01*
D02*
G37*
G36*
X9067533D02*
X8991600D01*
Y3429267D01*
X9013214Y3435058D01*
X9033486Y3446762D01*
X9050038Y3463314D01*
X9061742Y3483586D01*
X9067533Y3505200D01*
D02*
G37*
G36*
X8966200D02*
X8890267D01*
X8896058Y3483586D01*
X8907762Y3463314D01*
X8924314Y3446762D01*
X8944586Y3435058D01*
X8966200Y3429267D01*
Y3505200D01*
D02*
G37*
G36*
X24396432Y3492500D02*
X24320500D01*
Y3416567D01*
X24342114Y3422358D01*
X24362386Y3434062D01*
X24378938Y3450614D01*
X24390642Y3470886D01*
X24396432Y3492500D01*
D02*
G37*
G36*
X24295100D02*
X24219167D01*
X24224957Y3470886D01*
X24236662Y3450614D01*
X24253214Y3434062D01*
X24273486Y3422358D01*
X24295100Y3416567D01*
Y3492500D01*
D02*
G37*
G36*
X21069032D02*
X20993100D01*
Y3416567D01*
X21014714Y3422358D01*
X21034985Y3434062D01*
X21051538Y3450614D01*
X21063242Y3470886D01*
X21069032Y3492500D01*
D02*
G37*
G36*
X20967700D02*
X20891766D01*
X20897559Y3470886D01*
X20909262Y3450614D01*
X20925813Y3434062D01*
X20946086Y3422358D01*
X20967700Y3416567D01*
Y3492500D01*
D02*
G37*
G36*
X5575033D02*
X5499100D01*
Y3416567D01*
X5520714Y3422358D01*
X5540986Y3434062D01*
X5557538Y3450614D01*
X5569242Y3470886D01*
X5575033Y3492500D01*
D02*
G37*
G36*
X5473700D02*
X5397767D01*
X5403558Y3470886D01*
X5415262Y3450614D01*
X5431814Y3434062D01*
X5452086Y3422358D01*
X5473700Y3416567D01*
Y3492500D01*
D02*
G37*
G36*
X2222233D02*
X2146300D01*
Y3416567D01*
X2167914Y3422358D01*
X2188186Y3434062D01*
X2204738Y3450614D01*
X2216442Y3470886D01*
X2222233Y3492500D01*
D02*
G37*
G36*
X2120900D02*
X2044967D01*
X2050758Y3470886D01*
X2062462Y3450614D01*
X2079014Y3434062D01*
X2099286Y3422358D01*
X2120900Y3416567D01*
Y3492500D01*
D02*
G37*
G36*
X15921747Y3484862D02*
X15845815D01*
Y3408929D01*
X15867429Y3414721D01*
X15887700Y3426424D01*
X15904253Y3442976D01*
X15915956Y3463248D01*
X15921747Y3484862D01*
D02*
G37*
G36*
X15820415D02*
X15744481D01*
X15750273Y3463248D01*
X15761977Y3442976D01*
X15778528Y3426424D01*
X15798801Y3414721D01*
X15820415Y3408929D01*
Y3484862D01*
D02*
G37*
G36*
X22745433Y3479800D02*
X22669501D01*
Y3403867D01*
X22691113Y3409658D01*
X22711386Y3421362D01*
X22727937Y3437914D01*
X22739642Y3458186D01*
X22745433Y3479800D01*
D02*
G37*
G36*
X22644099D02*
X22568167D01*
X22573958Y3458186D01*
X22585661Y3437914D01*
X22602214Y3421362D01*
X22622485Y3409658D01*
X22644099Y3403867D01*
Y3479800D01*
D02*
G37*
G36*
X10794733D02*
X10718800D01*
Y3403867D01*
X10740414Y3409658D01*
X10760686Y3421362D01*
X10777238Y3437914D01*
X10788942Y3458186D01*
X10794733Y3479800D01*
D02*
G37*
G36*
X10693400D02*
X10617467D01*
X10623258Y3458186D01*
X10634962Y3437914D01*
X10651514Y3421362D01*
X10671786Y3409658D01*
X10693400Y3403867D01*
Y3479800D01*
D02*
G37*
G36*
X7314933D02*
X7239000D01*
Y3403867D01*
X7260614Y3409658D01*
X7280886Y3421362D01*
X7297438Y3437914D01*
X7309142Y3458186D01*
X7314933Y3479800D01*
D02*
G37*
G36*
X7213600D02*
X7137667D01*
X7143458Y3458186D01*
X7155162Y3437914D01*
X7171714Y3421362D01*
X7191986Y3409658D01*
X7213600Y3403867D01*
Y3479800D01*
D02*
G37*
G36*
X3987533D02*
X3911600D01*
Y3403867D01*
X3933214Y3409658D01*
X3953486Y3421362D01*
X3970038Y3437914D01*
X3981742Y3458186D01*
X3987533Y3479800D01*
D02*
G37*
G36*
X3886200D02*
X3810267D01*
X3816058Y3458186D01*
X3827762Y3437914D01*
X3844314Y3421362D01*
X3864586Y3409658D01*
X3886200Y3403867D01*
Y3479800D01*
D02*
G37*
G36*
X1222719Y3461042D02*
X1146786D01*
Y3385109D01*
X1168400Y3390900D01*
X1188672Y3402604D01*
X1205224Y3419156D01*
X1216927Y3439427D01*
X1222719Y3461042D01*
D02*
G37*
G36*
X1121386D02*
X1045453D01*
X1051244Y3439427D01*
X1062948Y3419156D01*
X1079500Y3402604D01*
X1099772Y3390900D01*
X1121386Y3385109D01*
Y3461042D01*
D02*
G37*
G36*
X19265633Y3441700D02*
X19189700D01*
Y3365767D01*
X19211314Y3371558D01*
X19231586Y3383262D01*
X19248138Y3399814D01*
X19259842Y3420086D01*
X19265633Y3441700D01*
D02*
G37*
G36*
X19164301D02*
X19088367D01*
X19094157Y3420086D01*
X19105862Y3399814D01*
X19122414Y3383262D01*
X19142686Y3371558D01*
X19164301Y3365767D01*
Y3441700D01*
D02*
G37*
G36*
X13677901Y3441433D02*
Y3365500D01*
X13753833D01*
X13748042Y3387114D01*
X13736337Y3407386D01*
X13719786Y3423938D01*
X13699513Y3435642D01*
X13677901Y3441433D01*
D02*
G37*
G36*
X13652499D02*
X13630885Y3435642D01*
X13610614Y3423938D01*
X13594061Y3407386D01*
X13582358Y3387114D01*
X13576567Y3365500D01*
X13652499D01*
Y3441433D01*
D02*
G37*
G36*
X13753833Y3340100D02*
X13677901D01*
Y3264167D01*
X13699513Y3269958D01*
X13719786Y3281662D01*
X13736337Y3298214D01*
X13748042Y3318486D01*
X13753833Y3340100D01*
D02*
G37*
G36*
X13652499D02*
X13576567D01*
X13582358Y3318486D01*
X13594061Y3298214D01*
X13610614Y3281662D01*
X13630885Y3269958D01*
X13652499Y3264167D01*
Y3340100D01*
D02*
G37*
G36*
X1599204Y3403600D02*
X1575796D01*
X1553186Y3397542D01*
X1532914Y3385838D01*
X1516362Y3369286D01*
X1504658Y3349014D01*
X1498600Y3326404D01*
Y3302996D01*
X1504658Y3280386D01*
X1516362Y3260114D01*
X1532914Y3243562D01*
X1553186Y3231858D01*
X1575796Y3225800D01*
X1599204D01*
X1621814Y3231858D01*
X1642086Y3243562D01*
X1658638Y3260114D01*
X1670342Y3280386D01*
X1676400Y3302996D01*
Y3326404D01*
X1670342Y3349014D01*
X1658638Y3369286D01*
X1642086Y3385838D01*
X1621814Y3397542D01*
X1599204Y3403600D01*
D02*
G37*
G36*
X27108920Y1360403D02*
Y1284470D01*
X27184854D01*
X27179062Y1306085D01*
X27167358Y1326356D01*
X27150806Y1342908D01*
X27130533Y1354612D01*
X27108920Y1360403D01*
D02*
G37*
G36*
X27083521D02*
X27061905Y1354612D01*
X27041635Y1342908D01*
X27025082Y1326356D01*
X27013379Y1306085D01*
X27007587Y1284470D01*
X27083521D01*
Y1360403D01*
D02*
G37*
G36*
X27184854Y1259070D02*
X27108920D01*
Y1183137D01*
X27130533Y1188929D01*
X27150806Y1200633D01*
X27167358Y1217185D01*
X27179062Y1237456D01*
X27184854Y1259070D01*
D02*
G37*
G36*
X27083521D02*
X27007587D01*
X27013379Y1237456D01*
X27025082Y1217185D01*
X27041635Y1200633D01*
X27061905Y1188929D01*
X27083521Y1183137D01*
Y1259070D01*
D02*
G37*
G36*
X16611600Y3123933D02*
Y3048000D01*
X16687534D01*
X16681741Y3069614D01*
X16670038Y3089886D01*
X16653487Y3106438D01*
X16633214Y3118142D01*
X16611600Y3123933D01*
D02*
G37*
G36*
X16586200D02*
X16564586Y3118142D01*
X16544315Y3106438D01*
X16527762Y3089886D01*
X16516058Y3069614D01*
X16510268Y3048000D01*
X16586200D01*
Y3123933D01*
D02*
G37*
G36*
X13233400D02*
Y3048000D01*
X13309332D01*
X13303542Y3069614D01*
X13291838Y3089886D01*
X13275285Y3106438D01*
X13255014Y3118142D01*
X13233400Y3123933D01*
D02*
G37*
G36*
X13208000D02*
X13186386Y3118142D01*
X13166113Y3106438D01*
X13149562Y3089886D01*
X13137859Y3069614D01*
X13132066Y3048000D01*
X13208000D01*
Y3123933D01*
D02*
G37*
G36*
X14960600Y3111233D02*
Y3035300D01*
X15036533D01*
X15030742Y3056914D01*
X15019038Y3077186D01*
X15002486Y3093738D01*
X14982214Y3105442D01*
X14960600Y3111233D01*
D02*
G37*
G36*
X14935201D02*
X14913586Y3105442D01*
X14893314Y3093738D01*
X14876762Y3077186D01*
X14865057Y3056914D01*
X14859267Y3035300D01*
X14935201D01*
Y3111233D01*
D02*
G37*
G36*
X11557000D02*
Y3035300D01*
X11632933D01*
X11627142Y3056914D01*
X11615438Y3077186D01*
X11598886Y3093738D01*
X11578614Y3105442D01*
X11557000Y3111233D01*
D02*
G37*
G36*
X11531600D02*
X11509986Y3105442D01*
X11489714Y3093738D01*
X11473162Y3077186D01*
X11461458Y3056914D01*
X11455667Y3035300D01*
X11531600D01*
Y3111233D01*
D02*
G37*
G36*
X8115300D02*
Y3035300D01*
X8191233D01*
X8185442Y3056914D01*
X8173738Y3077186D01*
X8157186Y3093738D01*
X8136914Y3105442D01*
X8115300Y3111233D01*
D02*
G37*
G36*
X8089900D02*
X8068286Y3105442D01*
X8048014Y3093738D01*
X8031462Y3077186D01*
X8019758Y3056914D01*
X8013967Y3035300D01*
X8089900D01*
Y3111233D01*
D02*
G37*
G36*
X6426200Y3098533D02*
Y3022600D01*
X6502133D01*
X6496342Y3044214D01*
X6484638Y3064486D01*
X6468086Y3081038D01*
X6447814Y3092742D01*
X6426200Y3098533D01*
D02*
G37*
G36*
X6400800D02*
X6379186Y3092742D01*
X6358914Y3081038D01*
X6342362Y3064486D01*
X6330658Y3044214D01*
X6324867Y3022600D01*
X6400800D01*
Y3098533D01*
D02*
G37*
G36*
X9766033Y3073400D02*
X9690100D01*
Y2997467D01*
X9711714Y3003258D01*
X9731986Y3014962D01*
X9748538Y3031514D01*
X9760242Y3051786D01*
X9766033Y3073400D01*
D02*
G37*
G36*
X9664700D02*
X9588767D01*
X9594558Y3051786D01*
X9606262Y3031514D01*
X9622814Y3014962D01*
X9643086Y3003258D01*
X9664700Y2997467D01*
Y3073400D01*
D02*
G37*
G36*
X4724400Y3060433D02*
Y2984500D01*
X4800333D01*
X4794542Y3006114D01*
X4782838Y3026386D01*
X4766286Y3042938D01*
X4746014Y3054642D01*
X4724400Y3060433D01*
D02*
G37*
G36*
X4699000D02*
X4677386Y3054642D01*
X4657114Y3042938D01*
X4640562Y3026386D01*
X4628858Y3006114D01*
X4623067Y2984500D01*
X4699000D01*
Y3060433D01*
D02*
G37*
G36*
X3035300D02*
Y2984500D01*
X3111233D01*
X3105442Y3006114D01*
X3093738Y3026386D01*
X3077186Y3042938D01*
X3056914Y3054642D01*
X3035300Y3060433D01*
D02*
G37*
G36*
X3009900D02*
X2988286Y3054642D01*
X2968014Y3042938D01*
X2951462Y3026386D01*
X2939758Y3006114D01*
X2933967Y2984500D01*
X3009900D01*
Y3060433D01*
D02*
G37*
G36*
X16687534Y3022600D02*
X16510268D01*
X16516058Y3000986D01*
X16527762Y2980714D01*
X16538277Y2970200D01*
X16531898Y2954800D01*
X15025188D01*
X15020300Y2970200D01*
X15030742Y2988286D01*
X15036533Y3009900D01*
X14859267D01*
X14865057Y2988286D01*
X14875500Y2970200D01*
X14870612Y2954800D01*
X13287701D01*
X13281323Y2970200D01*
X13291838Y2980714D01*
X13303542Y3000986D01*
X13309332Y3022600D01*
X13132066D01*
X13137859Y3000986D01*
X13149562Y2980714D01*
X13160077Y2970200D01*
X13153699Y2954800D01*
X12242800D01*
X12229866Y2952227D01*
X12218900Y2944900D01*
X12179400Y2905400D01*
X12169772D01*
X12152167Y2898107D01*
X12138693Y2884633D01*
X12131400Y2867028D01*
Y2847972D01*
X12138693Y2830367D01*
X12152167Y2816893D01*
X12169772Y2809600D01*
X12188828D01*
X12206433Y2816893D01*
X12219907Y2830367D01*
X12227200Y2847972D01*
Y2857600D01*
X12256800Y2887200D01*
X12343312D01*
X12348200Y2871800D01*
X12337758Y2853714D01*
X12331700Y2831104D01*
Y2807696D01*
X12337758Y2785086D01*
X12349462Y2764814D01*
X12366014Y2748262D01*
X12386286Y2736558D01*
X12408896Y2730500D01*
X12432304D01*
X12454914Y2736558D01*
X12475186Y2748262D01*
X12491738Y2764814D01*
X12503442Y2785086D01*
X12509500Y2807696D01*
Y2831104D01*
X12503442Y2853714D01*
X12493000Y2871800D01*
X12497888Y2887200D01*
X13723286D01*
X13733577Y2871800D01*
X13731599Y2867028D01*
Y2847972D01*
X13738893Y2830367D01*
X13752367Y2816893D01*
X13769972Y2809600D01*
X13789027D01*
X13806633Y2816893D01*
X13820107Y2830367D01*
X13827400Y2847972D01*
Y2867028D01*
X13825423Y2871800D01*
X13835713Y2887200D01*
X14032413D01*
X14037300Y2871800D01*
X14026859Y2853714D01*
X14020799Y2831104D01*
Y2807696D01*
X14026859Y2785086D01*
X14038562Y2764814D01*
X14055115Y2748262D01*
X14075386Y2736558D01*
X14097997Y2730500D01*
X14121404D01*
X14144014Y2736558D01*
X14164285Y2748262D01*
X14180838Y2764814D01*
X14192542Y2785086D01*
X14198599Y2807696D01*
Y2831104D01*
X14192542Y2853714D01*
X14182100Y2871800D01*
X14186987Y2887200D01*
X15272687D01*
X15282977Y2871800D01*
X15281000Y2867028D01*
Y2847972D01*
X15288293Y2830367D01*
X15301767Y2816893D01*
X15319373Y2809600D01*
X15338428D01*
X15356033Y2816893D01*
X15369507Y2830367D01*
X15376801Y2847972D01*
Y2867028D01*
X15374823Y2871800D01*
X15385114Y2887200D01*
X15708812D01*
X15713699Y2871800D01*
X15703258Y2853714D01*
X15697200Y2831104D01*
Y2807696D01*
X15703258Y2785086D01*
X15714961Y2764814D01*
X15731514Y2748262D01*
X15751785Y2736558D01*
X15774396Y2730500D01*
X15797804D01*
X15820415Y2736558D01*
X15840686Y2748262D01*
X15857237Y2764814D01*
X15868942Y2785086D01*
X15875000Y2807696D01*
Y2831104D01*
X15868942Y2853714D01*
X15858501Y2871800D01*
X15863388Y2887200D01*
X16826199D01*
X17150540Y2562860D01*
X17141840Y2549819D01*
X17141821Y2549800D01*
X17122772D01*
X17105167Y2542507D01*
X17091693Y2529033D01*
X17084399Y2511428D01*
Y2492372D01*
X17091693Y2474767D01*
X17105167Y2461293D01*
X17122772Y2454000D01*
X17141827D01*
X17159433Y2461293D01*
X17172906Y2474767D01*
X17180200Y2492372D01*
Y2511421D01*
X17180219Y2511440D01*
X17193260Y2520140D01*
X17338400Y2375000D01*
Y2365372D01*
X17345692Y2347767D01*
X17359167Y2334293D01*
X17376772Y2327000D01*
X17395828D01*
X17413432Y2334293D01*
X17426907Y2347767D01*
X17434200Y2365372D01*
Y2384428D01*
X17426907Y2402033D01*
X17413432Y2415507D01*
X17395828Y2422800D01*
X17386200D01*
X16864101Y2944900D01*
X16853136Y2952227D01*
X16840199Y2954800D01*
X16665903D01*
X16659523Y2970200D01*
X16670038Y2980714D01*
X16681741Y3000986D01*
X16687534Y3022600D01*
D02*
G37*
G36*
X11632933Y3009900D02*
X11557000D01*
Y2933967D01*
X11578614Y2939758D01*
X11598886Y2951462D01*
X11615438Y2968014D01*
X11627142Y2988286D01*
X11632933Y3009900D01*
D02*
G37*
G36*
X11531600D02*
X11455667D01*
X11461458Y2988286D01*
X11473162Y2968014D01*
X11489714Y2951462D01*
X11509986Y2939758D01*
X11531600Y2933967D01*
Y3009900D01*
D02*
G37*
G36*
X8191233D02*
X8115300D01*
Y2933967D01*
X8136914Y2939758D01*
X8157186Y2951462D01*
X8173738Y2968014D01*
X8185442Y2988286D01*
X8191233Y3009900D01*
D02*
G37*
G36*
X8089900D02*
X8013967D01*
X8019758Y2988286D01*
X8031462Y2968014D01*
X8048014Y2951462D01*
X8068286Y2939758D01*
X8089900Y2933967D01*
Y3009900D01*
D02*
G37*
G36*
X1511300Y3009633D02*
Y2933700D01*
X1587233D01*
X1581442Y2955314D01*
X1569738Y2975586D01*
X1553186Y2992138D01*
X1532914Y3003842D01*
X1511300Y3009633D01*
D02*
G37*
G36*
X1485900D02*
X1464286Y3003842D01*
X1444014Y2992138D01*
X1427462Y2975586D01*
X1415758Y2955314D01*
X1409967Y2933700D01*
X1485900D01*
Y3009633D01*
D02*
G37*
G36*
X6502133Y2997200D02*
X6426200D01*
Y2921267D01*
X6447814Y2927058D01*
X6468086Y2938762D01*
X6484638Y2955314D01*
X6496342Y2975586D01*
X6502133Y2997200D01*
D02*
G37*
G36*
X6400800D02*
X6324867D01*
X6330658Y2975586D01*
X6342362Y2955314D01*
X6358914Y2938762D01*
X6379186Y2927058D01*
X6400800Y2921267D01*
Y2997200D01*
D02*
G37*
G36*
X4800333Y2959100D02*
X4724400D01*
Y2883167D01*
X4746014Y2888958D01*
X4766286Y2900662D01*
X4782838Y2917214D01*
X4794542Y2937486D01*
X4800333Y2959100D01*
D02*
G37*
G36*
X4699000D02*
X4623067D01*
X4628858Y2937486D01*
X4640562Y2917214D01*
X4657114Y2900662D01*
X4677386Y2888958D01*
X4699000Y2883167D01*
Y2959100D01*
D02*
G37*
G36*
X3111233D02*
X3035300D01*
Y2883167D01*
X3056914Y2888958D01*
X3077186Y2900662D01*
X3093738Y2917214D01*
X3105442Y2937486D01*
X3111233Y2959100D01*
D02*
G37*
G36*
X3009900D02*
X2933967D01*
X2939758Y2937486D01*
X2951462Y2917214D01*
X2968014Y2900662D01*
X2988286Y2888958D01*
X3009900Y2883167D01*
Y2959100D01*
D02*
G37*
G36*
X481604Y3048000D02*
X458196D01*
X435586Y3041942D01*
X415314Y3030238D01*
X398762Y3013686D01*
X387058Y2993414D01*
X381000Y2970804D01*
Y2947396D01*
X387058Y2924786D01*
X398762Y2904514D01*
X415314Y2887962D01*
X435586Y2876258D01*
X458196Y2870200D01*
X481604D01*
X504214Y2876258D01*
X524486Y2887962D01*
X541038Y2904514D01*
X552742Y2924786D01*
X558800Y2947396D01*
Y2970804D01*
X552742Y2993414D01*
X541038Y3013686D01*
X524486Y3030238D01*
X504214Y3041942D01*
X481604Y3048000D01*
D02*
G37*
G36*
X17103728Y2956200D02*
X17084673D01*
X17067067Y2948907D01*
X17053593Y2935433D01*
X17046300Y2917828D01*
Y2898772D01*
X17053593Y2881167D01*
X17067067Y2867693D01*
X17084673Y2860400D01*
X17103728D01*
X17121333Y2867693D01*
X17134807Y2881167D01*
X17142101Y2898772D01*
Y2917828D01*
X17134807Y2935433D01*
X17121333Y2948907D01*
X17103728Y2956200D01*
D02*
G37*
G36*
X10496556Y2953300D02*
X10477500D01*
X10459895Y2946007D01*
X10446420Y2932533D01*
X10439128Y2914928D01*
Y2895872D01*
X10446420Y2878267D01*
X10459895Y2864792D01*
X10477500Y2857500D01*
X10496556D01*
X10514161Y2864792D01*
X10527635Y2878267D01*
X10534928Y2895872D01*
Y2914928D01*
X10527635Y2932533D01*
X10514161Y2946007D01*
X10496556Y2953300D01*
D02*
G37*
G36*
X8572500D02*
X8553444D01*
X8535839Y2946007D01*
X8522365Y2932533D01*
X8515072Y2914928D01*
Y2895872D01*
X8522365Y2878267D01*
X8535839Y2864792D01*
X8553444Y2857500D01*
X8572500D01*
X8590105Y2864792D01*
X8603580Y2878267D01*
X8610872Y2895872D01*
Y2914928D01*
X8603580Y2932533D01*
X8590105Y2946007D01*
X8572500Y2953300D01*
D02*
G37*
G36*
X6953256D02*
X6934200D01*
X6916595Y2946007D01*
X6903120Y2932533D01*
X6895828Y2914928D01*
Y2895872D01*
X6903120Y2878267D01*
X6916595Y2864792D01*
X6934200Y2857500D01*
X6953256D01*
X6970861Y2864792D01*
X6984335Y2878267D01*
X6991628Y2895872D01*
Y2914928D01*
X6984335Y2932533D01*
X6970861Y2946007D01*
X6953256Y2953300D01*
D02*
G37*
G36*
X3923304Y3022600D02*
X3899896D01*
X3877286Y3016542D01*
X3857014Y3004838D01*
X3840462Y2988286D01*
X3828758Y2968014D01*
X3822700Y2945404D01*
Y2921996D01*
X3828758Y2899386D01*
X3840462Y2879114D01*
X3857014Y2862562D01*
X3877286Y2850858D01*
X3899896Y2844800D01*
X3923304D01*
X3945914Y2850858D01*
X3966186Y2862562D01*
X3982738Y2879114D01*
X3994442Y2899386D01*
X4000500Y2921996D01*
Y2945404D01*
X3994442Y2968014D01*
X3982738Y2988286D01*
X3966186Y3004838D01*
X3945914Y3016542D01*
X3923304Y3022600D01*
D02*
G37*
G36*
X1587233Y2908300D02*
X1511300D01*
Y2832367D01*
X1532914Y2838158D01*
X1553186Y2849862D01*
X1569738Y2866414D01*
X1581442Y2886686D01*
X1587233Y2908300D01*
D02*
G37*
G36*
X1485900D02*
X1409967D01*
X1415758Y2886686D01*
X1427462Y2866414D01*
X1444014Y2849862D01*
X1464286Y2838158D01*
X1485900Y2832367D01*
Y2908300D01*
D02*
G37*
G36*
X5203828Y2905400D02*
X5184772D01*
X5167167Y2898107D01*
X5153693Y2884633D01*
X5146400Y2867028D01*
Y2847972D01*
X5153693Y2830367D01*
X5167167Y2816893D01*
X5184772Y2809600D01*
X5203828D01*
X5221433Y2816893D01*
X5234907Y2830367D01*
X5242200Y2847972D01*
Y2867028D01*
X5234907Y2884633D01*
X5221433Y2898107D01*
X5203828Y2905400D01*
D02*
G37*
G36*
X2234204Y2971800D02*
X2210796D01*
X2188186Y2965742D01*
X2167914Y2954038D01*
X2151362Y2937486D01*
X2139658Y2917214D01*
X2133600Y2894604D01*
Y2871196D01*
X2139658Y2848586D01*
X2151362Y2828314D01*
X2167914Y2811762D01*
X2188186Y2800058D01*
X2210796Y2794000D01*
X2234204D01*
X2256814Y2800058D01*
X2277086Y2811762D01*
X2293638Y2828314D01*
X2305342Y2848586D01*
X2311400Y2871196D01*
Y2894604D01*
X2305342Y2917214D01*
X2293638Y2937486D01*
X2277086Y2954038D01*
X2256814Y2965742D01*
X2234204Y2971800D01*
D02*
G37*
G36*
X3667128Y2854600D02*
X3648072D01*
X3630467Y2847307D01*
X3616993Y2833833D01*
X3609700Y2816228D01*
Y2797172D01*
X3616993Y2779567D01*
X3630467Y2766093D01*
X3648072Y2758800D01*
X3667128D01*
X3684733Y2766093D01*
X3698207Y2779567D01*
X3705500Y2797172D01*
Y2816228D01*
X3698207Y2833833D01*
X3684733Y2847307D01*
X3667128Y2854600D01*
D02*
G37*
G36*
X492128Y2841900D02*
X473072D01*
X455467Y2834607D01*
X441993Y2821133D01*
X434700Y2803528D01*
Y2784472D01*
X441993Y2766867D01*
X455467Y2753393D01*
X473072Y2746100D01*
X492128D01*
X509733Y2753393D01*
X523207Y2766867D01*
X530500Y2784472D01*
Y2803528D01*
X523207Y2821133D01*
X509733Y2834607D01*
X492128Y2841900D01*
D02*
G37*
G36*
X1838328Y2829200D02*
X1819272D01*
X1801667Y2821907D01*
X1788193Y2808433D01*
X1780900Y2790828D01*
Y2771772D01*
X1788193Y2754167D01*
X1801667Y2740693D01*
X1819272Y2733400D01*
X1838328D01*
X1855933Y2740693D01*
X1869407Y2754167D01*
X1876700Y2771772D01*
Y2790828D01*
X1869407Y2808433D01*
X1855933Y2821907D01*
X1838328Y2829200D01*
D02*
G37*
G36*
X17474203Y2895600D02*
X17450797D01*
X17428186Y2889542D01*
X17407915Y2877838D01*
X17391362Y2861286D01*
X17379659Y2841014D01*
X17373599Y2818404D01*
Y2794996D01*
X17379659Y2772386D01*
X17391362Y2752114D01*
X17407915Y2735562D01*
X17428186Y2723858D01*
X17450797Y2717800D01*
X17474203D01*
X17496814Y2723858D01*
X17517085Y2735562D01*
X17533638Y2752114D01*
X17545341Y2772386D01*
X17551401Y2794996D01*
Y2818404D01*
X17545341Y2841014D01*
X17533638Y2861286D01*
X17517085Y2877838D01*
X17496814Y2889542D01*
X17474203Y2895600D01*
D02*
G37*
G36*
X10730504D02*
X10707096D01*
X10684486Y2889542D01*
X10664214Y2877838D01*
X10647662Y2861286D01*
X10635958Y2841014D01*
X10629900Y2818404D01*
Y2794996D01*
X10635958Y2772386D01*
X10647662Y2752114D01*
X10664214Y2735562D01*
X10684486Y2723858D01*
X10707096Y2717800D01*
X10730504D01*
X10753114Y2723858D01*
X10773386Y2735562D01*
X10789938Y2752114D01*
X10801642Y2772386D01*
X10807700Y2794996D01*
Y2818404D01*
X10801642Y2841014D01*
X10789938Y2861286D01*
X10773386Y2877838D01*
X10753114Y2889542D01*
X10730504Y2895600D01*
D02*
G37*
G36*
X9003304D02*
X8979896D01*
X8957286Y2889542D01*
X8937014Y2877838D01*
X8920462Y2861286D01*
X8908758Y2841014D01*
X8902700Y2818404D01*
Y2794996D01*
X8908758Y2772386D01*
X8920462Y2752114D01*
X8937014Y2735562D01*
X8957286Y2723858D01*
X8979896Y2717800D01*
X9003304D01*
X9025914Y2723858D01*
X9046186Y2735562D01*
X9062738Y2752114D01*
X9074442Y2772386D01*
X9080500Y2794996D01*
Y2818404D01*
X9074442Y2841014D01*
X9062738Y2861286D01*
X9046186Y2877838D01*
X9025914Y2889542D01*
X9003304Y2895600D01*
D02*
G37*
G36*
X7276104D02*
X7252696D01*
X7230086Y2889542D01*
X7209814Y2877838D01*
X7193262Y2861286D01*
X7181558Y2841014D01*
X7175500Y2818404D01*
Y2794996D01*
X7181558Y2772386D01*
X7193262Y2752114D01*
X7209814Y2735562D01*
X7230086Y2723858D01*
X7252696Y2717800D01*
X7276104D01*
X7298714Y2723858D01*
X7318986Y2735562D01*
X7335538Y2752114D01*
X7347242Y2772386D01*
X7353300Y2794996D01*
Y2818404D01*
X7347242Y2841014D01*
X7335538Y2861286D01*
X7318986Y2877838D01*
X7298714Y2889542D01*
X7276104Y2895600D01*
D02*
G37*
G36*
X5612404Y2882900D02*
X5588996D01*
X5566386Y2876842D01*
X5546114Y2865138D01*
X5529562Y2848586D01*
X5517858Y2828314D01*
X5511800Y2805704D01*
Y2782296D01*
X5517858Y2759686D01*
X5529562Y2739414D01*
X5546114Y2722862D01*
X5566386Y2711158D01*
X5588996Y2705100D01*
X5612404D01*
X5635014Y2711158D01*
X5655286Y2722862D01*
X5671838Y2739414D01*
X5683542Y2759686D01*
X5689600Y2782296D01*
Y2805704D01*
X5683542Y2828314D01*
X5671838Y2848586D01*
X5655286Y2865138D01*
X5635014Y2876842D01*
X5612404Y2882900D01*
D02*
G37*
G36*
X16656056Y2788200D02*
X16637000D01*
X16619395Y2780907D01*
X16605920Y2767433D01*
X16598628Y2749828D01*
Y2730772D01*
X16605920Y2713167D01*
X16619395Y2699692D01*
X16637000Y2692400D01*
X16656056D01*
X16673660Y2699692D01*
X16687135Y2713167D01*
X16694427Y2730772D01*
Y2749828D01*
X16687135Y2767433D01*
X16673660Y2780907D01*
X16656056Y2788200D01*
D02*
G37*
G36*
X14903456D02*
X14884399D01*
X14866795Y2780907D01*
X14853320Y2767433D01*
X14846028Y2749828D01*
Y2730772D01*
X14853320Y2713167D01*
X14866795Y2699692D01*
X14884399Y2692400D01*
X14903456D01*
X14921062Y2699692D01*
X14934535Y2713167D01*
X14941827Y2730772D01*
Y2749828D01*
X14934535Y2767433D01*
X14921062Y2780907D01*
X14903456Y2788200D01*
D02*
G37*
G36*
X11499856D02*
X11480800D01*
X11463195Y2780907D01*
X11449720Y2767433D01*
X11442428Y2749828D01*
Y2730772D01*
X11449720Y2713167D01*
X11463195Y2699692D01*
X11480800Y2692400D01*
X11499856D01*
X11517461Y2699692D01*
X11530935Y2713167D01*
X11538228Y2730772D01*
Y2749828D01*
X11530935Y2767433D01*
X11517461Y2780907D01*
X11499856Y2788200D01*
D02*
G37*
G36*
X9810756D02*
X9791700D01*
X9774095Y2780907D01*
X9760620Y2767433D01*
X9753328Y2749828D01*
Y2730772D01*
X9760620Y2713167D01*
X9774095Y2699692D01*
X9791700Y2692400D01*
X9810756D01*
X9828361Y2699692D01*
X9841835Y2713167D01*
X9849128Y2730772D01*
Y2749828D01*
X9841835Y2767433D01*
X9828361Y2780907D01*
X9810756Y2788200D01*
D02*
G37*
G36*
X8108956D02*
X8089900D01*
X8072295Y2780907D01*
X8058820Y2767433D01*
X8051528Y2749828D01*
Y2730772D01*
X8058820Y2713167D01*
X8072295Y2699692D01*
X8089900Y2692400D01*
X8108956D01*
X8126561Y2699692D01*
X8140035Y2713167D01*
X8147328Y2730772D01*
Y2749828D01*
X8140035Y2767433D01*
X8126561Y2780907D01*
X8108956Y2788200D01*
D02*
G37*
G36*
X6419856D02*
X6400800D01*
X6383195Y2780907D01*
X6369720Y2767433D01*
X6362428Y2749828D01*
Y2730772D01*
X6369720Y2713167D01*
X6383195Y2699692D01*
X6400800Y2692400D01*
X6419856D01*
X6437461Y2699692D01*
X6450935Y2713167D01*
X6458228Y2730772D01*
Y2749828D01*
X6450935Y2767433D01*
X6437461Y2780907D01*
X6419856Y2788200D01*
D02*
G37*
G36*
X4768856D02*
X4749800D01*
X4732195Y2780907D01*
X4718720Y2767433D01*
X4711428Y2749828D01*
Y2730772D01*
X4718720Y2713167D01*
X4732195Y2699692D01*
X4749800Y2692400D01*
X4768856D01*
X4786461Y2699692D01*
X4799935Y2713167D01*
X4807228Y2730772D01*
Y2749828D01*
X4799935Y2767433D01*
X4786461Y2780907D01*
X4768856Y2788200D01*
D02*
G37*
G36*
X3054356D02*
X3035300D01*
X3017695Y2780907D01*
X3004220Y2767433D01*
X2996928Y2749828D01*
Y2730772D01*
X3004220Y2713167D01*
X3017695Y2699692D01*
X3035300Y2692400D01*
X3054356D01*
X3071961Y2699692D01*
X3085435Y2713167D01*
X3092728Y2730772D01*
Y2749828D01*
X3085435Y2767433D01*
X3071961Y2780907D01*
X3054356Y2788200D01*
D02*
G37*
G36*
X1492256D02*
X1473200D01*
X1455595Y2780907D01*
X1442120Y2767433D01*
X1434828Y2749828D01*
Y2730772D01*
X1442120Y2713167D01*
X1455595Y2699692D01*
X1473200Y2692400D01*
X1492256D01*
X1509861Y2699692D01*
X1523335Y2713167D01*
X1530628Y2730772D01*
Y2749828D01*
X1523335Y2767433D01*
X1509861Y2780907D01*
X1492256Y2788200D01*
D02*
G37*
G36*
X13206561Y2780907D02*
X13187505D01*
X13169901Y2773615D01*
X13156425Y2760141D01*
X13149133Y2742535D01*
Y2723480D01*
X13156425Y2705874D01*
X13169901Y2692400D01*
X13187505Y2685108D01*
X13206561D01*
X13224165Y2692400D01*
X13237640Y2705874D01*
X13244933Y2723480D01*
Y2742535D01*
X13237640Y2760141D01*
X13224165Y2773615D01*
X13206561Y2780907D01*
D02*
G37*
G36*
X16646529Y2669901D02*
X16627472D01*
X16609866Y2662609D01*
X16596393Y2649134D01*
X16589101Y2631529D01*
Y2612474D01*
X16596393Y2594868D01*
X16609866Y2581394D01*
X16627472Y2574102D01*
X16646529D01*
X16664133Y2581394D01*
X16677608Y2594868D01*
X16684900Y2612474D01*
Y2631529D01*
X16677608Y2649134D01*
X16664133Y2662609D01*
X16646529Y2669901D01*
D02*
G37*
G36*
X14919328Y2664100D02*
X14900272D01*
X14882668Y2656807D01*
X14869193Y2643333D01*
X14861900Y2625728D01*
Y2606672D01*
X14869193Y2589067D01*
X14882668Y2575593D01*
X14900272Y2568300D01*
X14919328D01*
X14936932Y2575593D01*
X14950407Y2589067D01*
X14957700Y2606672D01*
Y2625728D01*
X14950407Y2643333D01*
X14936932Y2656807D01*
X14919328Y2664100D01*
D02*
G37*
G36*
X13179428D02*
X13160371D01*
X13142767Y2656807D01*
X13129292Y2643333D01*
X13122000Y2625728D01*
Y2606672D01*
X13129292Y2589067D01*
X13142767Y2575593D01*
X13160371Y2568300D01*
X13179428D01*
X13197034Y2575593D01*
X13210507Y2589067D01*
X13217799Y2606672D01*
Y2625728D01*
X13210507Y2643333D01*
X13197034Y2656807D01*
X13179428Y2664100D01*
D02*
G37*
G36*
X11503028D02*
X11483972D01*
X11466367Y2656807D01*
X11452893Y2643333D01*
X11445600Y2625728D01*
Y2606672D01*
X11452893Y2589067D01*
X11466367Y2575593D01*
X11483972Y2568300D01*
X11503028D01*
X11520633Y2575593D01*
X11534107Y2589067D01*
X11541400Y2606672D01*
Y2625728D01*
X11534107Y2643333D01*
X11520633Y2656807D01*
X11503028Y2664100D01*
D02*
G37*
G36*
X9801228D02*
X9782172D01*
X9764567Y2656807D01*
X9751093Y2643333D01*
X9743800Y2625728D01*
Y2606672D01*
X9751093Y2589067D01*
X9764567Y2575593D01*
X9782172Y2568300D01*
X9801228D01*
X9818833Y2575593D01*
X9832307Y2589067D01*
X9839600Y2606672D01*
Y2625728D01*
X9832307Y2643333D01*
X9818833Y2656807D01*
X9801228Y2664100D01*
D02*
G37*
G36*
X8099428D02*
X8080372D01*
X8062767Y2656807D01*
X8049293Y2643333D01*
X8042000Y2625728D01*
Y2606672D01*
X8049293Y2589067D01*
X8062767Y2575593D01*
X8080372Y2568300D01*
X8099428D01*
X8117033Y2575593D01*
X8130507Y2589067D01*
X8137800Y2606672D01*
Y2625728D01*
X8130507Y2643333D01*
X8117033Y2656807D01*
X8099428Y2664100D01*
D02*
G37*
G36*
X492128Y2626000D02*
X473072D01*
X455467Y2618707D01*
X441993Y2605233D01*
X434700Y2587628D01*
Y2568572D01*
X441993Y2550967D01*
X455467Y2537493D01*
X473072Y2530200D01*
X492128D01*
X509733Y2537493D01*
X523207Y2550967D01*
X530500Y2568572D01*
Y2587628D01*
X523207Y2605233D01*
X509733Y2618707D01*
X492128Y2626000D01*
D02*
G37*
G36*
X4768856Y2622001D02*
X4749800D01*
X4732195Y2614709D01*
X4718720Y2601235D01*
X4711428Y2583629D01*
Y2564574D01*
X4718720Y2546968D01*
X4732195Y2533494D01*
X4749800Y2526202D01*
X4768856D01*
X4786461Y2533494D01*
X4799935Y2546968D01*
X4807228Y2564574D01*
Y2583629D01*
X4799935Y2601235D01*
X4786461Y2614709D01*
X4768856Y2622001D01*
D02*
G37*
G36*
X3054356D02*
X3035300D01*
X3017695Y2614709D01*
X3004220Y2601235D01*
X2996928Y2583629D01*
Y2564574D01*
X3004220Y2546968D01*
X3017695Y2533494D01*
X3035300Y2526202D01*
X3054356D01*
X3071961Y2533494D01*
X3085435Y2546968D01*
X3092728Y2564574D01*
Y2583629D01*
X3085435Y2601235D01*
X3071961Y2614709D01*
X3054356Y2622001D01*
D02*
G37*
G36*
X1492256D02*
X1473200D01*
X1455595Y2614709D01*
X1442120Y2601235D01*
X1434828Y2583629D01*
Y2564574D01*
X1442120Y2546968D01*
X1455595Y2533494D01*
X1473200Y2526202D01*
X1492256D01*
X1509861Y2533494D01*
X1523335Y2546968D01*
X1530628Y2564574D01*
Y2583629D01*
X1523335Y2601235D01*
X1509861Y2614709D01*
X1492256Y2622001D01*
D02*
G37*
G36*
X6419856Y2616200D02*
X6400800D01*
X6383195Y2608908D01*
X6369720Y2595433D01*
X6362428Y2577828D01*
Y2558772D01*
X6369720Y2541167D01*
X6383195Y2527693D01*
X6400800Y2520400D01*
X6419856D01*
X6437461Y2527693D01*
X6450935Y2541167D01*
X6458228Y2558772D01*
Y2577828D01*
X6450935Y2595433D01*
X6437461Y2608908D01*
X6419856Y2616200D01*
D02*
G37*
G36*
X12404728Y2587900D02*
X12385672D01*
X12368067Y2580607D01*
X12354593Y2567133D01*
X12347300Y2549528D01*
Y2530472D01*
X12354593Y2512867D01*
X12368067Y2499393D01*
X12385672Y2492100D01*
X12404728D01*
X12422333Y2499393D01*
X12435807Y2512867D01*
X12443100Y2530472D01*
Y2549528D01*
X12435807Y2567133D01*
X12422333Y2580607D01*
X12404728Y2587900D01*
D02*
G37*
G36*
X14119228Y2575200D02*
X14100172D01*
X14082567Y2567907D01*
X14069093Y2554433D01*
X14061800Y2536828D01*
Y2517772D01*
X14069093Y2500167D01*
X14082567Y2486693D01*
X14100172Y2479400D01*
X14119228D01*
X14136833Y2486693D01*
X14150307Y2500167D01*
X14157600Y2517772D01*
Y2536828D01*
X14150307Y2554433D01*
X14136833Y2567907D01*
X14119228Y2575200D01*
D02*
G37*
G36*
X12201528D02*
X12182472D01*
X12164867Y2567907D01*
X12151393Y2554433D01*
X12144100Y2536828D01*
Y2517772D01*
X12151393Y2500167D01*
X12164867Y2486693D01*
X12182472Y2479400D01*
X12201528D01*
X12219133Y2486693D01*
X12232607Y2500167D01*
X12239900Y2517772D01*
Y2536828D01*
X12232607Y2554433D01*
X12219133Y2567907D01*
X12201528Y2575200D01*
D02*
G37*
G36*
X10512428D02*
X10493372D01*
X10475767Y2567907D01*
X10462293Y2554433D01*
X10455000Y2536828D01*
Y2517772D01*
X10462293Y2500167D01*
X10475767Y2486693D01*
X10493372Y2479400D01*
X10512428D01*
X10530033Y2486693D01*
X10543507Y2500167D01*
X10550800Y2517772D01*
Y2536828D01*
X10543507Y2554433D01*
X10530033Y2567907D01*
X10512428Y2575200D01*
D02*
G37*
G36*
X8594728D02*
X8575672D01*
X8558067Y2567907D01*
X8544593Y2554433D01*
X8537300Y2536828D01*
Y2517772D01*
X8544593Y2500167D01*
X8558067Y2486693D01*
X8575672Y2479400D01*
X8594728D01*
X8612333Y2486693D01*
X8625807Y2500167D01*
X8633100Y2517772D01*
Y2536828D01*
X8625807Y2554433D01*
X8612333Y2567907D01*
X8594728Y2575200D01*
D02*
G37*
G36*
X6956428Y2565700D02*
X6937372D01*
X6919767Y2558408D01*
X6906293Y2544933D01*
X6899000Y2527328D01*
Y2508273D01*
X6906293Y2490667D01*
X6919767Y2477193D01*
X6937372Y2469901D01*
X6956428D01*
X6974033Y2477193D01*
X6987507Y2490667D01*
X6994800Y2508273D01*
Y2527328D01*
X6987507Y2544933D01*
X6974033Y2558408D01*
X6956428Y2565700D01*
D02*
G37*
G36*
X5241928Y2562500D02*
X5222872D01*
X5205267Y2555207D01*
X5191793Y2541733D01*
X5184500Y2524128D01*
Y2505072D01*
X5191793Y2487467D01*
X5205267Y2473993D01*
X5222872Y2466700D01*
X5241928D01*
X5259533Y2473993D01*
X5273007Y2487467D01*
X5280300Y2505072D01*
Y2524128D01*
X5273007Y2541733D01*
X5259533Y2555207D01*
X5241928Y2562500D01*
D02*
G37*
G36*
X1838328D02*
X1819272D01*
X1801667Y2555207D01*
X1788193Y2541733D01*
X1780900Y2524128D01*
Y2505072D01*
X1788193Y2487467D01*
X1801667Y2473993D01*
X1819272Y2466700D01*
X1838328D01*
X1855933Y2473993D01*
X1869407Y2487467D01*
X1876700Y2505072D01*
Y2524128D01*
X1869407Y2541733D01*
X1855933Y2555207D01*
X1838328Y2562500D01*
D02*
G37*
G36*
X15516228Y2549800D02*
X15497173D01*
X15479567Y2542507D01*
X15466093Y2529033D01*
X15458800Y2511428D01*
Y2492372D01*
X15466093Y2474767D01*
X15479567Y2461293D01*
X15497173Y2454000D01*
X15516228D01*
X15533833Y2461293D01*
X15547307Y2474767D01*
X15554601Y2492372D01*
Y2511428D01*
X15547307Y2529033D01*
X15533833Y2542507D01*
X15516228Y2549800D01*
D02*
G37*
G36*
X3641728D02*
X3622672D01*
X3605067Y2542507D01*
X3591593Y2529033D01*
X3584300Y2511428D01*
Y2492372D01*
X3591593Y2474767D01*
X3605067Y2461293D01*
X3622672Y2454000D01*
X3641728D01*
X3659333Y2461293D01*
X3672807Y2474767D01*
X3680100Y2492372D01*
Y2511428D01*
X3672807Y2529033D01*
X3659333Y2542507D01*
X3641728Y2549800D01*
D02*
G37*
G36*
X7197728Y2524400D02*
X7178672D01*
X7161067Y2517107D01*
X7147593Y2503633D01*
X7140300Y2486028D01*
Y2466972D01*
X7147593Y2449367D01*
X7161067Y2435893D01*
X7178672Y2428600D01*
X7197728D01*
X7215333Y2435893D01*
X7228807Y2449367D01*
X7236100Y2466972D01*
Y2486028D01*
X7228807Y2503633D01*
X7215333Y2517107D01*
X7197728Y2524400D01*
D02*
G37*
G36*
X13738228Y2511700D02*
X13719173D01*
X13701567Y2504407D01*
X13688094Y2490933D01*
X13680800Y2473328D01*
Y2454272D01*
X13688094Y2436667D01*
X13701567Y2423193D01*
X13719173Y2415900D01*
X13738228D01*
X13755833Y2423193D01*
X13769307Y2436667D01*
X13776601Y2454272D01*
Y2473328D01*
X13769307Y2490933D01*
X13755833Y2504407D01*
X13738228Y2511700D01*
D02*
G37*
G36*
X2206628Y2499000D02*
X2187572D01*
X2169967Y2491707D01*
X2156493Y2478233D01*
X2149200Y2460628D01*
Y2441572D01*
X2156493Y2423967D01*
X2169967Y2410493D01*
X2187572Y2403200D01*
X2206628D01*
X2224233Y2410493D01*
X2237707Y2423967D01*
X2245000Y2441572D01*
Y2460628D01*
X2237707Y2478233D01*
X2224233Y2491707D01*
X2206628Y2499000D01*
D02*
G37*
G36*
X17497427Y2486300D02*
X17478372D01*
X17460767Y2479007D01*
X17447293Y2465533D01*
X17439999Y2447928D01*
Y2428872D01*
X17447293Y2411267D01*
X17460767Y2397793D01*
X17478372Y2390500D01*
X17497427D01*
X17515033Y2397793D01*
X17528506Y2411267D01*
X17535800Y2428872D01*
Y2447928D01*
X17528506Y2465533D01*
X17515033Y2479007D01*
X17497427Y2486300D01*
D02*
G37*
G36*
X15655928D02*
X15636871D01*
X15619267Y2479007D01*
X15605794Y2465533D01*
X15598500Y2447928D01*
Y2428872D01*
X15605794Y2411267D01*
X15619267Y2397793D01*
X15636871Y2390500D01*
X15655928D01*
X15673534Y2397793D01*
X15687007Y2411267D01*
X15694299Y2428872D01*
Y2447928D01*
X15687007Y2465533D01*
X15673534Y2479007D01*
X15655928Y2486300D01*
D02*
G37*
G36*
X13916028D02*
X13896973D01*
X13879367Y2479007D01*
X13865894Y2465533D01*
X13858600Y2447928D01*
Y2428872D01*
X13865894Y2411267D01*
X13879367Y2397793D01*
X13896973Y2390500D01*
X13916028D01*
X13933633Y2397793D01*
X13947107Y2411267D01*
X13954401Y2428872D01*
Y2447928D01*
X13947107Y2465533D01*
X13933633Y2479007D01*
X13916028Y2486300D01*
D02*
G37*
G36*
X10652128D02*
X10633072D01*
X10615467Y2479007D01*
X10601993Y2465533D01*
X10594700Y2447928D01*
Y2428872D01*
X10601993Y2411267D01*
X10615467Y2397793D01*
X10633072Y2390500D01*
X10652128D01*
X10669733Y2397793D01*
X10683207Y2411267D01*
X10690500Y2428872D01*
Y2447928D01*
X10683207Y2465533D01*
X10669733Y2479007D01*
X10652128Y2486300D01*
D02*
G37*
G36*
X9877428D02*
X9858372D01*
X9840767Y2479007D01*
X9827293Y2465533D01*
X9820000Y2447928D01*
Y2428872D01*
X9827293Y2411267D01*
X9840767Y2397793D01*
X9858372Y2390500D01*
X9877428D01*
X9895033Y2397793D01*
X9908507Y2411267D01*
X9915800Y2428872D01*
Y2447928D01*
X9908507Y2465533D01*
X9895033Y2479007D01*
X9877428Y2486300D01*
D02*
G37*
G36*
X5572128D02*
X5553072D01*
X5535467Y2479007D01*
X5521993Y2465533D01*
X5514700Y2447928D01*
Y2428872D01*
X5521993Y2411267D01*
X5535467Y2397793D01*
X5553072Y2390500D01*
X5572128D01*
X5589733Y2397793D01*
X5603207Y2411267D01*
X5610500Y2428872D01*
Y2447928D01*
X5603207Y2465533D01*
X5589733Y2479007D01*
X5572128Y2486300D01*
D02*
G37*
G36*
X3959228Y2473600D02*
X3940172D01*
X3922567Y2466307D01*
X3909093Y2452833D01*
X3901800Y2435228D01*
Y2416172D01*
X3909093Y2398567D01*
X3922567Y2385093D01*
X3940172Y2377800D01*
X3959228D01*
X3976833Y2385093D01*
X3990307Y2398567D01*
X3997600Y2416172D01*
Y2435228D01*
X3990307Y2452833D01*
X3976833Y2466307D01*
X3959228Y2473600D01*
D02*
G37*
G36*
X13306429Y2422800D02*
X13287372D01*
X13269768Y2415507D01*
X13256293Y2402033D01*
X13249001Y2384428D01*
Y2365372D01*
X13256293Y2347767D01*
X13269768Y2334293D01*
X13287372Y2327000D01*
X13306429D01*
X13324033Y2334293D01*
X13337508Y2347767D01*
X13344800Y2365372D01*
Y2384428D01*
X13337508Y2402033D01*
X13324033Y2415507D01*
X13306429Y2422800D01*
D02*
G37*
G36*
X9775828Y2410100D02*
X9756772D01*
X9739167Y2402807D01*
X9725693Y2389333D01*
X9718400Y2371728D01*
Y2352672D01*
X9725693Y2335067D01*
X9739167Y2321593D01*
X9756772Y2314300D01*
X9775828D01*
X9793433Y2321593D01*
X9806907Y2335067D01*
X9814200Y2352672D01*
Y2371728D01*
X9806907Y2389333D01*
X9793433Y2402807D01*
X9775828Y2410100D01*
D02*
G37*
G36*
X17192628Y2397400D02*
X17173572D01*
X17155968Y2390107D01*
X17142493Y2376633D01*
X17135201Y2359028D01*
Y2339972D01*
X17142493Y2322367D01*
X17155968Y2308893D01*
X17173572Y2301600D01*
X17192628D01*
X17210233Y2308893D01*
X17223708Y2322367D01*
X17231000Y2339972D01*
Y2359028D01*
X17223708Y2376633D01*
X17210233Y2390107D01*
X17192628Y2397400D01*
D02*
G37*
G36*
X5737228Y2384700D02*
X5718172D01*
X5700567Y2377407D01*
X5687093Y2363933D01*
X5679800Y2346328D01*
Y2327272D01*
X5687093Y2309667D01*
X5700567Y2296193D01*
X5718172Y2288900D01*
X5737228D01*
X5754833Y2296193D01*
X5768307Y2309667D01*
X5775600Y2327272D01*
Y2346328D01*
X5768307Y2363933D01*
X5754833Y2377407D01*
X5737228Y2384700D01*
D02*
G37*
G36*
X2536828D02*
X2517772D01*
X2500167Y2377407D01*
X2486693Y2363933D01*
X2479400Y2346328D01*
Y2327272D01*
X2486693Y2309667D01*
X2500167Y2296193D01*
X2517772Y2288900D01*
X2536828D01*
X2554433Y2296193D01*
X2567907Y2309667D01*
X2575200Y2327272D01*
Y2346328D01*
X2567907Y2363933D01*
X2554433Y2377407D01*
X2536828Y2384700D01*
D02*
G37*
G36*
X16240128Y2372000D02*
X16221072D01*
X16203467Y2364707D01*
X16189993Y2351233D01*
X16182700Y2333628D01*
Y2314572D01*
X16189993Y2296967D01*
X16203467Y2283493D01*
X16221072Y2276200D01*
X16240128D01*
X16257733Y2283493D01*
X16271207Y2296967D01*
X16278500Y2314572D01*
Y2333628D01*
X16271207Y2351233D01*
X16257733Y2364707D01*
X16240128Y2372000D01*
D02*
G37*
G36*
X14525629D02*
X14506572D01*
X14488966Y2364707D01*
X14475493Y2351233D01*
X14468201Y2333628D01*
Y2314572D01*
X14475493Y2296967D01*
X14488966Y2283493D01*
X14506572Y2276200D01*
X14525629D01*
X14543233Y2283493D01*
X14556706Y2296967D01*
X14564000Y2314572D01*
Y2333628D01*
X14556706Y2351233D01*
X14543233Y2364707D01*
X14525629Y2372000D01*
D02*
G37*
G36*
X5953128Y2359300D02*
X5934072D01*
X5916467Y2352007D01*
X5902993Y2338533D01*
X5895700Y2320928D01*
Y2301872D01*
X5902993Y2284267D01*
X5916467Y2270793D01*
X5934072Y2263500D01*
X5953128D01*
X5970733Y2270793D01*
X5984207Y2284267D01*
X5991500Y2301872D01*
Y2320928D01*
X5984207Y2338533D01*
X5970733Y2352007D01*
X5953128Y2359300D01*
D02*
G37*
G36*
X16951328Y2333900D02*
X16932272D01*
X16914667Y2326607D01*
X16901193Y2313133D01*
X16893900Y2295528D01*
Y2276472D01*
X16901193Y2258867D01*
X16914667Y2245393D01*
X16932272Y2238100D01*
X16951328D01*
X16968933Y2245393D01*
X16982407Y2258867D01*
X16989700Y2276472D01*
Y2295528D01*
X16982407Y2313133D01*
X16968933Y2326607D01*
X16951328Y2333900D01*
D02*
G37*
G36*
X9432928Y2308667D02*
X9413872D01*
X9396267Y2301375D01*
X9382793Y2287900D01*
X9375500Y2270295D01*
Y2251240D01*
X9382793Y2233634D01*
X9396267Y2220160D01*
X9413872Y2212868D01*
X9432928D01*
X9450533Y2220160D01*
X9464007Y2233634D01*
X9471300Y2251240D01*
Y2270295D01*
X9464007Y2287900D01*
X9450533Y2301375D01*
X9432928Y2308667D01*
D02*
G37*
G36*
X5737228Y2143400D02*
X5718172D01*
X5700567Y2136107D01*
X5687093Y2122633D01*
X5679800Y2105028D01*
Y2085972D01*
X5687093Y2068367D01*
X5700567Y2054893D01*
X5718172Y2047600D01*
X5737228D01*
X5754833Y2054893D01*
X5768307Y2068367D01*
X5775600Y2085972D01*
Y2105028D01*
X5768307Y2122633D01*
X5754833Y2136107D01*
X5737228Y2143400D01*
D02*
G37*
G36*
X17256128Y1940200D02*
X17237073D01*
X17219467Y1932907D01*
X17205994Y1919433D01*
X17198700Y1901828D01*
Y1882772D01*
X17205994Y1865167D01*
X17219467Y1851693D01*
X17237073Y1844400D01*
X17256128D01*
X17273734Y1851693D01*
X17287207Y1865167D01*
X17294501Y1882772D01*
Y1901828D01*
X17287207Y1919433D01*
X17273734Y1932907D01*
X17256128Y1940200D01*
D02*
G37*
G36*
X8988428Y1851300D02*
X8969372D01*
X8951767Y1844007D01*
X8938293Y1830533D01*
X8931000Y1812928D01*
Y1793872D01*
X8938293Y1776267D01*
X8951767Y1762793D01*
X8969372Y1755500D01*
X8988428D01*
X9006033Y1762793D01*
X9019507Y1776267D01*
X9026800Y1793872D01*
Y1812928D01*
X9019507Y1830533D01*
X9006033Y1844007D01*
X8988428Y1851300D01*
D02*
G37*
G36*
X6042028Y1775100D02*
X6022972D01*
X6005367Y1767807D01*
X5991893Y1754333D01*
X5984600Y1736728D01*
Y1717672D01*
X5991893Y1700067D01*
X6005367Y1686593D01*
X6022972Y1679300D01*
X6042028D01*
X6059633Y1686593D01*
X6073107Y1700067D01*
X6080400Y1717672D01*
Y1736728D01*
X6073107Y1754333D01*
X6059633Y1767807D01*
X6042028Y1775100D01*
D02*
G37*
G36*
X11134728Y1737000D02*
X11115672D01*
X11098067Y1729707D01*
X11084593Y1716233D01*
X11077300Y1698628D01*
Y1679572D01*
X11084593Y1661967D01*
X11098067Y1648493D01*
X11115672Y1641200D01*
X11134728D01*
X11152333Y1648493D01*
X11165807Y1661967D01*
X11173100Y1679572D01*
Y1698628D01*
X11165807Y1716233D01*
X11152333Y1729707D01*
X11134728Y1737000D01*
D02*
G37*
G36*
X9610728Y1762400D02*
X9591672D01*
X9574067Y1755107D01*
X9560593Y1741633D01*
X9553300Y1724028D01*
Y1704972D01*
X9560593Y1687367D01*
X9574067Y1673893D01*
X9591672Y1666600D01*
X9601300D01*
X9632373Y1635527D01*
X9626479Y1621300D01*
X9523004D01*
X9496700Y1656257D01*
Y1673228D01*
X9489407Y1690833D01*
X9475933Y1704307D01*
X9458328Y1711600D01*
X9439272D01*
X9421667Y1704307D01*
X9408193Y1690833D01*
X9400900Y1673228D01*
Y1654172D01*
X9408193Y1636567D01*
X9421667Y1623093D01*
X9439272Y1615800D01*
X9442543D01*
X9479130Y1567178D01*
X9480910Y1565586D01*
X9482238Y1563600D01*
X9485783Y1561231D01*
X9488962Y1558389D01*
X9491217Y1557600D01*
X9493203Y1556273D01*
X9497385Y1555441D01*
X9501410Y1554033D01*
X9503795Y1554167D01*
X9506137Y1553700D01*
X10142452D01*
X10150908Y1538300D01*
X10150163Y1537129D01*
X10144395Y1532400D01*
X9975850D01*
X9962916Y1529827D01*
X9951950Y1522500D01*
X9822150Y1392700D01*
X9660541D01*
X9653733Y1399507D01*
X9636128Y1406800D01*
X9617072D01*
X9599467Y1399507D01*
X9585993Y1386033D01*
X9578700Y1368428D01*
Y1349372D01*
X9585993Y1331767D01*
X9599467Y1318293D01*
X9617072Y1311000D01*
X9636128D01*
X9653733Y1318293D01*
X9660541Y1325100D01*
X9836150D01*
X9849085Y1327673D01*
X9860050Y1335000D01*
X9989850Y1464800D01*
X10151459D01*
X10158267Y1457993D01*
X10175872Y1450700D01*
X10194928D01*
X10212533Y1457993D01*
X10226007Y1471467D01*
X10233300Y1489072D01*
Y1508128D01*
X10226007Y1525733D01*
X10213440Y1538300D01*
X10213809Y1542727D01*
X10217786Y1553700D01*
X11359514D01*
X11363491Y1542727D01*
X11363860Y1538300D01*
X11351293Y1525733D01*
X11344000Y1508128D01*
Y1489072D01*
X11351293Y1471467D01*
X11364767Y1457993D01*
X11382372Y1450700D01*
X11392000D01*
X11533100Y1309600D01*
X11544065Y1302273D01*
X11557000Y1299700D01*
X12632136D01*
Y1293500D01*
X12634383Y1276427D01*
X12640973Y1260518D01*
X12651456Y1246856D01*
X12665118Y1236373D01*
X12681027Y1229783D01*
X12698100Y1227536D01*
X12778100D01*
X12795173Y1229783D01*
X12811082Y1236373D01*
X12824744Y1246856D01*
X12835226Y1260518D01*
X12841817Y1276427D01*
X12844064Y1293500D01*
Y1373500D01*
X12841817Y1390573D01*
X12835226Y1406482D01*
X12824744Y1420144D01*
X12811082Y1430627D01*
X12795173Y1437217D01*
X12778100Y1439464D01*
X12698100D01*
X12681027Y1437217D01*
X12665118Y1430627D01*
X12651456Y1420144D01*
X12640973Y1406482D01*
X12634383Y1390573D01*
X12632136Y1373500D01*
Y1367300D01*
X11571000D01*
X11439800Y1498500D01*
Y1508128D01*
X11432507Y1525733D01*
X11419940Y1538300D01*
X11420309Y1542727D01*
X11424286Y1553700D01*
X11789281D01*
X11795793Y1538433D01*
X11788500Y1520828D01*
Y1501772D01*
X11795793Y1484167D01*
X11809267Y1470693D01*
X11826872Y1463400D01*
X11845928D01*
X11863533Y1470693D01*
X11877007Y1484167D01*
X11884300Y1501772D01*
Y1520828D01*
X11877007Y1538433D01*
X11883519Y1553700D01*
X13168600D01*
X13210899Y1511400D01*
Y1501772D01*
X13218193Y1484167D01*
X13231667Y1470693D01*
X13249272Y1463400D01*
X13268327D01*
X13285933Y1470693D01*
X13299406Y1484167D01*
X13306700Y1501772D01*
Y1520828D01*
X13299406Y1538433D01*
X13285933Y1551907D01*
X13268327Y1559200D01*
X13258701D01*
X13206500Y1611400D01*
X13195535Y1618727D01*
X13182600Y1621300D01*
X10865486D01*
X10861509Y1632273D01*
X10861140Y1636700D01*
X10873707Y1649267D01*
X10881000Y1666872D01*
Y1685928D01*
X10873707Y1703533D01*
X10860233Y1717007D01*
X10842628Y1724300D01*
X10823572D01*
X10805967Y1717007D01*
X10792493Y1703533D01*
X10785200Y1685928D01*
Y1676300D01*
X10776150Y1667249D01*
X10635234D01*
X10627000Y1679572D01*
Y1698628D01*
X10619707Y1716233D01*
X10606233Y1729707D01*
X10588628Y1737000D01*
X10569572D01*
X10551967Y1729707D01*
X10538493Y1716233D01*
X10531200Y1698628D01*
Y1679572D01*
X10522966Y1667249D01*
X9696250D01*
X9649100Y1714400D01*
Y1724028D01*
X9641807Y1741633D01*
X9628333Y1755107D01*
X9610728Y1762400D01*
D02*
G37*
G36*
X2206628Y1698900D02*
X2187572D01*
X2169967Y1691607D01*
X2156493Y1678133D01*
X2149200Y1660528D01*
Y1641472D01*
X2156493Y1623867D01*
X2169967Y1610393D01*
X2187572Y1603100D01*
X2206628D01*
X2224233Y1610393D01*
X2237707Y1623867D01*
X2245000Y1641472D01*
Y1660528D01*
X2237707Y1678133D01*
X2224233Y1691607D01*
X2206628Y1698900D01*
D02*
G37*
G36*
X15465428Y1622700D02*
X15446371D01*
X15428767Y1615407D01*
X15415292Y1601933D01*
X15408000Y1584328D01*
Y1565272D01*
X15415292Y1547667D01*
X15428767Y1534193D01*
X15446371Y1526900D01*
X15465428D01*
X15483034Y1534193D01*
X15496507Y1547667D01*
X15503799Y1565272D01*
Y1584328D01*
X15496507Y1601933D01*
X15483034Y1615407D01*
X15465428Y1622700D01*
D02*
G37*
G36*
X3794128Y1521100D02*
X3775072D01*
X3757467Y1513807D01*
X3743993Y1500333D01*
X3736700Y1482728D01*
Y1463672D01*
X3743993Y1446067D01*
X3757467Y1432593D01*
X3775072Y1425300D01*
X3794128D01*
X3811733Y1432593D01*
X3825207Y1446067D01*
X3832500Y1463672D01*
Y1482728D01*
X3825207Y1500333D01*
X3811733Y1513807D01*
X3794128Y1521100D01*
D02*
G37*
G36*
X3971928Y1444900D02*
X3952872D01*
X3935267Y1437607D01*
X3921793Y1424133D01*
X3914500Y1406528D01*
Y1387472D01*
X3921793Y1369867D01*
X3935267Y1356393D01*
X3952872Y1349100D01*
X3971928D01*
X3989533Y1356393D01*
X4003007Y1369867D01*
X4010300Y1387472D01*
Y1406528D01*
X4003007Y1424133D01*
X3989533Y1437607D01*
X3971928Y1444900D01*
D02*
G37*
G36*
X8802276Y1515100D02*
X8774524D01*
X8747717Y1507917D01*
X8723683Y1494041D01*
X8704059Y1474417D01*
X8690183Y1450383D01*
X8683000Y1423576D01*
Y1395824D01*
X8690183Y1369017D01*
X8704059Y1344983D01*
X8723683Y1325359D01*
X8747717Y1311483D01*
X8774524Y1304300D01*
X8802276D01*
X8829083Y1311483D01*
X8853117Y1325359D01*
X8872741Y1344983D01*
X8886617Y1369017D01*
X8893800Y1395824D01*
Y1423576D01*
X8886617Y1450383D01*
X8872741Y1474417D01*
X8853117Y1494041D01*
X8829083Y1507917D01*
X8802276Y1515100D01*
D02*
G37*
G36*
X13277856Y2311400D02*
X13258800D01*
X13241196Y2304108D01*
X13227721Y2290633D01*
X13220428Y2273028D01*
Y2253972D01*
X13227721Y2236367D01*
X13237502Y2226586D01*
Y2209999D01*
X13240074Y2197065D01*
X13247401Y2186100D01*
X14099899Y1333600D01*
Y1323972D01*
X14107193Y1306367D01*
X14120667Y1292893D01*
X14138272Y1285600D01*
X14157327D01*
X14174933Y1292893D01*
X14188406Y1306367D01*
X14195700Y1323972D01*
Y1343028D01*
X14188406Y1360633D01*
X14174933Y1374107D01*
X14157327Y1381400D01*
X14147701D01*
X13305099Y2224000D01*
Y2232532D01*
X13308936Y2236367D01*
X13316228Y2253972D01*
Y2273028D01*
X13308936Y2290633D01*
X13295461Y2304108D01*
X13277856Y2311400D01*
D02*
G37*
G36*
X13005975Y1438900D02*
X12978224D01*
X12951418Y1431717D01*
X12927383Y1417841D01*
X12907759Y1398217D01*
X12893883Y1374183D01*
X12886700Y1347376D01*
Y1319624D01*
X12893883Y1292817D01*
X12907759Y1268783D01*
X12927383Y1249159D01*
X12951418Y1235283D01*
X12978224Y1228100D01*
X13005975D01*
X13032784Y1235283D01*
X13056818Y1249159D01*
X13076440Y1268783D01*
X13090317Y1292817D01*
X13097501Y1319624D01*
Y1347376D01*
X13090317Y1374183D01*
X13076440Y1398217D01*
X13056818Y1417841D01*
X13032784Y1431717D01*
X13005975Y1438900D01*
D02*
G37*
G36*
X4035428Y1317900D02*
X4016372D01*
X3998767Y1310607D01*
X3985293Y1297133D01*
X3978000Y1279528D01*
Y1260472D01*
X3985293Y1242867D01*
X3998767Y1229393D01*
X4016372Y1222100D01*
X4035428D01*
X4053033Y1229393D01*
X4066507Y1242867D01*
X4073800Y1260472D01*
Y1279528D01*
X4066507Y1297133D01*
X4053033Y1310607D01*
X4035428Y1317900D01*
D02*
G37*
G36*
X10006604Y1371600D02*
X9983196D01*
X9960586Y1365542D01*
X9940314Y1353838D01*
X9923762Y1337286D01*
X9912058Y1317014D01*
X9906000Y1294404D01*
Y1270996D01*
X9912058Y1248386D01*
X9923762Y1228114D01*
X9940314Y1211562D01*
X9960586Y1199858D01*
X9983196Y1193800D01*
X10006604D01*
X10029214Y1199858D01*
X10049486Y1211562D01*
X10066038Y1228114D01*
X10077742Y1248386D01*
X10083800Y1270996D01*
Y1294404D01*
X10077742Y1317014D01*
X10066038Y1337286D01*
X10049486Y1353838D01*
X10029214Y1365542D01*
X10006604Y1371600D01*
D02*
G37*
G36*
X8802276Y1261100D02*
X8801100D01*
Y1168400D01*
X8893800D01*
Y1169576D01*
X8886617Y1196383D01*
X8872741Y1220417D01*
X8853117Y1240041D01*
X8829083Y1253917D01*
X8802276Y1261100D01*
D02*
G37*
G36*
X8775700D02*
X8774524D01*
X8747717Y1253917D01*
X8723683Y1240041D01*
X8704059Y1220417D01*
X8690183Y1196383D01*
X8683000Y1169576D01*
Y1168400D01*
X8775700D01*
Y1261100D01*
D02*
G37*
G36*
X14347227Y1183800D02*
X14328172D01*
X14310568Y1176508D01*
X14297093Y1163033D01*
X14289801Y1145428D01*
Y1126372D01*
X14297093Y1108767D01*
X14310568Y1095293D01*
X14328172Y1088000D01*
X14347227D01*
X14364835Y1095293D01*
X14378308Y1108767D01*
X14385600Y1126372D01*
Y1145428D01*
X14378308Y1163033D01*
X14364835Y1176508D01*
X14347227Y1183800D01*
D02*
G37*
G36*
X8347228D02*
X8328173D01*
X8310567Y1176508D01*
X8297093Y1163033D01*
X8289801Y1145428D01*
Y1126372D01*
X8297093Y1108767D01*
X8310567Y1095293D01*
X8328173Y1088000D01*
X8347228D01*
X8364833Y1095293D01*
X8378308Y1108767D01*
X8385600Y1126372D01*
Y1145428D01*
X8378308Y1163033D01*
X8364833Y1176508D01*
X8347228Y1183800D01*
D02*
G37*
G36*
X7347228D02*
X7328173D01*
X7310567Y1176508D01*
X7297093Y1163033D01*
X7289801Y1145428D01*
Y1126372D01*
X7297093Y1108767D01*
X7310567Y1095293D01*
X7328173Y1088000D01*
X7347228D01*
X7364833Y1095293D01*
X7378308Y1108767D01*
X7385600Y1126372D01*
Y1145428D01*
X7378308Y1163033D01*
X7364833Y1176508D01*
X7347228Y1183800D01*
D02*
G37*
G36*
X6347228D02*
X6328173D01*
X6310567Y1176508D01*
X6297093Y1163033D01*
X6289800Y1145428D01*
Y1126372D01*
X6297093Y1108767D01*
X6310567Y1095293D01*
X6328173Y1088000D01*
X6347228D01*
X6364833Y1095293D01*
X6378308Y1108767D01*
X6385600Y1126372D01*
Y1145428D01*
X6378308Y1163033D01*
X6364833Y1176508D01*
X6347228Y1183800D01*
D02*
G37*
G36*
X5347228D02*
X5328172D01*
X5310567Y1176508D01*
X5297093Y1163033D01*
X5289800Y1145428D01*
Y1126372D01*
X5297093Y1108767D01*
X5310567Y1095293D01*
X5328172Y1088000D01*
X5347228D01*
X5364833Y1095293D01*
X5378308Y1108767D01*
X5385600Y1126372D01*
Y1145428D01*
X5378308Y1163033D01*
X5364833Y1176508D01*
X5347228Y1183800D01*
D02*
G37*
G36*
X4347228D02*
X4328172D01*
X4310567Y1176508D01*
X4297093Y1163033D01*
X4289800Y1145428D01*
Y1126372D01*
X4297093Y1108767D01*
X4310567Y1095293D01*
X4328172Y1088000D01*
X4347228D01*
X4364833Y1095293D01*
X4378308Y1108767D01*
X4385600Y1126372D01*
Y1145428D01*
X4378308Y1163033D01*
X4364833Y1176508D01*
X4347228Y1183800D01*
D02*
G37*
G36*
X2347228D02*
X2328172D01*
X2310567Y1176508D01*
X2297093Y1163033D01*
X2289800Y1145428D01*
Y1126372D01*
X2297093Y1108767D01*
X2310567Y1095293D01*
X2328172Y1088000D01*
X2347228D01*
X2364833Y1095293D01*
X2378308Y1108767D01*
X2385600Y1126372D01*
Y1145428D01*
X2378308Y1163033D01*
X2364833Y1176508D01*
X2347228Y1183800D01*
D02*
G37*
G36*
X1347228D02*
X1328172D01*
X1310567Y1176508D01*
X1297093Y1163033D01*
X1289800Y1145428D01*
Y1126372D01*
X1297093Y1108767D01*
X1310567Y1095293D01*
X1328172Y1088000D01*
X1347228D01*
X1364833Y1095293D01*
X1378308Y1108767D01*
X1385600Y1126372D01*
Y1145428D01*
X1378308Y1163033D01*
X1364833Y1176508D01*
X1347228Y1183800D01*
D02*
G37*
G36*
X25095200Y3123933D02*
Y3048000D01*
X25171133D01*
X25165343Y3069614D01*
X25153638Y3089886D01*
X25137086Y3106438D01*
X25116814Y3118142D01*
X25095200Y3123933D01*
D02*
G37*
G36*
X25069800D02*
X25048186Y3118142D01*
X25027914Y3106438D01*
X25011362Y3089886D01*
X24999658Y3069614D01*
X24993867Y3048000D01*
X25069800D01*
Y3123933D01*
D02*
G37*
G36*
X23393401D02*
X23371786Y3118142D01*
X23351514Y3106438D01*
X23334962Y3089886D01*
X23323257Y3069614D01*
X23317467Y3048000D01*
X23393401D01*
Y3123933D01*
D02*
G37*
G36*
X21691600D02*
Y3048000D01*
X21767532D01*
X21761742Y3069614D01*
X21750038Y3089886D01*
X21733485Y3106438D01*
X21713214Y3118142D01*
X21691600Y3123933D01*
D02*
G37*
G36*
X21666200D02*
X21644586Y3118142D01*
X21624313Y3106438D01*
X21607762Y3089886D01*
X21596059Y3069614D01*
X21590266Y3048000D01*
X21666200D01*
Y3123933D01*
D02*
G37*
G36*
X18084801D02*
Y3048000D01*
X18160733D01*
X18154942Y3069614D01*
X18143237Y3089886D01*
X18126686Y3106438D01*
X18106413Y3118142D01*
X18084801Y3123933D01*
D02*
G37*
G36*
X20015199Y3111233D02*
Y3035300D01*
X20091133D01*
X20085342Y3056914D01*
X20073637Y3077186D01*
X20057086Y3093738D01*
X20036813Y3105442D01*
X20015199Y3111233D01*
D02*
G37*
G36*
X19989799D02*
X19968185Y3105442D01*
X19947914Y3093738D01*
X19931361Y3077186D01*
X19919658Y3056914D01*
X19913867Y3035300D01*
X19989799D01*
Y3111233D01*
D02*
G37*
G36*
X25171133Y3022600D02*
X25095200D01*
Y2946667D01*
X25116814Y2952458D01*
X25137086Y2964162D01*
X25153638Y2980714D01*
X25165343Y3000986D01*
X25171133Y3022600D01*
D02*
G37*
G36*
X25069800D02*
X24993867D01*
X24999658Y3000986D01*
X25011362Y2980714D01*
X25027914Y2964162D01*
X25048186Y2952458D01*
X25069800Y2946667D01*
Y3022600D01*
D02*
G37*
G36*
X23494733D02*
X23418800D01*
Y2946667D01*
X23440414Y2952458D01*
X23460686Y2964162D01*
X23477238Y2980714D01*
X23488942Y3000986D01*
X23494733Y3022600D01*
D02*
G37*
G36*
X23393401D02*
X23317467D01*
X23323257Y3000986D01*
X23334962Y2980714D01*
X23351514Y2964162D01*
X23371786Y2952458D01*
X23393401Y2946667D01*
Y3022600D01*
D02*
G37*
G36*
X21767532D02*
X21691600D01*
Y2946667D01*
X21713214Y2952458D01*
X21733485Y2964162D01*
X21750038Y2980714D01*
X21761742Y3000986D01*
X21767532Y3022600D01*
D02*
G37*
G36*
X21666200D02*
X21590266D01*
X21596059Y3000986D01*
X21607762Y2980714D01*
X21624313Y2964162D01*
X21644586Y2952458D01*
X21666200Y2946667D01*
Y3022600D01*
D02*
G37*
G36*
X18160733D02*
X18084801D01*
Y2946667D01*
X18106413Y2952458D01*
X18126686Y2964162D01*
X18143237Y2980714D01*
X18154942Y3000986D01*
X18160733Y3022600D01*
D02*
G37*
G36*
X20091133Y3009900D02*
X20015199D01*
Y2933967D01*
X20036813Y2939758D01*
X20057086Y2951462D01*
X20073637Y2968014D01*
X20085342Y2988286D01*
X20091133Y3009900D01*
D02*
G37*
G36*
X19989799D02*
X19913867D01*
X19919658Y2988286D01*
X19931361Y2968014D01*
X19947914Y2951462D01*
X19968185Y2939758D01*
X19989799Y2933967D01*
Y3009900D01*
D02*
G37*
G36*
X22209128Y2956200D02*
X22190073D01*
X22172467Y2948907D01*
X22158994Y2935433D01*
X22151700Y2917828D01*
Y2898772D01*
X22158994Y2881167D01*
X22172467Y2867693D01*
X22190073Y2860400D01*
X22209128D01*
X22226733Y2867693D01*
X22240207Y2881167D01*
X22247501Y2898772D01*
Y2917828D01*
X22240207Y2935433D01*
X22226733Y2948907D01*
X22209128Y2956200D01*
D02*
G37*
G36*
X20431128D02*
X20412073D01*
X20394467Y2948907D01*
X20380994Y2935433D01*
X20373700Y2917828D01*
Y2898772D01*
X20380994Y2881167D01*
X20394467Y2867693D01*
X20412073Y2860400D01*
X20431128D01*
X20448734Y2867693D01*
X20462207Y2881167D01*
X20469501Y2898772D01*
Y2917828D01*
X20462207Y2935433D01*
X20448734Y2948907D01*
X20431128Y2956200D01*
D02*
G37*
G36*
X18894427D02*
X18875372D01*
X18857767Y2948907D01*
X18844293Y2935433D01*
X18837000Y2917828D01*
Y2898772D01*
X18844293Y2881167D01*
X18857767Y2867693D01*
X18875372Y2860400D01*
X18894427D01*
X18912033Y2867693D01*
X18925507Y2881167D01*
X18932800Y2898772D01*
Y2917828D01*
X18925507Y2935433D01*
X18912033Y2948907D01*
X18894427Y2956200D01*
D02*
G37*
G36*
X25970505Y2997200D02*
X25947095D01*
X25924487Y2991142D01*
X25904214Y2979438D01*
X25887662Y2962886D01*
X25875958Y2942614D01*
X25869901Y2920004D01*
Y2896596D01*
X25875958Y2873986D01*
X25887662Y2853714D01*
X25904214Y2837162D01*
X25924487Y2825458D01*
X25942865Y2820534D01*
D01*
X25947095Y2819400D01*
X25970505D01*
X25993115Y2825458D01*
X26013385Y2837162D01*
X26029938Y2853714D01*
X26041641Y2873986D01*
X26047699Y2896596D01*
Y2920004D01*
X26041641Y2942614D01*
X26029938Y2962886D01*
X26013385Y2979438D01*
X25993115Y2991142D01*
X25970505Y2997200D01*
D02*
G37*
G36*
X27063699Y2869933D02*
Y2794000D01*
X27139633D01*
X27133841Y2815614D01*
X27122137Y2835886D01*
X27105585Y2852438D01*
X27085315Y2864142D01*
X27063699Y2869933D01*
D02*
G37*
G36*
X27038300D02*
X27016687Y2864142D01*
X26996414Y2852438D01*
X26979861Y2835886D01*
X26968158Y2815614D01*
X26962366Y2794000D01*
X27038300D01*
Y2869933D01*
D02*
G37*
G36*
X25676227Y2880000D02*
X25657172D01*
X25639566Y2872707D01*
X25626093Y2859233D01*
X25618799Y2841628D01*
Y2822572D01*
X25626093Y2804967D01*
X25639566Y2791493D01*
X25657172Y2784200D01*
X25676227D01*
X25693832Y2791493D01*
X25707306Y2804967D01*
X25714600Y2822572D01*
Y2841628D01*
X25707306Y2859233D01*
X25693832Y2872707D01*
X25676227Y2880000D01*
D02*
G37*
G36*
X26834103Y2933700D02*
X26810696D01*
X26788086Y2927642D01*
X26767813Y2915938D01*
X26751263Y2899386D01*
X26739557Y2879114D01*
X26733499Y2856504D01*
Y2833096D01*
X26739557Y2810486D01*
X26751263Y2790214D01*
X26767813Y2773662D01*
X26788086Y2761958D01*
X26810696Y2755900D01*
X26834103D01*
X26856714Y2761958D01*
X26876987Y2773662D01*
X26893539Y2790214D01*
X26905243Y2810486D01*
X26911301Y2833096D01*
Y2856504D01*
X26905243Y2879114D01*
X26893539Y2899386D01*
X26876987Y2915938D01*
X26856714Y2927642D01*
X26834103Y2933700D01*
D02*
G37*
G36*
X22617703Y2895600D02*
X22594296D01*
X22571686Y2889542D01*
X22551414Y2877838D01*
X22534862Y2861286D01*
X22523158Y2841014D01*
X22517101Y2818404D01*
Y2794996D01*
X22523158Y2772386D01*
X22534862Y2752114D01*
X22551414Y2735562D01*
X22571686Y2723858D01*
X22594296Y2717800D01*
X22617703D01*
X22640314Y2723858D01*
X22660587Y2735562D01*
X22677138Y2752114D01*
X22688841Y2772386D01*
X22694901Y2794996D01*
Y2818404D01*
X22688841Y2841014D01*
X22677138Y2861286D01*
X22660587Y2877838D01*
X22640314Y2889542D01*
X22617703Y2895600D01*
D02*
G37*
G36*
X20865105D02*
X20841696D01*
X20819086Y2889542D01*
X20798814Y2877838D01*
X20782262Y2861286D01*
X20770558Y2841014D01*
X20764500Y2818404D01*
Y2794996D01*
X20770558Y2772386D01*
X20782262Y2752114D01*
X20798814Y2735562D01*
X20819086Y2723858D01*
X20841696Y2717800D01*
X20865105D01*
X20887714Y2723858D01*
X20907986Y2735562D01*
X20924538Y2752114D01*
X20936243Y2772386D01*
X20942300Y2794996D01*
Y2818404D01*
X20936243Y2841014D01*
X20924538Y2861286D01*
X20907986Y2877838D01*
X20887714Y2889542D01*
X20865105Y2895600D01*
D02*
G37*
G36*
X19239503D02*
X19216096D01*
X19193486Y2889542D01*
X19173215Y2877838D01*
X19156662Y2861286D01*
X19144958Y2841014D01*
X19138901Y2818404D01*
Y2794996D01*
X19144958Y2772386D01*
X19156662Y2752114D01*
X19173215Y2735562D01*
X19193486Y2723858D01*
X19216096Y2717800D01*
X19239503D01*
X19262114Y2723858D01*
X19282385Y2735562D01*
X19298938Y2752114D01*
X19310641Y2772386D01*
X19316701Y2794996D01*
Y2818404D01*
X19310641Y2841014D01*
X19298938Y2861286D01*
X19282385Y2877838D01*
X19262114Y2889542D01*
X19239503Y2895600D01*
D02*
G37*
G36*
X24344904Y2882900D02*
X24321497D01*
X24298886Y2876842D01*
X24278613Y2865138D01*
X24262062Y2848586D01*
X24250359Y2828314D01*
X24244299Y2805704D01*
Y2782296D01*
X24250359Y2759686D01*
X24262062Y2739414D01*
X24278613Y2722862D01*
X24298886Y2711158D01*
X24321497Y2705100D01*
X24344904D01*
X24367514Y2711158D01*
X24387785Y2722862D01*
X24404338Y2739414D01*
X24416042Y2759686D01*
X24422099Y2782296D01*
Y2805704D01*
X24416042Y2828314D01*
X24404338Y2848586D01*
X24387785Y2865138D01*
X24367514Y2876842D01*
X24344904Y2882900D01*
D02*
G37*
G36*
X27139633Y2768600D02*
X27063699D01*
Y2692667D01*
X27085315Y2698458D01*
X27105585Y2710162D01*
X27122137Y2726714D01*
X27133841Y2746986D01*
X27139633Y2768600D01*
D02*
G37*
G36*
X27038300D02*
X26962366D01*
X26968158Y2746986D01*
X26979861Y2726714D01*
X26996414Y2710162D01*
X27016687Y2698458D01*
X27038300Y2692667D01*
Y2768600D01*
D02*
G37*
G36*
X25126956Y2788200D02*
X25107899D01*
X25090295Y2780907D01*
X25076820Y2767433D01*
X25069528Y2749828D01*
Y2730772D01*
X25076820Y2713167D01*
X25090295Y2699692D01*
X25107899Y2692400D01*
X25126956D01*
X25144560Y2699692D01*
X25158035Y2713167D01*
X25165327Y2730772D01*
Y2749828D01*
X25158035Y2767433D01*
X25144560Y2780907D01*
X25126956Y2788200D01*
D02*
G37*
G36*
X21710657D02*
X21691600D01*
X21673994Y2780907D01*
X21660519Y2767433D01*
X21653229Y2749828D01*
Y2730772D01*
X21660519Y2713167D01*
X21673994Y2699692D01*
X21691600Y2692400D01*
X21710657D01*
X21728261Y2699692D01*
X21741734Y2713167D01*
X21749028Y2730772D01*
Y2749828D01*
X21741734Y2767433D01*
X21728261Y2780907D01*
X21710657Y2788200D01*
D02*
G37*
G36*
X20027901D02*
X20008844D01*
X19991238Y2780907D01*
X19977765Y2767433D01*
X19970473Y2749828D01*
Y2730772D01*
X19977765Y2713167D01*
X19991238Y2699692D01*
X20008844Y2692400D01*
X20027901D01*
X20045505Y2699692D01*
X20058980Y2713167D01*
X20066272Y2730772D01*
Y2749828D01*
X20058980Y2767433D01*
X20045505Y2780907D01*
X20027901Y2788200D01*
D02*
G37*
G36*
X18307056D02*
X18288000D01*
X18270395Y2780907D01*
X18256920Y2767433D01*
X18249628Y2749828D01*
Y2730772D01*
X18256920Y2713167D01*
X18270395Y2699692D01*
X18288000Y2692400D01*
X18307056D01*
X18324661Y2699692D01*
X18338135Y2713167D01*
X18345428Y2730772D01*
Y2749828D01*
X18338135Y2767433D01*
X18324661Y2780907D01*
X18307056Y2788200D01*
D02*
G37*
G36*
X23430061Y2780907D02*
X23411005D01*
X23393401Y2773615D01*
X23379926Y2760141D01*
X23372633Y2742535D01*
Y2723480D01*
X23379926Y2705874D01*
X23393401Y2692400D01*
X23411005Y2685108D01*
X23430061D01*
X23447665Y2692400D01*
X23461140Y2705874D01*
X23468433Y2723480D01*
Y2742535D01*
X23461140Y2760141D01*
X23447665Y2773615D01*
X23430061Y2780907D01*
D02*
G37*
G36*
X26908127Y2740300D02*
X26889072D01*
X26871466Y2733007D01*
X26857993Y2719533D01*
X26850699Y2701928D01*
Y2682872D01*
X26857993Y2665267D01*
X26871466Y2651793D01*
X26889072Y2644500D01*
X26908127D01*
X26925732Y2651793D01*
X26939206Y2665267D01*
X26946500Y2682872D01*
Y2701928D01*
X26939206Y2719533D01*
X26925732Y2733007D01*
X26908127Y2740300D01*
D02*
G37*
G36*
X25117429Y2664100D02*
X25098372D01*
X25080766Y2656807D01*
X25067293Y2643333D01*
X25060001Y2625728D01*
Y2606672D01*
X25067293Y2589067D01*
X25080766Y2575593D01*
X25098372Y2568300D01*
X25117429D01*
X25135033Y2575593D01*
X25148508Y2589067D01*
X25155800Y2606672D01*
Y2625728D01*
X25148508Y2643333D01*
X25135033Y2656807D01*
X25117429Y2664100D01*
D02*
G37*
G36*
X23402928D02*
X23383871D01*
X23366267Y2656807D01*
X23352792Y2643333D01*
X23345500Y2625728D01*
Y2606672D01*
X23352792Y2589067D01*
X23366267Y2575593D01*
X23383871Y2568300D01*
X23402928D01*
X23420534Y2575593D01*
X23434007Y2589067D01*
X23441299Y2606672D01*
Y2625728D01*
X23434007Y2643333D01*
X23420534Y2656807D01*
X23402928Y2664100D01*
D02*
G37*
G36*
X21726527D02*
X21707472D01*
X21689867Y2656807D01*
X21676393Y2643333D01*
X21669099Y2625728D01*
Y2606672D01*
X21676393Y2589067D01*
X21689867Y2575593D01*
X21707472Y2568300D01*
X21726527D01*
X21744133Y2575593D01*
X21757607Y2589067D01*
X21764900Y2606672D01*
Y2625728D01*
X21757607Y2643333D01*
X21744133Y2656807D01*
X21726527Y2664100D01*
D02*
G37*
G36*
X18297528D02*
X18278471D01*
X18260867Y2656807D01*
X18247392Y2643333D01*
X18240100Y2625728D01*
Y2606672D01*
X18247392Y2589067D01*
X18260867Y2575593D01*
X18278471Y2568300D01*
X18297528D01*
X18315134Y2575593D01*
X18328607Y2589067D01*
X18335899Y2606672D01*
Y2625728D01*
X18328607Y2643333D01*
X18315134Y2656807D01*
X18297528Y2664100D01*
D02*
G37*
G36*
X23977328Y2953720D02*
X23958272D01*
X23940668Y2946428D01*
X23927193Y2932953D01*
X23919901Y2915348D01*
Y2896293D01*
X23927193Y2878687D01*
X23934001Y2871879D01*
Y2569612D01*
X23918600Y2559322D01*
X23910928Y2562500D01*
X23891872D01*
X23874268Y2555207D01*
X23860793Y2541733D01*
X23853500Y2524128D01*
Y2505072D01*
X23860793Y2487467D01*
X23874268Y2473993D01*
X23891872Y2466700D01*
X23910928D01*
X23918600Y2469878D01*
X23934001Y2459588D01*
Y2079900D01*
X23936572Y2066965D01*
X23943900Y2056000D01*
X24093401Y1906500D01*
X24104366Y1899173D01*
X24117300Y1896600D01*
X24159560D01*
X24166367Y1889793D01*
X24183972Y1882500D01*
X24203027D01*
X24220633Y1889793D01*
X24234106Y1903267D01*
X24241400Y1920872D01*
Y1939928D01*
X24234106Y1957533D01*
X24220633Y1971007D01*
X24203027Y1978300D01*
X24183972D01*
X24166367Y1971007D01*
X24159560Y1964200D01*
X24131300D01*
X24001601Y2093900D01*
Y2871879D01*
X24008408Y2878687D01*
X24015700Y2896293D01*
Y2915348D01*
X24008408Y2932953D01*
X23994933Y2946428D01*
X23977328Y2953720D01*
D02*
G37*
G36*
X26816327Y2654572D02*
X26797272D01*
X26779666Y2647280D01*
X26766193Y2633805D01*
X26758899Y2616200D01*
Y2597144D01*
X26766193Y2579539D01*
X26779666Y2566065D01*
X26797272Y2558772D01*
X26816327D01*
X26833932Y2566065D01*
X26847406Y2579539D01*
X26854700Y2597144D01*
Y2616200D01*
X26847406Y2633805D01*
X26833932Y2647280D01*
X26816327Y2654572D01*
D02*
G37*
G36*
X20037428Y2651400D02*
X20018372D01*
X20000768Y2644107D01*
X19987292Y2630633D01*
X19980000Y2613028D01*
Y2593972D01*
X19987292Y2576367D01*
X20000768Y2562893D01*
X20018372Y2555600D01*
X20037428D01*
X20055032Y2562893D01*
X20068507Y2576367D01*
X20075800Y2593972D01*
Y2613028D01*
X20068507Y2630633D01*
X20055032Y2644107D01*
X20037428Y2651400D01*
D02*
G37*
G36*
X22298029Y2562500D02*
X22278972D01*
X22261366Y2555207D01*
X22247893Y2541733D01*
X22240601Y2524128D01*
Y2505072D01*
X22247893Y2487467D01*
X22261366Y2473993D01*
X22278972Y2466700D01*
X22298029D01*
X22315633Y2473993D01*
X22329108Y2487467D01*
X22336400Y2505072D01*
Y2524128D01*
X22329108Y2541733D01*
X22315633Y2555207D01*
X22298029Y2562500D01*
D02*
G37*
G36*
X20520029D02*
X20500972D01*
X20483366Y2555207D01*
X20469893Y2541733D01*
X20462601Y2524128D01*
Y2505072D01*
X20469893Y2487467D01*
X20483366Y2473993D01*
X20500972Y2466700D01*
X20520029D01*
X20537633Y2473993D01*
X20551106Y2487467D01*
X20558400Y2505072D01*
Y2524128D01*
X20551106Y2541733D01*
X20537633Y2555207D01*
X20520029Y2562500D01*
D02*
G37*
G36*
X18907127Y2549800D02*
X18888072D01*
X18870467Y2542507D01*
X18856993Y2529033D01*
X18849699Y2511428D01*
Y2492372D01*
X18856993Y2474767D01*
X18870467Y2461293D01*
X18888072Y2454000D01*
X18907127D01*
X18924733Y2461293D01*
X18938206Y2474767D01*
X18945500Y2492372D01*
Y2511428D01*
X18938206Y2529033D01*
X18924733Y2542507D01*
X18907127Y2549800D01*
D02*
G37*
G36*
X22498720Y2497267D02*
X22479665D01*
X22462059Y2489974D01*
X22448586Y2476500D01*
X22441293Y2458895D01*
Y2439839D01*
X22448586Y2422234D01*
X22462059Y2408759D01*
X22479665Y2401467D01*
X22498720D01*
X22516325Y2408759D01*
X22529800Y2422234D01*
X22537093Y2439839D01*
Y2458895D01*
X22529800Y2476500D01*
X22516325Y2489974D01*
X22498720Y2497267D01*
D02*
G37*
G36*
X24088728Y2473600D02*
X24069672D01*
X24052068Y2466307D01*
X24038593Y2452833D01*
X24031300Y2435228D01*
Y2416172D01*
X24038593Y2398567D01*
X24052068Y2385093D01*
X24069672Y2377800D01*
X24088728D01*
X24106332Y2385093D01*
X24119807Y2398567D01*
X24127100Y2416172D01*
Y2435228D01*
X24119807Y2452833D01*
X24106332Y2466307D01*
X24088728Y2473600D01*
D02*
G37*
G36*
X20891499Y2463800D02*
X20872444D01*
X20854839Y2456508D01*
X20841365Y2443033D01*
X20834071Y2425428D01*
Y2406372D01*
X20841365Y2388767D01*
X20854839Y2375293D01*
X20872444Y2368000D01*
X20891499D01*
X20909105Y2375293D01*
X20922580Y2388767D01*
X20929872Y2406372D01*
Y2425428D01*
X20922580Y2443033D01*
X20909105Y2456508D01*
X20891499Y2463800D01*
D02*
G37*
G36*
X19126199Y2451100D02*
X19107144D01*
X19089539Y2443808D01*
X19076065Y2430333D01*
X19068771Y2412728D01*
Y2393672D01*
X19076065Y2376067D01*
X19089539Y2362593D01*
X19107144Y2355300D01*
X19126199D01*
X19143805Y2362593D01*
X19157280Y2376067D01*
X19164572Y2393672D01*
Y2412728D01*
X19157280Y2430333D01*
X19143805Y2443808D01*
X19126199Y2451100D01*
D02*
G37*
G36*
X18780128Y2448200D02*
X18761072D01*
X18743468Y2440907D01*
X18729993Y2427433D01*
X18722701Y2409828D01*
Y2390772D01*
X18729993Y2373167D01*
X18743468Y2359693D01*
X18761072Y2352400D01*
X18780128D01*
X18797733Y2359693D01*
X18811208Y2373167D01*
X18818500Y2390772D01*
Y2409828D01*
X18811208Y2427433D01*
X18797733Y2440907D01*
X18780128Y2448200D01*
D02*
G37*
G36*
X22882228Y2384700D02*
X22863171D01*
X22845567Y2377407D01*
X22832092Y2363933D01*
X22824800Y2346328D01*
Y2327272D01*
X22832092Y2309667D01*
X22845567Y2296193D01*
X22863171Y2288900D01*
X22882228D01*
X22899834Y2296193D01*
X22913307Y2309667D01*
X22920599Y2327272D01*
Y2346328D01*
X22913307Y2363933D01*
X22899834Y2377407D01*
X22882228Y2384700D01*
D02*
G37*
G36*
X26501727Y2372000D02*
X26482672D01*
X26465067Y2364707D01*
X26451593Y2351233D01*
X26444299Y2333628D01*
Y2314572D01*
X26451593Y2296967D01*
X26465067Y2283493D01*
X26482672Y2276200D01*
X26501727D01*
X26519333Y2283493D01*
X26532806Y2296967D01*
X26540100Y2314572D01*
Y2333628D01*
X26532806Y2351233D01*
X26519333Y2364707D01*
X26501727Y2372000D01*
D02*
G37*
G36*
X24495128D02*
X24476073D01*
X24458467Y2364707D01*
X24444994Y2351233D01*
X24437700Y2333628D01*
Y2314572D01*
X24444994Y2296967D01*
X24458467Y2283493D01*
X24476073Y2276200D01*
X24495128D01*
X24512733Y2283493D01*
X24526207Y2296967D01*
X24533501Y2314572D01*
Y2333628D01*
X24526207Y2351233D01*
X24512733Y2364707D01*
X24495128Y2372000D01*
D02*
G37*
G36*
X21243929D02*
X21224872D01*
X21207268Y2364707D01*
X21193793Y2351233D01*
X21186501Y2333628D01*
Y2314572D01*
X21193793Y2296967D01*
X21207268Y2283493D01*
X21224872Y2276200D01*
X21243929D01*
X21261533Y2283493D01*
X21275008Y2296967D01*
X21282300Y2314572D01*
Y2333628D01*
X21275008Y2351233D01*
X21261533Y2364707D01*
X21243929Y2372000D01*
D02*
G37*
G36*
X19519627Y2362472D02*
X19500572D01*
X19482967Y2355180D01*
X19469493Y2341705D01*
X19462199Y2324100D01*
Y2305044D01*
X19469493Y2287439D01*
X19482967Y2273965D01*
X19500572Y2266672D01*
X19519627D01*
X19537233Y2273965D01*
X19550708Y2287439D01*
X19558000Y2305044D01*
Y2324100D01*
X19550708Y2341705D01*
X19537233Y2355180D01*
X19519627Y2362472D01*
D02*
G37*
G36*
X25206328Y2283100D02*
X25187273D01*
X25169667Y2275807D01*
X25156194Y2262333D01*
X25148900Y2244728D01*
Y2225672D01*
X25156194Y2208067D01*
X25169667Y2194593D01*
X25187273Y2187300D01*
X25206328D01*
X25223933Y2194593D01*
X25237407Y2208067D01*
X25244701Y2225672D01*
Y2244728D01*
X25237407Y2262333D01*
X25223933Y2275807D01*
X25206328Y2283100D01*
D02*
G37*
G36*
X26158829Y2181500D02*
X26139771D01*
X26122168Y2174207D01*
X26108694Y2160733D01*
X26101401Y2143128D01*
Y2124072D01*
X26108694Y2106467D01*
X26122168Y2092993D01*
X26139771Y2085700D01*
X26158829D01*
X26176434Y2092993D01*
X26189908Y2106467D01*
X26197198Y2124072D01*
Y2143128D01*
X26189908Y2160733D01*
X26176434Y2174207D01*
X26158829Y2181500D01*
D02*
G37*
G36*
X24085828Y2159272D02*
X24066772D01*
X24049167Y2151980D01*
X24035692Y2138505D01*
X24028400Y2120900D01*
Y2101844D01*
X24035692Y2084239D01*
X24049167Y2070765D01*
X24066772Y2063472D01*
X24085828D01*
X24103433Y2070765D01*
X24116907Y2084239D01*
X24124200Y2101844D01*
Y2120900D01*
X24116907Y2138505D01*
X24103433Y2151980D01*
X24085828Y2159272D01*
D02*
G37*
G36*
X22323428Y2029100D02*
X22304372D01*
X22286768Y2021807D01*
X22273293Y2008333D01*
X22266000Y1990728D01*
Y1971672D01*
X22273293Y1954067D01*
X22286768Y1940593D01*
X22304372Y1933300D01*
X22323428D01*
X22341032Y1940593D01*
X22354507Y1954067D01*
X22361800Y1971672D01*
Y1990728D01*
X22354507Y2008333D01*
X22341032Y2021807D01*
X22323428Y2029100D01*
D02*
G37*
G36*
X19135728Y2016400D02*
X19116672D01*
X19099068Y2009107D01*
X19085593Y1995633D01*
X19078300Y1978028D01*
Y1958972D01*
X19085593Y1941367D01*
X19099068Y1927893D01*
X19116672Y1920600D01*
X19135728D01*
X19153333Y1927893D01*
X19166808Y1941367D01*
X19174100Y1958972D01*
Y1978028D01*
X19166808Y1995633D01*
X19153333Y2009107D01*
X19135728Y2016400D01*
D02*
G37*
G36*
X23872829Y2013201D02*
X23853772D01*
X23836166Y2005909D01*
X23822693Y1992435D01*
X23815401Y1974829D01*
Y1955774D01*
X23822693Y1938169D01*
X23836166Y1924694D01*
X23853772Y1917402D01*
X23872829D01*
X23890433Y1924694D01*
X23903906Y1938169D01*
X23911200Y1955774D01*
Y1974829D01*
X23903906Y1992435D01*
X23890433Y2005909D01*
X23872829Y2013201D01*
D02*
G37*
G36*
X23187029Y1927500D02*
X23167972D01*
X23150368Y1920207D01*
X23143559Y1913400D01*
X22208141D01*
X22201334Y1920207D01*
X22183728Y1927500D01*
X22164671D01*
X22147067Y1920207D01*
X22133594Y1906733D01*
X22126300Y1889128D01*
Y1870072D01*
X22133594Y1852467D01*
X22147067Y1838993D01*
X22164671Y1831700D01*
X22183728D01*
X22201334Y1838993D01*
X22208141Y1845800D01*
X23143559D01*
X23150368Y1838993D01*
X23167972Y1831700D01*
X23187029D01*
X23204633Y1838993D01*
X23218108Y1852467D01*
X23225400Y1870072D01*
Y1889128D01*
X23218108Y1906733D01*
X23204633Y1920207D01*
X23187029Y1927500D01*
D02*
G37*
G36*
X20746460Y1860979D02*
X20727403D01*
X20709799Y1853687D01*
X20696326Y1840212D01*
X20689032Y1822607D01*
Y1803552D01*
X20696326Y1785946D01*
X20709799Y1772472D01*
X20727403Y1765180D01*
X20746460D01*
X20764066Y1772472D01*
X20777541Y1785946D01*
X20784831Y1803552D01*
Y1822607D01*
X20777541Y1840212D01*
X20764066Y1853687D01*
X20746460Y1860979D01*
D02*
G37*
G36*
X26034003Y1816100D02*
X26010596D01*
X25987985Y1810042D01*
X25967715Y1798338D01*
X25951163Y1781786D01*
X25939459Y1761514D01*
X25933401Y1738904D01*
Y1715496D01*
X25934766Y1710399D01*
X25939459Y1692886D01*
X25951163Y1672614D01*
X25967715Y1656062D01*
X25987985Y1644358D01*
X26010596Y1638300D01*
X26034003D01*
X26056613Y1644358D01*
X26076886Y1656062D01*
X26093439Y1672614D01*
X26105142Y1692886D01*
X26111200Y1715496D01*
Y1738904D01*
X26105142Y1761514D01*
X26093439Y1781786D01*
X26076886Y1798338D01*
X26056613Y1810042D01*
X26034003Y1816100D01*
D02*
G37*
G36*
X25549228Y1711600D02*
X25530173D01*
X25512567Y1704307D01*
X25499094Y1690833D01*
X25491800Y1673228D01*
Y1654172D01*
X25499094Y1636567D01*
X25512567Y1623093D01*
X25530173Y1615800D01*
X25549228D01*
X25566833Y1623093D01*
X25580307Y1636567D01*
X25587601Y1654172D01*
Y1673228D01*
X25580307Y1690833D01*
X25566833Y1704307D01*
X25549228Y1711600D01*
D02*
G37*
G36*
X23974428D02*
X23955373D01*
X23937767Y1704307D01*
X23924294Y1690833D01*
X23917000Y1673228D01*
Y1654172D01*
X23924294Y1636567D01*
X23937767Y1623093D01*
X23955373Y1615800D01*
X23974428D01*
X23992033Y1623093D01*
X24005507Y1636567D01*
X24012801Y1654172D01*
Y1673228D01*
X24005507Y1690833D01*
X23992033Y1704307D01*
X23974428Y1711600D01*
D02*
G37*
G36*
X24010796Y1599807D02*
X23991739D01*
X23974133Y1592515D01*
X23960658Y1579041D01*
X23953368Y1561435D01*
Y1542380D01*
X23960658Y1524774D01*
X23974133Y1511300D01*
X23991739Y1504008D01*
X24010796D01*
X24028400Y1511300D01*
X24041875Y1524774D01*
X24049167Y1542380D01*
Y1561435D01*
X24041875Y1579041D01*
X24028400Y1592515D01*
X24010796Y1599807D01*
D02*
G37*
G36*
X25841327Y1470300D02*
X25822272D01*
X25804666Y1463007D01*
X25791193Y1449533D01*
X25783899Y1431928D01*
Y1412872D01*
X25791193Y1395267D01*
X25804666Y1381793D01*
X25822272Y1374500D01*
X25841327D01*
X25858932Y1381793D01*
X25872406Y1395267D01*
X25879700Y1412872D01*
Y1431928D01*
X25872406Y1449533D01*
X25858932Y1463007D01*
X25841327Y1470300D01*
D02*
G37*
G36*
X17891129Y1444900D02*
X17872072D01*
X17854466Y1437607D01*
X17840993Y1424133D01*
X17833701Y1406528D01*
Y1387472D01*
X17840993Y1369867D01*
X17854466Y1356393D01*
X17872072Y1349100D01*
X17891129D01*
X17908733Y1356393D01*
X17922208Y1369867D01*
X17929500Y1387472D01*
Y1406528D01*
X17922208Y1424133D01*
X17908733Y1437607D01*
X17891129Y1444900D01*
D02*
G37*
G36*
X24368494Y1356366D02*
X24349438D01*
X24331833Y1349074D01*
X24318359Y1335600D01*
X24311067Y1317994D01*
Y1298939D01*
X24318359Y1281333D01*
X24331833Y1267859D01*
X24349438Y1260567D01*
X24368494D01*
X24386099Y1267859D01*
X24399574Y1281333D01*
X24406866Y1298939D01*
Y1317994D01*
X24399574Y1335600D01*
X24386099Y1349074D01*
X24368494Y1356366D01*
D02*
G37*
G36*
X24734727Y2372000D02*
X24715671D01*
X24698067Y2364707D01*
X24684592Y2351233D01*
X24677299Y2333628D01*
Y2314572D01*
X24684592Y2296967D01*
X24691399Y2290159D01*
Y2133199D01*
X23711333Y1153133D01*
X23691534D01*
X23684726Y1159941D01*
X23667120Y1167233D01*
X23648065D01*
X23630460Y1159941D01*
X23616985Y1146466D01*
X23609692Y1128861D01*
Y1109805D01*
X23616985Y1092200D01*
X23630460Y1078726D01*
X23648065Y1071433D01*
X23667120D01*
X23684726Y1078726D01*
X23691534Y1085534D01*
X23725333D01*
X23738268Y1088106D01*
X23749232Y1095433D01*
X24749100Y2095299D01*
X24756425Y2106264D01*
X24758998Y2119198D01*
Y2290159D01*
X24765807Y2296967D01*
X24773099Y2314572D01*
Y2333628D01*
X24765807Y2351233D01*
X24752332Y2364707D01*
X24734727Y2372000D01*
D02*
G37*
G36*
X21347229Y1183800D02*
X21328172D01*
X21310568Y1176508D01*
X21297093Y1163033D01*
X21289801Y1145428D01*
Y1126372D01*
X21297093Y1108767D01*
X21310568Y1095293D01*
X21328172Y1088000D01*
X21347229D01*
X21364835Y1095293D01*
X21378308Y1108767D01*
X21385600Y1126372D01*
Y1145428D01*
X21378308Y1163033D01*
X21364835Y1176508D01*
X21347229Y1183800D01*
D02*
G37*
G36*
X20347229D02*
X20328172D01*
X20310568Y1176508D01*
X20297093Y1163033D01*
X20289801Y1145428D01*
Y1126372D01*
X20297093Y1108767D01*
X20310568Y1095293D01*
X20328172Y1088000D01*
X20347229D01*
X20364835Y1095293D01*
X20378308Y1108767D01*
X20385600Y1126372D01*
Y1145428D01*
X20378308Y1163033D01*
X20364835Y1176508D01*
X20347229Y1183800D01*
D02*
G37*
G36*
X19347229D02*
X19328172D01*
X19310568Y1176508D01*
X19297093Y1163033D01*
X19289801Y1145428D01*
Y1126372D01*
X19297093Y1108767D01*
X19310568Y1095293D01*
X19328172Y1088000D01*
X19347229D01*
X19364835Y1095293D01*
X19378308Y1108767D01*
X19385600Y1126372D01*
Y1145428D01*
X19378308Y1163033D01*
X19364835Y1176508D01*
X19347229Y1183800D01*
D02*
G37*
G36*
X18347227D02*
X18328172D01*
X18310568Y1176508D01*
X18297093Y1163033D01*
X18289801Y1145428D01*
Y1126372D01*
X18297093Y1108767D01*
X18310568Y1095293D01*
X18328172Y1088000D01*
X18347227D01*
X18364835Y1095293D01*
X18378308Y1108767D01*
X18385600Y1126372D01*
Y1145428D01*
X18378308Y1163033D01*
X18364835Y1176508D01*
X18347227Y1183800D01*
D02*
G37*
G36*
X23034628Y2372000D02*
X23015572D01*
X22997968Y2364707D01*
X22984492Y2351233D01*
X22977200Y2333628D01*
Y2314572D01*
X22984492Y2296967D01*
X22997968Y2283493D01*
X23015572Y2276200D01*
X23025200D01*
X23245300Y2056100D01*
Y1151541D01*
X23238493Y1144733D01*
X23231200Y1127128D01*
Y1108072D01*
X23238493Y1090467D01*
X23251967Y1076993D01*
X23269572Y1069700D01*
X23288628D01*
X23306233Y1076993D01*
X23319707Y1090467D01*
X23327000Y1108072D01*
Y1127128D01*
X23319707Y1144733D01*
X23312900Y1151541D01*
Y2070100D01*
X23310327Y2083034D01*
X23303000Y2094000D01*
X23073000Y2324000D01*
Y2333628D01*
X23065707Y2351233D01*
X23052232Y2364707D01*
X23034628Y2372000D01*
D02*
G37*
G36*
X25971500Y901433D02*
Y825500D01*
X26047433D01*
X26041641Y847114D01*
X26029938Y867386D01*
X26013385Y883938D01*
X25993115Y895642D01*
X25971500Y901433D01*
D02*
G37*
G36*
X25946100D02*
X25925513Y895917D01*
D01*
X25924487Y895642D01*
X25904214Y883938D01*
X25887662Y867386D01*
X25875958Y847114D01*
X25870166Y825500D01*
X25946100D01*
Y901433D01*
D02*
G37*
G36*
X26047433Y800100D02*
X25971500D01*
Y724167D01*
X25993115Y729958D01*
X26013385Y741662D01*
X26029938Y758214D01*
X26041641Y778486D01*
X26047433Y800100D01*
D02*
G37*
G36*
X25946100D02*
X25870166D01*
X25875958Y778486D01*
X25887662Y758214D01*
X25904214Y741662D01*
X25924487Y729958D01*
X25946100Y724167D01*
Y800100D01*
D02*
G37*
G36*
X11061628Y2105300D02*
X11042572D01*
X11024967Y2098007D01*
X11011492Y2084533D01*
X11004200Y2066928D01*
Y2047872D01*
X11011492Y2030267D01*
X11024967Y2016793D01*
X11042572Y2009500D01*
X11061628D01*
X11079233Y2016793D01*
X11092707Y2030267D01*
X11100000Y2047872D01*
Y2066928D01*
X11092707Y2084533D01*
X11079233Y2098007D01*
X11061628Y2105300D01*
D02*
G37*
G36*
X8828400Y1007664D02*
X8801100D01*
Y914400D01*
X8894364D01*
Y941700D01*
X8892117Y958773D01*
X8885527Y974682D01*
X8875044Y988344D01*
X8861382Y998827D01*
X8845473Y1005417D01*
X8828400Y1007664D01*
D02*
G37*
G36*
X8775700D02*
X8748400D01*
X8731327Y1005417D01*
X8715418Y998827D01*
X8701756Y988344D01*
X8691273Y974682D01*
X8684683Y958773D01*
X8682436Y941700D01*
Y914400D01*
X8775700D01*
Y1007664D01*
D02*
G37*
G36*
X10743199Y927100D02*
X10647999D01*
Y925595D01*
X10655352Y898152D01*
X10669558Y873548D01*
X10689647Y853459D01*
X10714251Y839253D01*
X10741694Y831900D01*
X10743199D01*
Y927100D01*
D02*
G37*
G36*
X10609799D02*
X10514599D01*
Y831900D01*
X10516104D01*
X10543547Y839253D01*
X10568151Y853459D01*
X10588241Y873548D01*
X10602446Y898152D01*
X10609799Y925595D01*
Y927100D01*
D02*
G37*
G36*
X10489199D02*
X10393999D01*
Y925595D01*
X10401352Y898152D01*
X10415558Y873548D01*
X10435647Y853459D01*
X10460251Y839253D01*
X10487694Y831900D01*
X10489199D01*
Y927100D01*
D02*
G37*
G36*
X8894364Y889000D02*
X8801100D01*
Y795736D01*
X8828400D01*
X8845473Y797983D01*
X8861382Y804573D01*
X8875044Y815056D01*
X8885527Y828718D01*
X8892117Y844627D01*
X8894364Y861700D01*
Y889000D01*
D02*
G37*
G36*
X8775700D02*
X8682436D01*
Y861700D01*
X8684683Y844627D01*
X8691273Y828718D01*
X8701756Y815056D01*
X8715418Y804573D01*
X8731327Y797983D01*
X8748400Y795736D01*
X8775700D01*
Y889000D01*
D02*
G37*
%LPD*%
D23*
X11391900Y1498600D02*
X11557000Y1333500D01*
X12738100D01*
X9626600Y1358900D02*
X9836150D01*
X9975850Y1498600D02*
X10185400D01*
X9836150Y1358900D02*
X9975850Y1498600D01*
X10790150Y1633450D02*
X10833100Y1676400D01*
X9601200Y1714500D02*
X9682250Y1633450D01*
X10790150D01*
X9678671Y1880871D02*
X9931400Y2133600D01*
X10719774D02*
X10871200Y2285026D01*
X9931400Y2133600D02*
X10719774D01*
X13131799Y1917700D02*
X13804984Y1244516D01*
X9506137Y1587500D02*
X13182600D01*
X13258800Y1511300D01*
X9994900Y1917700D02*
X13131799D01*
X9448800Y1663700D02*
X9506137Y1587500D01*
X13132300Y1815600D02*
X13792200Y1155700D01*
X9525500Y1815600D02*
X13132300D01*
X9220200Y2120900D02*
X9525500Y1815600D01*
X15835899Y2056399D02*
X16078200Y2298700D01*
X15835899Y939800D02*
Y2056399D01*
X7493000Y2260600D02*
X8213725D01*
X8315325Y2362200D01*
X7353300Y2400300D02*
X7493000Y2260600D01*
X13036476Y2263676D02*
X13064078D01*
X13030200Y2257400D02*
X13036476Y2263676D01*
X13064078D02*
X13064900Y2264500D01*
X13271301Y2209999D02*
X14147800Y1333500D01*
X13271301Y2209999D02*
Y2260527D01*
X13268327Y2263500D02*
X13271301Y2260527D01*
X13851459Y1079500D02*
X13892067Y1120107D01*
X12166600Y1079500D02*
X13851459D01*
X13979999Y1133001D02*
Y1183801D01*
X12819150Y2344650D02*
X13979999Y1183801D01*
Y1133001D02*
X13982700Y1130300D01*
X12103100Y1143000D02*
X12166600Y1079500D01*
X6743700Y622300D02*
X7144752Y221249D01*
X15804149D01*
X6032500Y622300D02*
X6743700D01*
X10773800Y2374900D02*
X10804050Y2344650D01*
X12484100Y2400300D02*
X12487700Y2403900D01*
X10769600Y2374900D02*
X10773800D01*
X10804050Y2344650D02*
X12819150D01*
X16840199Y2921000D02*
X17386301Y2374900D01*
X23657593Y1119333D02*
X23725333D01*
X24725198Y2119198D01*
X16843880Y841334D02*
Y931780D01*
X16725900Y622300D02*
Y723354D01*
X16843880Y841334D01*
X16243050Y139449D02*
X16725900Y622300D01*
X4534151Y139449D02*
X16243050D01*
X16217900Y635000D02*
Y990600D01*
X16421100Y1193800D02*
X16954500D01*
X16217900Y990600D02*
X16421100Y1193800D01*
X15804149Y221249D02*
X16217900Y635000D01*
X15622198Y547299D02*
X15739229Y664329D01*
X15530902Y547299D02*
X15622198D01*
X15455901Y622301D02*
X15530902Y547299D01*
X15739229Y664329D02*
X15814429D01*
X15835899Y685800D01*
X15455901Y622301D02*
Y1244600D01*
X14546429Y843130D02*
Y920331D01*
X14439900Y736600D02*
X14546429Y843130D01*
Y920331D02*
X14565900Y939800D01*
X14439900Y533316D02*
Y736600D01*
X13879649Y507549D02*
X14057899Y685800D01*
X8052251Y507549D02*
X13879649D01*
X13868401Y558800D02*
X13939891Y630291D01*
Y769991D01*
X8077200Y558800D02*
X13868401D01*
X8020029Y615971D02*
X8077200Y558800D01*
X9359900Y1092200D02*
X12064999D01*
X12189373Y967826D02*
X12251873D01*
X12279899Y939800D01*
X12064999Y1092200D02*
X12189373Y967826D01*
X8020029Y615971D02*
Y699716D01*
X14387349Y303049D02*
X14701891Y617591D01*
X8005217Y438900D02*
X8018368Y425749D01*
X7967544Y303049D02*
X14387349D01*
X8018368Y425749D02*
X14243349D01*
X14158069Y466649D02*
X14185899Y494480D01*
X7950603Y262149D02*
X14562349D01*
X14291434Y384849D02*
X14439900Y533316D01*
X7988276Y398000D02*
X8001427Y384849D01*
X14317455Y343949D02*
X14557306Y583800D01*
X7168032Y275299D02*
X7937452D01*
X7971335Y357100D02*
X7984485Y343949D01*
X7865372Y479800D02*
X8022159D01*
X14562349Y262149D02*
X14819899Y519699D01*
X3076452Y98548D02*
X16264648D01*
X16161122Y180349D02*
X16573112Y592338D01*
X2387600Y2286000D02*
X4534151Y139449D01*
X7623395Y357100D02*
X7971335D01*
X4572326Y180349D02*
X16161122D01*
X7937452Y275299D02*
X7950603Y262149D01*
X7984485Y343949D02*
X14317455D01*
X14243349Y425749D02*
X14311899Y494299D01*
X7640337Y398000D02*
X7988276D01*
X8022159Y479800D02*
X8035309Y466649D01*
X7401895Y316200D02*
X7954394D01*
X889000Y2286000D02*
X3076452Y98548D01*
X7657278Y438900D02*
X8005217D01*
X4223111Y529563D02*
X4572326Y180349D01*
X7954394Y316200D02*
X7967544Y303049D01*
X7886700Y673100D02*
X8052251Y507549D01*
X8001427Y384849D02*
X14291434D01*
X16264648Y98548D02*
X16851900Y685800D01*
X8035309Y466649D02*
X14158069D01*
X7632700Y463478D02*
X7657278Y438900D01*
X7378700Y601795D02*
X7623395Y357100D01*
X7251700Y466394D02*
X7401895Y316200D01*
X7759700Y585472D02*
X7865372Y479800D01*
X7505700Y532636D02*
X7640337Y398000D01*
X7112000Y331332D02*
X7168032Y275299D01*
X14185899Y494480D02*
Y736600D01*
X7505700Y532636D02*
Y723900D01*
X7378700Y601795D02*
Y714400D01*
X8521700Y2362200D02*
X8623300Y2260600D01*
X8315325Y2362200D02*
X8521700D01*
X24725198Y2119198D02*
Y2324100D01*
X14701891Y617591D02*
Y744591D01*
X14185899Y2374900D02*
X15363828Y1196972D01*
Y1104600D02*
Y1196972D01*
X12242800Y2921000D02*
X16840199D01*
X15581898Y685800D02*
X15599083Y702984D01*
X14389101Y2311400D02*
X15455901Y1244600D01*
X14802716Y845416D02*
Y922616D01*
X14701891Y744591D02*
X14802716Y845416D01*
Y922616D02*
X14819899Y939800D01*
X14294716Y845416D02*
Y922616D01*
X14311899Y939800D01*
X14185899Y736600D02*
X14294716Y845416D01*
X14028815Y910716D02*
X14057899Y939800D01*
X14028815Y858915D02*
Y910716D01*
X13939891Y769991D02*
X14028815Y858915D01*
X8509087Y1943013D02*
X9359900Y1092200D01*
X8623300Y2006600D02*
Y2260600D01*
X9486900Y1143000D02*
X12103100D01*
X8623300Y2006600D02*
X9486900Y1143000D01*
X7251700Y466394D02*
Y736600D01*
X14557306Y677207D02*
X14565900Y685800D01*
X7632700Y463478D02*
Y673100D01*
X14557306Y583800D02*
Y677207D01*
X7112000Y331332D02*
Y647700D01*
X16573112Y592338D02*
Y661013D01*
X16597899Y685800D01*
X14311899Y494299D02*
Y685800D01*
X10871200Y2285026D02*
Y2286000D01*
X14057899Y939800D02*
Y1283701D01*
X9220200Y2120900D02*
Y2324100D01*
X7759700Y585472D02*
Y660400D01*
X4025900Y2311400D02*
X4223111Y2114189D01*
Y529563D02*
Y2114189D01*
X16843880Y931780D02*
X16851900Y939800D01*
X8509087Y1943013D02*
Y2269475D01*
X21145667Y812800D02*
X22415500D01*
X21348700Y2108200D02*
X22529800Y927100D01*
X21348700Y2108200D02*
Y2324100D01*
X21894800Y558800D02*
X23355299Y558800D01*
X25222200Y2425700D01*
X25907999D01*
X23025101Y2324100D02*
X23279100Y2070100D01*
Y1117600D02*
Y2070100D01*
X2387600Y2286000D02*
Y2336800D01*
X12179300Y2857500D02*
X12242800Y2921000D01*
X22174200Y1879600D02*
X23177499D01*
X13077100Y2264500D02*
X14057899Y1283701D01*
X13064900Y2264500D02*
X13077100D01*
X14819899Y519699D02*
Y685800D01*
X17246600Y1892300D02*
X17246779Y1892121D01*
X17597141Y734408D02*
X17602144Y729405D01*
X17602779Y727050D01*
X17595621Y735283D02*
X17597141Y734408D01*
X17602779Y727050D02*
X17613899Y685800D01*
X17613026Y686673D02*
X17613899Y685800D01*
X19634283Y2324184D02*
X21145667Y812800D01*
X21856700Y520700D02*
X21894800Y558800D01*
X24117300Y1930400D02*
X24193500D01*
X23967799Y2079900D02*
X24117300Y1930400D01*
X23967799Y2079900D02*
Y2905820D01*
D24*
X17564101Y3439607D02*
X17595741Y3407966D01*
Y3405858D02*
X17957800Y3043799D01*
Y1714500D02*
Y3043799D01*
X17564101Y3439607D02*
Y3467100D01*
X17595741Y3405858D02*
Y3407966D01*
X17359898Y939800D02*
Y1116599D01*
Y685800D02*
Y939800D01*
Y1116599D02*
X17957800Y1714500D01*
D26*
X12738100Y1333500D02*
D03*
D27*
X12992101D02*
D03*
X8788400Y1155700D02*
D03*
Y1409700D02*
D03*
D28*
Y901700D02*
D03*
D29*
X13549899Y939800D02*
D03*
Y685800D02*
D03*
X13803899Y939800D02*
D03*
Y685800D02*
D03*
X14057899Y939800D02*
D03*
X14311899D02*
D03*
X14565900D02*
D03*
X14057899Y685800D02*
D03*
X14311899D02*
D03*
X14565900D02*
D03*
X15835899Y939800D02*
D03*
Y685800D02*
D03*
X16343900Y939800D02*
D03*
Y685800D02*
D03*
X16851900Y939800D02*
D03*
Y685800D02*
D03*
X17359898Y939800D02*
D03*
Y685800D02*
D03*
X17613899Y939800D02*
D03*
X17105899Y685800D02*
D03*
Y939800D02*
D03*
X16597899Y685800D02*
D03*
Y939800D02*
D03*
X16089899Y685800D02*
D03*
Y939800D02*
D03*
X15581898Y685800D02*
D03*
Y939800D02*
D03*
X15327899Y685800D02*
D03*
Y939800D02*
D03*
X15073898Y685800D02*
D03*
Y939800D02*
D03*
X14819899Y685800D02*
D03*
Y939800D02*
D03*
X13295898Y685800D02*
D03*
X13041899D02*
D03*
X13295898Y939800D02*
D03*
X13041899D02*
D03*
X12787899Y685800D02*
D03*
X12533899D02*
D03*
X12279899D02*
D03*
X12025899D02*
D03*
X11771899D02*
D03*
X11517899D02*
D03*
X11263899D02*
D03*
X11009899D02*
D03*
X10755899D02*
D03*
X10501899D02*
D03*
X10247899D02*
D03*
X9993899D02*
D03*
X9739899D02*
D03*
X12787899Y939800D02*
D03*
X12533899D02*
D03*
X12279899D02*
D03*
X12025899D02*
D03*
X11771899D02*
D03*
X11517899D02*
D03*
X11263899D02*
D03*
X11009899D02*
D03*
X10755899D02*
D03*
X10501899D02*
D03*
X10247899D02*
D03*
X9993899D02*
D03*
X9739899D02*
D03*
D30*
X17613899Y685800D02*
D03*
D31*
X26806799Y2606672D02*
D03*
X13728700Y2463800D02*
D03*
X11052100Y2057400D02*
D03*
X11391900Y1498600D02*
D03*
X11125200Y1689100D02*
D03*
X8978900Y1803400D02*
D03*
X10833100Y1676400D02*
D03*
X9601200Y1714500D02*
D03*
X10579100Y1689100D02*
D03*
X10185400Y1498600D02*
D03*
X9626600Y1358900D02*
D03*
X10487028Y2905400D02*
D03*
X13258800Y1511300D02*
D03*
X11836400D02*
D03*
X9994900Y1917700D02*
D03*
X25831799Y1003300D02*
D03*
X26837701Y135900D02*
D03*
X25837701D02*
D03*
X24837701D02*
D03*
X23837701D02*
D03*
X21337701Y1135900D02*
D03*
X20337701D02*
D03*
X19337701D02*
D03*
X18337701D02*
D03*
X14337701D02*
D03*
X13337701D02*
D03*
X12337700D02*
D03*
X8337700D02*
D03*
X7337700D02*
D03*
X6337700D02*
D03*
X5337700D02*
D03*
X4337700D02*
D03*
X2837700Y135900D02*
D03*
X2337700Y1135900D02*
D03*
X1837700Y135900D02*
D03*
X1337700Y1135900D02*
D03*
X837700Y135900D02*
D03*
X13792200Y1155700D02*
D03*
X13804984Y1244516D02*
D03*
X24001266Y1551907D02*
D03*
X25117429Y2740300D02*
D03*
X23420534Y2733007D02*
D03*
X21717000Y2616200D02*
D03*
X21701128Y2740300D02*
D03*
X20018372D02*
D03*
X18297528D02*
D03*
X17891129Y2308500D02*
D03*
X16646529Y2740300D02*
D03*
X16078200Y2298700D02*
D03*
X14909801Y2616200D02*
D03*
X14893929Y2740300D02*
D03*
X13197034Y2733007D02*
D03*
X11493500Y2616200D02*
D03*
X10502900Y2527300D02*
D03*
X11490328Y2740300D02*
D03*
X9801228D02*
D03*
X8099428D02*
D03*
X7731128Y2330200D02*
D03*
X5562600Y2438400D02*
D03*
X6410328Y2740300D02*
D03*
Y2568300D02*
D03*
X5727700Y2336800D02*
D03*
X4759328Y2740300D02*
D03*
Y2574102D02*
D03*
X3044828Y2740300D02*
D03*
Y2574102D02*
D03*
X1482728Y2740300D02*
D03*
Y2574102D02*
D03*
X13296899Y2374900D02*
D03*
X13030200Y2257400D02*
D03*
X13268327Y2263500D02*
D03*
X14185899Y2374900D02*
D03*
X16941800Y2286000D02*
D03*
X13892067Y1120107D02*
D03*
X14147800Y1333500D02*
D03*
X13982700Y1130300D02*
D03*
X9423400Y2260767D02*
D03*
X12484100Y2400300D02*
D03*
X17132300Y2501900D02*
D03*
X17386301Y2374900D02*
D03*
X23657593Y1119333D02*
D03*
X19621500Y566251D02*
D03*
X24358968Y1308467D02*
D03*
X15363828Y1104600D02*
D03*
X10642600Y2438400D02*
D03*
X12230874Y2278233D02*
D03*
X24076300Y2111372D02*
D03*
X22489194Y2449367D02*
D03*
X20881972Y2415900D02*
D03*
X19116672Y2403200D02*
D03*
X20736932Y1813079D02*
D03*
X17881599Y1397000D02*
D03*
X3962400D02*
D03*
X4025900Y1270000D02*
D03*
X23967799Y2905820D02*
D03*
X24193500Y1930400D02*
D03*
X24485600Y596900D02*
D03*
X25514301D02*
D03*
X25831799Y1422400D02*
D03*
X26898599Y2692400D02*
D03*
X9867900Y2438400D02*
D03*
Y1879600D02*
D03*
X8089900Y2616200D02*
D03*
X9766300Y2362200D02*
D03*
X9791700Y2616200D02*
D03*
X13169901D02*
D03*
X20027901Y2603500D02*
D03*
X16637000Y2622001D02*
D03*
X18288000Y2616200D02*
D03*
X18897600Y2501900D02*
D03*
X18770599Y2400300D02*
D03*
X15328900Y2857500D02*
D03*
X13779500D02*
D03*
X20421600Y2908300D02*
D03*
X17094200D02*
D03*
X18884900D02*
D03*
X25666699Y2832100D02*
D03*
X17183099Y2349500D02*
D03*
X26492200Y2324100D02*
D03*
X23393401Y2616200D02*
D03*
X19634283Y2324184D02*
D03*
X14109700Y2527300D02*
D03*
X22313901Y1981200D02*
D03*
X22303706Y988867D02*
D03*
X21729700Y520700D02*
D03*
X21348700D02*
D03*
X19510100Y2314572D02*
D03*
X21218301Y520700D02*
D03*
X19126199Y1968500D02*
D03*
X17246600Y1892300D02*
D03*
X9448800Y1663700D02*
D03*
X25196800Y2235200D02*
D03*
X23863300Y1965302D02*
D03*
X14389101Y2311400D02*
D03*
X14516100Y2324100D02*
D03*
X15455901Y1574800D02*
D03*
X5740400Y660400D02*
D03*
X5613400D02*
D03*
X5359400D02*
D03*
X6032500Y622300D02*
D03*
X2387600Y2336800D02*
D03*
X2197100Y1651000D02*
D03*
X24079201Y2425700D02*
D03*
X22199600Y2908300D02*
D03*
X8562972Y2905400D02*
D03*
X6943728D02*
D03*
X13906500Y2438400D02*
D03*
X23964900Y1663700D02*
D03*
X23177499Y1879600D02*
D03*
X22174200D02*
D03*
X25539700Y1663700D02*
D03*
X26149301Y2133600D02*
D03*
X24066499Y723900D02*
D03*
X24422099Y1041400D02*
D03*
X24725198Y2324100D02*
D03*
X23025101D02*
D03*
X23279100Y1117600D02*
D03*
X21348700Y2324100D02*
D03*
X22529800Y927100D02*
D03*
X22415500Y812800D02*
D03*
X25907999Y2425700D02*
D03*
X24485600Y2324100D02*
D03*
X22872701Y2336800D02*
D03*
X21234399Y2324100D02*
D03*
X8020029Y699716D02*
D03*
X8509087Y2269475D02*
D03*
X16954500Y1193800D02*
D03*
X12395200Y2540000D02*
D03*
X889000Y2286000D02*
D03*
X2527300Y2336800D02*
D03*
X4025900Y2311400D02*
D03*
X4152900Y2298700D02*
D03*
X5727700Y2095500D02*
D03*
X9220200Y2324100D02*
D03*
X9678671Y1880871D02*
D03*
X7353300Y2400300D02*
D03*
X10769600Y2374900D02*
D03*
X16230600Y2324100D02*
D03*
X19761200Y562000D02*
D03*
X19888200D02*
D03*
X20002499D02*
D03*
X21107401Y520700D02*
D03*
X20967700D02*
D03*
X21475700D02*
D03*
X21602699D02*
D03*
X21856700D02*
D03*
X10871200Y2286000D02*
D03*
X7886700Y673100D02*
D03*
X7505700Y723900D02*
D03*
X7632700Y673100D02*
D03*
X7112000Y647700D02*
D03*
X17487900Y2438400D02*
D03*
X15646400D02*
D03*
X20510500Y2514600D02*
D03*
X7759700Y660400D02*
D03*
X7378700Y714400D02*
D03*
X7251700Y736600D02*
D03*
X6032500Y1727200D02*
D03*
X5943600Y2311400D02*
D03*
X5232400Y660400D02*
D03*
X5473700D02*
D03*
X7188200Y2476500D02*
D03*
X5232400Y2514600D02*
D03*
X3784600Y1473200D02*
D03*
X3949700Y2425700D02*
D03*
X2197100Y2451100D02*
D03*
X25107899Y2616200D02*
D03*
X6946900Y2517800D02*
D03*
X1828800Y2514600D02*
D03*
X25679401D02*
D03*
X23901401D02*
D03*
X22288499D02*
D03*
X15506700Y2501900D02*
D03*
X12192000Y2527300D02*
D03*
X12179300Y2857500D02*
D03*
X8585200Y2527300D02*
D03*
X5194300Y2857500D02*
D03*
X3657600Y2806700D02*
D03*
X3632200Y2501900D02*
D03*
X482600Y2578100D02*
D03*
X1828800Y2781300D02*
D03*
X482600Y2794000D02*
D03*
D32*
X13665199Y3352800D02*
D03*
X10706100Y3492500D02*
D03*
X9677400Y3086100D02*
D03*
X9994900Y1282700D02*
D03*
X10071100Y3213100D02*
D03*
X26670001Y3276600D02*
D03*
X25958801Y2908300D02*
D03*
X27096219Y1271770D02*
D03*
X18072099Y3035300D02*
D03*
X17462500Y2806700D02*
D03*
X17564101Y3467100D02*
D03*
X18436606Y3196606D02*
D03*
X16598900Y3035300D02*
D03*
X25958801Y812800D02*
D03*
X1498600Y2921000D02*
D03*
X27051001Y2781300D02*
D03*
X25082500Y3035300D02*
D03*
X23406100D02*
D03*
X21678900D02*
D03*
X20002499Y3022600D02*
D03*
X14947900D02*
D03*
X13220700Y3035300D02*
D03*
X11544300Y3022600D02*
D03*
X8102600D02*
D03*
X6413500Y3009900D02*
D03*
X4711700Y2971800D02*
D03*
X3022600D02*
D03*
X1134086Y3473742D02*
D03*
X25984201Y3517900D02*
D03*
X24307800Y3505200D02*
D03*
X22656799Y3492500D02*
D03*
X20980400Y3505200D02*
D03*
X19177000Y3454400D02*
D03*
X12458700Y3530600D02*
D03*
X2133600Y3505200D02*
D03*
X3898900Y3492500D02*
D03*
X5486400Y3505200D02*
D03*
X7226300Y3492500D02*
D03*
X8978900Y3517900D02*
D03*
X14071600Y3543300D02*
D03*
X15833115Y3497562D02*
D03*
X26022299Y1727200D02*
D03*
X25946100Y508000D02*
D03*
X24333200Y2794000D02*
D03*
X22606000Y2806700D02*
D03*
X20853400D02*
D03*
X19227800D02*
D03*
X15786099Y2819400D02*
D03*
X14109700D02*
D03*
X12420600D02*
D03*
X26822400Y2844800D02*
D03*
X25260300Y3187700D02*
D03*
X23533099Y3175000D02*
D03*
X21856700Y3200400D02*
D03*
X20129500Y3175000D02*
D03*
X16764000Y3200400D02*
D03*
X15151100Y3175000D02*
D03*
X13427753Y3197544D02*
D03*
X11696700Y3175000D02*
D03*
X8261642Y3166086D02*
D03*
X10718800Y2806700D02*
D03*
X8991600D02*
D03*
X7264400D02*
D03*
X6610642Y3178786D02*
D03*
X4838700Y3162300D02*
D03*
X3911600Y2933700D02*
D03*
X2222500Y2882900D02*
D03*
X3149600Y3124200D02*
D03*
X469900Y2959100D02*
D03*
X1587500Y3314700D02*
D03*
X5600700Y2794000D02*
D03*
D33*
X23837698Y535900D02*
D03*
X2237700D02*
D03*
D34*
X27590799Y342900D02*
D03*
X640800D02*
D03*
Y3235100D02*
D03*
X27590799D02*
D03*
%TF.MD5,c6209dfe27d0f8ccbec43a140b5889e9*%
M02*
