%TF.GenerationSoftware,Altium Limited,Altium Designer,24.9.1 (31)*%
G04 Layer_Physical_Order=3*
G04 Layer_Color=128*
%FSLAX45Y45*%
%MOMM*%
%TF.SameCoordinates,261FE19A-EF30-4485-92B3-4F91B7BE389E*%
%TF.FilePolarity,Negative*%
%TF.FileFunction,Copper,L3,Inr,Plane*%
%TF.Part,Single*%
G01*
G75*
%TA.AperFunction,NonConductor*%
%ADD35C,1.01600*%
%TA.AperFunction,ComponentPad*%
%ADD36C,1.50000*%
%TA.AperFunction,ViaPad*%
%ADD37C,0.70000*%
%ADD38C,1.11120*%
D35*
X50798Y50800D02*
X27939484D01*
X27939474Y3675895D02*
X27939484Y50800D01*
X50802Y3675895D02*
X27939474D01*
X50798Y50800D02*
X50802Y3675895D01*
D36*
X12738100Y1333500D02*
D03*
X12992101D02*
D03*
X8788400Y901700D02*
D03*
Y1155700D02*
D03*
Y1409700D02*
D03*
X13549899Y939800D02*
D03*
Y685800D02*
D03*
X13803899Y939800D02*
D03*
Y685800D02*
D03*
X14057899Y939800D02*
D03*
X14311899D02*
D03*
X14565900D02*
D03*
X14057899Y685800D02*
D03*
X14311899D02*
D03*
X14565900D02*
D03*
X15835899Y939800D02*
D03*
Y685800D02*
D03*
X16343900Y939800D02*
D03*
Y685800D02*
D03*
X16851900Y939800D02*
D03*
Y685800D02*
D03*
X17359898Y939800D02*
D03*
Y685800D02*
D03*
X17613899D02*
D03*
Y939800D02*
D03*
X17105899Y685800D02*
D03*
Y939800D02*
D03*
X16597899Y685800D02*
D03*
Y939800D02*
D03*
X16089899Y685800D02*
D03*
Y939800D02*
D03*
X15581898Y685800D02*
D03*
Y939800D02*
D03*
X15327899Y685800D02*
D03*
Y939800D02*
D03*
X15073898Y685800D02*
D03*
Y939800D02*
D03*
X14819899Y685800D02*
D03*
Y939800D02*
D03*
X13295898Y685800D02*
D03*
X13041899D02*
D03*
X13295898Y939800D02*
D03*
X13041899D02*
D03*
X12787899Y685800D02*
D03*
X12533899D02*
D03*
X12279899D02*
D03*
X12025899D02*
D03*
X11771899D02*
D03*
X11517899D02*
D03*
X11263899D02*
D03*
X11009899D02*
D03*
X10247899D02*
D03*
X9739899D02*
D03*
X12787899Y939800D02*
D03*
X12533899D02*
D03*
X12279899D02*
D03*
X12025899D02*
D03*
X11771899D02*
D03*
X11517899D02*
D03*
X11263899D02*
D03*
X11009899D02*
D03*
X10755899D02*
D03*
X10501899D02*
D03*
X10247899D02*
D03*
D37*
X26806799Y2606672D02*
D03*
X13728700Y2463800D02*
D03*
X11052100Y2057400D02*
D03*
X11391900Y1498600D02*
D03*
X11125200Y1689100D02*
D03*
X8978900Y1803400D02*
D03*
X10833100Y1676400D02*
D03*
X9601200Y1714500D02*
D03*
X10579100Y1689100D02*
D03*
X10185400Y1498600D02*
D03*
X9626600Y1358900D02*
D03*
X10487028Y2905400D02*
D03*
X13258800Y1511300D02*
D03*
X11836400D02*
D03*
X9994900Y1917700D02*
D03*
X25831799Y1003300D02*
D03*
X13792200Y1155700D02*
D03*
X13804984Y1244516D02*
D03*
X24001266Y1551907D02*
D03*
X25117429Y2740300D02*
D03*
X23420534Y2733007D02*
D03*
X21717000Y2616200D02*
D03*
X21701128Y2740300D02*
D03*
X20018372D02*
D03*
X18297528D02*
D03*
X17891129Y2308500D02*
D03*
X16646529Y2740300D02*
D03*
X16078200Y2298700D02*
D03*
X14909801Y2616200D02*
D03*
X14893929Y2740300D02*
D03*
X13197034Y2733007D02*
D03*
X11493500Y2616200D02*
D03*
X10502900Y2527300D02*
D03*
X11490328Y2740300D02*
D03*
X9801228D02*
D03*
X8099428D02*
D03*
X7731128Y2330200D02*
D03*
X5562600Y2438400D02*
D03*
X6410328Y2740300D02*
D03*
Y2568300D02*
D03*
X5727700Y2336800D02*
D03*
X4759328Y2740300D02*
D03*
Y2574102D02*
D03*
X3044828Y2740300D02*
D03*
Y2574102D02*
D03*
X1482728Y2740300D02*
D03*
Y2574102D02*
D03*
X13296899Y2374900D02*
D03*
X13030200Y2257400D02*
D03*
X13268327Y2263500D02*
D03*
X14185899Y2374900D02*
D03*
X16941800Y2286000D02*
D03*
X13892067Y1120107D02*
D03*
X14147800Y1333500D02*
D03*
X13982700Y1130300D02*
D03*
X9423400Y2260767D02*
D03*
X12484100Y2400300D02*
D03*
X17132300Y2501900D02*
D03*
X17386301Y2374900D02*
D03*
X23657593Y1119333D02*
D03*
X19621500Y566251D02*
D03*
X24358968Y1308467D02*
D03*
X15363828Y1104600D02*
D03*
X10642600Y2438400D02*
D03*
X12230874Y2278233D02*
D03*
X24076300Y2111372D02*
D03*
X22489194Y2449367D02*
D03*
X20881972Y2415900D02*
D03*
X19116672Y2403200D02*
D03*
X20736932Y1813079D02*
D03*
X17881599Y1397000D02*
D03*
X3962400D02*
D03*
X4025900Y1270000D02*
D03*
X23967799Y2905820D02*
D03*
X24193500Y1930400D02*
D03*
X24485600Y596900D02*
D03*
X25514301D02*
D03*
X25831799Y1422400D02*
D03*
X26898599Y2692400D02*
D03*
X9867900Y2438400D02*
D03*
Y1879600D02*
D03*
X8089900Y2616200D02*
D03*
X9766300Y2362200D02*
D03*
X9791700Y2616200D02*
D03*
X13169901D02*
D03*
X20027901Y2603500D02*
D03*
X16637000Y2622001D02*
D03*
X18288000Y2616200D02*
D03*
X18897600Y2501900D02*
D03*
X18770599Y2400300D02*
D03*
X15328900Y2857500D02*
D03*
X13779500D02*
D03*
X20421600Y2908300D02*
D03*
X17094200D02*
D03*
X18884900D02*
D03*
X25666699Y2832100D02*
D03*
X17183099Y2349500D02*
D03*
X26492200Y2324100D02*
D03*
X23393401Y2616200D02*
D03*
X19634283Y2324184D02*
D03*
X14109700Y2527300D02*
D03*
X22313901Y1981200D02*
D03*
X22303706Y988867D02*
D03*
X21729700Y520700D02*
D03*
X21348700D02*
D03*
X19510100Y2314572D02*
D03*
X21218301Y520700D02*
D03*
X19126199Y1968500D02*
D03*
X17246600Y1892300D02*
D03*
X9448800Y1663700D02*
D03*
X25196800Y2235200D02*
D03*
X23863300Y1965302D02*
D03*
X14389101Y2311400D02*
D03*
X14516100Y2324100D02*
D03*
X15455901Y1574800D02*
D03*
X5740400Y660400D02*
D03*
X5613400D02*
D03*
X5359400D02*
D03*
X6032500Y622300D02*
D03*
X2387600Y2336800D02*
D03*
X2197100Y1651000D02*
D03*
X24079201Y2425700D02*
D03*
X22199600Y2908300D02*
D03*
X8562972Y2905400D02*
D03*
X6943728D02*
D03*
X13906500Y2438400D02*
D03*
X23964900Y1663700D02*
D03*
X23177499Y1879600D02*
D03*
X22174200D02*
D03*
X25539700Y1663700D02*
D03*
X26149301Y2133600D02*
D03*
X24066499Y723900D02*
D03*
X24422099Y1041400D02*
D03*
X24725198Y2324100D02*
D03*
X23025101D02*
D03*
X23279100Y1117600D02*
D03*
X21348700Y2324100D02*
D03*
X22529800Y927100D02*
D03*
X22415500Y812800D02*
D03*
X25907999Y2425700D02*
D03*
X24485600Y2324100D02*
D03*
X22872701Y2336800D02*
D03*
X21234399Y2324100D02*
D03*
X8020029Y699716D02*
D03*
X8509087Y2269475D02*
D03*
X16954500Y1193800D02*
D03*
X12395200Y2540000D02*
D03*
X889000Y2286000D02*
D03*
X2527300Y2336800D02*
D03*
X4025900Y2311400D02*
D03*
X4152900Y2298700D02*
D03*
X5727700Y2095500D02*
D03*
X9220200Y2324100D02*
D03*
X9678671Y1880871D02*
D03*
X7353300Y2400300D02*
D03*
X10769600Y2374900D02*
D03*
X16230600Y2324100D02*
D03*
X19761200Y562000D02*
D03*
X19888200D02*
D03*
X20002499D02*
D03*
X21107401Y520700D02*
D03*
X20967700D02*
D03*
X21475700D02*
D03*
X21602699D02*
D03*
X21856700D02*
D03*
X10871200Y2286000D02*
D03*
X7886700Y673100D02*
D03*
X7505700Y723900D02*
D03*
X7632700Y673100D02*
D03*
X7112000Y647700D02*
D03*
X17487900Y2438400D02*
D03*
X15646400D02*
D03*
X20510500Y2514600D02*
D03*
X7759700Y660400D02*
D03*
X7378700Y714400D02*
D03*
X7251700Y736600D02*
D03*
X6032500Y1727200D02*
D03*
X5943600Y2311400D02*
D03*
X5232400Y660400D02*
D03*
X5473700D02*
D03*
X7188200Y2476500D02*
D03*
X5232400Y2514600D02*
D03*
X3784600Y1473200D02*
D03*
X3949700Y2425700D02*
D03*
X2197100Y2451100D02*
D03*
X25107899Y2616200D02*
D03*
X6946900Y2517800D02*
D03*
X1828800Y2514600D02*
D03*
X25679401D02*
D03*
X23901401D02*
D03*
X22288499D02*
D03*
X15506700Y2501900D02*
D03*
X12192000Y2527300D02*
D03*
X12179300Y2857500D02*
D03*
X8585200Y2527300D02*
D03*
X5194300Y2857500D02*
D03*
X3657600Y2806700D02*
D03*
X3632200Y2501900D02*
D03*
X482600Y2578100D02*
D03*
X1828800Y2781300D02*
D03*
X482600Y2794000D02*
D03*
D38*
X13665199Y3352800D02*
D03*
X10706100Y3492500D02*
D03*
X9677400Y3086100D02*
D03*
X27096219Y1271770D02*
D03*
X18072099Y3035300D02*
D03*
X17564101Y3467100D02*
D03*
X16598900Y3035300D02*
D03*
X25958801Y812800D02*
D03*
X1498600Y2921000D02*
D03*
X27051001Y2781300D02*
D03*
X25082500Y3035300D02*
D03*
X23406100D02*
D03*
X21678900D02*
D03*
X20002499Y3022600D02*
D03*
X14947900D02*
D03*
X13220700Y3035300D02*
D03*
X11544300Y3022600D02*
D03*
X8102600D02*
D03*
X6413500Y3009900D02*
D03*
X4711700Y2971800D02*
D03*
X3022600D02*
D03*
X1134086Y3473742D02*
D03*
X25984201Y3517900D02*
D03*
X24307800Y3505200D02*
D03*
X22656799Y3492500D02*
D03*
X20980400Y3505200D02*
D03*
X19177000Y3454400D02*
D03*
X12458700Y3530600D02*
D03*
X2133600Y3505200D02*
D03*
X3898900Y3492500D02*
D03*
X5486400Y3505200D02*
D03*
X7226300Y3492500D02*
D03*
X8978900Y3517900D02*
D03*
X14071600Y3543300D02*
D03*
X15833115Y3497562D02*
D03*
%TF.MD5,d27b3b76754d70ffd009fe48485e2583*%
M02*
