%TF.GenerationSoftware,Altium Limited,Altium Designer,24.9.1 (31)*%
G04 Layer_Color=8388736*
%FSLAX45Y45*%
%MOMM*%
%TF.SameCoordinates,261FE19A-EF30-4485-92B3-4F91B7BE389E*%
%TF.FilePolarity,Negative*%
%TF.FileFunction,Soldermask,Top*%
%TF.Part,Single*%
G01*
G75*
%TA.AperFunction,SMDPad,CuDef*%
%ADD12R,0.91213X1.05814*%
%ADD13R,1.05814X0.91213*%
%ADD17R,1.00000X0.30000*%
%ADD18R,1.30000X2.00000*%
%ADD19R,0.61535X0.57247*%
%ADD20R,0.76000X1.27000*%
%ADD21R,1.27000X0.76000*%
%ADD22R,0.57247X0.61535*%
G04:AMPARAMS|DCode=43|XSize=0.7mm|YSize=2.2mm|CornerRadius=0.101mm|HoleSize=0mm|Usage=FLASHONLY|Rotation=0.000|XOffset=0mm|YOffset=0mm|HoleType=Round|Shape=RoundedRectangle|*
%AMROUNDEDRECTD43*
21,1,0.70000,1.99800,0,0,0.0*
21,1,0.49800,2.20000,0,0,0.0*
1,1,0.20200,0.24900,-0.99900*
1,1,0.20200,-0.24900,-0.99900*
1,1,0.20200,-0.24900,0.99900*
1,1,0.20200,0.24900,0.99900*
%
%ADD43ROUNDEDRECTD43*%
G04:AMPARAMS|DCode=44|XSize=3.3mm|YSize=2.2mm|CornerRadius=0.1025mm|HoleSize=0mm|Usage=FLASHONLY|Rotation=0.000|XOffset=0mm|YOffset=0mm|HoleType=Round|Shape=RoundedRectangle|*
%AMROUNDEDRECTD44*
21,1,3.30000,1.99500,0,0,0.0*
21,1,3.09500,2.20000,0,0,0.0*
1,1,0.20500,1.54750,-0.99750*
1,1,0.20500,-1.54750,-0.99750*
1,1,0.20500,-1.54750,0.99750*
1,1,0.20500,1.54750,0.99750*
%
%ADD44ROUNDEDRECTD44*%
%ADD45C,1.10000*%
%ADD46R,0.55000X0.50000*%
%ADD47R,0.50000X0.55000*%
%TA.AperFunction,ComponentPad*%
G04:AMPARAMS|DCode=48|XSize=1.7mm|YSize=1.7mm|CornerRadius=0.45mm|HoleSize=0mm|Usage=FLASHONLY|Rotation=0.000|XOffset=0mm|YOffset=0mm|HoleType=Round|Shape=RoundedRectangle|*
%AMROUNDEDRECTD48*
21,1,1.70000,0.80000,0,0,0.0*
21,1,0.80000,1.70000,0,0,0.0*
1,1,0.90000,0.40000,-0.40000*
1,1,0.90000,-0.40000,-0.40000*
1,1,0.90000,-0.40000,0.40000*
1,1,0.90000,0.40000,0.40000*
%
%ADD48ROUNDEDRECTD48*%
%ADD49C,1.70000*%
G04:AMPARAMS|DCode=50|XSize=1.7mm|YSize=1.7mm|CornerRadius=0.45mm|HoleSize=0mm|Usage=FLASHONLY|Rotation=90.000|XOffset=0mm|YOffset=0mm|HoleType=Round|Shape=RoundedRectangle|*
%AMROUNDEDRECTD50*
21,1,1.70000,0.80000,0,0,90.0*
21,1,0.80000,1.70000,0,0,90.0*
1,1,0.90000,0.40000,0.40000*
1,1,0.90000,0.40000,-0.40000*
1,1,0.90000,-0.40000,-0.40000*
1,1,0.90000,-0.40000,0.40000*
%
%ADD50ROUNDEDRECTD50*%
%ADD51C,1.75000*%
G04:AMPARAMS|DCode=52|XSize=1.75mm|YSize=1.75mm|CornerRadius=0.4625mm|HoleSize=0mm|Usage=FLASHONLY|Rotation=0.000|XOffset=0mm|YOffset=0mm|HoleType=Round|Shape=RoundedRectangle|*
%AMROUNDEDRECTD52*
21,1,1.75000,0.82500,0,0,0.0*
21,1,0.82500,1.75000,0,0,0.0*
1,1,0.92500,0.41250,-0.41250*
1,1,0.92500,-0.41250,-0.41250*
1,1,0.92500,-0.41250,0.41250*
1,1,0.92500,0.41250,0.41250*
%
%ADD52ROUNDEDRECTD52*%
%TA.AperFunction,ViaPad*%
%ADD53C,0.55000*%
%ADD54C,1.37000*%
%ADD55C,0.80000*%
%ADD56C,3.40320*%
D12*
X9182100Y1947299D02*
D03*
Y1811901D02*
D03*
X9474200Y1494299D02*
D03*
Y1358900D02*
D03*
D13*
X11332599Y2057400D02*
D03*
X11197201D02*
D03*
X5829407Y3378200D02*
D03*
X5964804D02*
D03*
X12683099D02*
D03*
X12818501D02*
D03*
X17936601D02*
D03*
X17801199D02*
D03*
X10977103Y3365500D02*
D03*
X11112500D02*
D03*
X9279499Y3378200D02*
D03*
X9414901D02*
D03*
X7560803D02*
D03*
X7696200D02*
D03*
X4186799Y3289300D02*
D03*
X4322201D02*
D03*
X2429998Y3302000D02*
D03*
X2565400D02*
D03*
X1109101Y3200400D02*
D03*
X973699D02*
D03*
X26259399Y3327400D02*
D03*
X26394800D02*
D03*
X24570299Y3276600D02*
D03*
X24705701D02*
D03*
X22860001Y3302000D02*
D03*
X22995403D02*
D03*
X21204799D02*
D03*
X21340201D02*
D03*
X19477599Y3340100D02*
D03*
X19613000D02*
D03*
X16099399Y3378200D02*
D03*
X16234801D02*
D03*
X14389101D02*
D03*
X14524496D02*
D03*
D17*
X26376700Y879902D02*
D03*
Y929899D02*
D03*
Y979902D02*
D03*
Y1029899D02*
D03*
Y1079901D02*
D03*
Y1129899D02*
D03*
Y1179901D02*
D03*
Y1229898D02*
D03*
Y1279901D02*
D03*
Y1329898D02*
D03*
Y1379901D02*
D03*
Y829899D02*
D03*
D18*
X26646698Y599902D02*
D03*
Y1609898D02*
D03*
D19*
X1320800Y3327400D02*
D03*
X1406510D02*
D03*
X16552855D02*
D03*
X16467145D02*
D03*
X21592941D02*
D03*
X21507227D02*
D03*
X18187527D02*
D03*
X18101813D02*
D03*
X13079405D02*
D03*
X12993695D02*
D03*
X9673991D02*
D03*
X9588282D02*
D03*
X11376701D02*
D03*
X11290986D02*
D03*
X7975600D02*
D03*
X7889885D02*
D03*
X4614855D02*
D03*
X4529145D02*
D03*
X6303955D02*
D03*
X6218245D02*
D03*
X2913055D02*
D03*
X2827345D02*
D03*
X24998355D02*
D03*
X24912640D02*
D03*
X23301311D02*
D03*
X23215601D02*
D03*
X19918355D02*
D03*
X19832645D02*
D03*
X14800258D02*
D03*
X14714543D02*
D03*
D20*
X19113499Y1484401D02*
D03*
X19240500D02*
D03*
X19367500D02*
D03*
X19494501D02*
D03*
X19621500D02*
D03*
X19748500D02*
D03*
X19875500D02*
D03*
X20002499D02*
D03*
Y725399D02*
D03*
X19875500D02*
D03*
X19748500D02*
D03*
X19621500D02*
D03*
X19494501D02*
D03*
X19367500D02*
D03*
X19240500D02*
D03*
X19113499D02*
D03*
X2565400Y1649501D02*
D03*
X2692400D02*
D03*
X2819400D02*
D03*
X2946400D02*
D03*
X3073400D02*
D03*
X3200400D02*
D03*
X3327400D02*
D03*
X3454400D02*
D03*
Y890499D02*
D03*
X3327400D02*
D03*
X3200400D02*
D03*
X3073400D02*
D03*
X2946400D02*
D03*
X2819400D02*
D03*
X2692400D02*
D03*
X2565400D02*
D03*
X4845050D02*
D03*
X4972050D02*
D03*
X5099050D02*
D03*
X5226050D02*
D03*
X5353050D02*
D03*
X5480050D02*
D03*
X5607050D02*
D03*
X5734050D02*
D03*
Y1649496D02*
D03*
X5607050D02*
D03*
X5480050D02*
D03*
X5353050D02*
D03*
X5226050D02*
D03*
X5099050D02*
D03*
X4972050D02*
D03*
X4845050D02*
D03*
X20961349Y1484401D02*
D03*
X21088350D02*
D03*
X21215350D02*
D03*
X21342349D02*
D03*
X21469350D02*
D03*
X21596350D02*
D03*
X21723351D02*
D03*
X21850349D02*
D03*
Y725399D02*
D03*
X21723351D02*
D03*
X21596350D02*
D03*
X21469350D02*
D03*
X21342349D02*
D03*
X21215350D02*
D03*
X21088350D02*
D03*
X20961349D02*
D03*
X7124700Y890499D02*
D03*
X7251700D02*
D03*
X7378700D02*
D03*
X7505700D02*
D03*
X7632700D02*
D03*
X7759700D02*
D03*
X7886700D02*
D03*
X8013700D02*
D03*
Y1649496D02*
D03*
X7886700D02*
D03*
X7759700D02*
D03*
X7632700D02*
D03*
X7505700D02*
D03*
X7378700D02*
D03*
X7251700D02*
D03*
X7124700D02*
D03*
X22809200Y725404D02*
D03*
X22936200D02*
D03*
X23063200D02*
D03*
X23190199D02*
D03*
X23317200D02*
D03*
X23444200D02*
D03*
X23571201D02*
D03*
X23698199D02*
D03*
Y1484401D02*
D03*
X23571201D02*
D03*
X23444200D02*
D03*
X23317200D02*
D03*
X23190199D02*
D03*
X23063200D02*
D03*
X22936200D02*
D03*
X22809200D02*
D03*
D21*
X25361900Y1308100D02*
D03*
Y1181100D02*
D03*
Y1054100D02*
D03*
Y927100D02*
D03*
X24599899D02*
D03*
Y1054100D02*
D03*
Y1181100D02*
D03*
Y1308100D02*
D03*
D22*
X26949399Y2992445D02*
D03*
Y3078155D02*
D03*
D43*
X10960100Y1872300D02*
D03*
X10833100D02*
D03*
X10706100D02*
D03*
X10579100D02*
D03*
X10452100D02*
D03*
D44*
X10706100Y1277300D02*
D03*
D45*
X27800000Y3500000D02*
D03*
Y150000D02*
D03*
X200000Y3500000D02*
D03*
Y150000D02*
D03*
D46*
X16085201Y2755600D02*
D03*
X16370198D02*
D03*
Y2690602D02*
D03*
Y2625598D02*
D03*
Y2560599D02*
D03*
X16085201D02*
D03*
Y2625598D02*
D03*
Y2690602D02*
D03*
X19485199Y2755600D02*
D03*
X19770197D02*
D03*
Y2690602D02*
D03*
Y2625598D02*
D03*
Y2560599D02*
D03*
X19485199D02*
D03*
Y2625598D02*
D03*
Y2690602D02*
D03*
X785200Y2755600D02*
D03*
X1070199D02*
D03*
Y2690602D02*
D03*
Y2625598D02*
D03*
Y2560599D02*
D03*
X785200D02*
D03*
Y2625598D02*
D03*
Y2690602D02*
D03*
X5885200Y2755600D02*
D03*
X6170198D02*
D03*
Y2690602D02*
D03*
Y2625598D02*
D03*
Y2560599D02*
D03*
X5885200D02*
D03*
Y2625598D02*
D03*
Y2690602D02*
D03*
X9285199D02*
D03*
Y2625598D02*
D03*
Y2560599D02*
D03*
X9570202D02*
D03*
Y2625598D02*
D03*
Y2690602D02*
D03*
Y2755600D02*
D03*
X9285199D02*
D03*
X2485202D02*
D03*
X2770200D02*
D03*
Y2690602D02*
D03*
Y2625598D02*
D03*
Y2560599D02*
D03*
X2485202D02*
D03*
Y2625598D02*
D03*
Y2690602D02*
D03*
X4185199Y2755600D02*
D03*
X4470202D02*
D03*
Y2690602D02*
D03*
Y2625598D02*
D03*
Y2560599D02*
D03*
X4185199D02*
D03*
Y2625598D02*
D03*
Y2690602D02*
D03*
X7585202D02*
D03*
Y2625598D02*
D03*
Y2560599D02*
D03*
X7870200D02*
D03*
Y2625598D02*
D03*
Y2690602D02*
D03*
Y2755600D02*
D03*
X7585202D02*
D03*
X10985200D02*
D03*
X11270198D02*
D03*
Y2690602D02*
D03*
Y2625598D02*
D03*
Y2560599D02*
D03*
X10985200D02*
D03*
Y2625598D02*
D03*
Y2690602D02*
D03*
X12685197Y2755600D02*
D03*
X12970200D02*
D03*
Y2690602D02*
D03*
Y2625598D02*
D03*
Y2560599D02*
D03*
X12685197D02*
D03*
Y2625598D02*
D03*
Y2690602D02*
D03*
X14385199Y2755600D02*
D03*
X14670203D02*
D03*
Y2690602D02*
D03*
Y2625598D02*
D03*
Y2560599D02*
D03*
X14385199D02*
D03*
Y2625598D02*
D03*
Y2690602D02*
D03*
X17785197Y2755600D02*
D03*
X18070200D02*
D03*
Y2690602D02*
D03*
Y2625598D02*
D03*
Y2560599D02*
D03*
X17785197D02*
D03*
Y2625598D02*
D03*
Y2690602D02*
D03*
X21185201Y2755600D02*
D03*
X21470198D02*
D03*
Y2690602D02*
D03*
Y2625598D02*
D03*
Y2560599D02*
D03*
X21185201D02*
D03*
Y2625598D02*
D03*
Y2690602D02*
D03*
X22885197Y2755600D02*
D03*
X23170200D02*
D03*
Y2690602D02*
D03*
Y2625598D02*
D03*
Y2560599D02*
D03*
X22885197D02*
D03*
Y2625598D02*
D03*
Y2690602D02*
D03*
X24585197Y2755600D02*
D03*
X24870197D02*
D03*
Y2690602D02*
D03*
Y2625598D02*
D03*
Y2560599D02*
D03*
X24585197D02*
D03*
Y2625598D02*
D03*
Y2690602D02*
D03*
X26285199Y2755600D02*
D03*
X26570197D02*
D03*
Y2690602D02*
D03*
Y2625598D02*
D03*
Y2560599D02*
D03*
X26285199D02*
D03*
Y2625598D02*
D03*
Y2690602D02*
D03*
D47*
X16292699Y2515601D02*
D03*
X16227699D02*
D03*
X16162701D02*
D03*
Y2800599D02*
D03*
X16227699D02*
D03*
X16292699D02*
D03*
X19692702Y2515601D02*
D03*
X19627698D02*
D03*
X19562698D02*
D03*
Y2800599D02*
D03*
X19627698D02*
D03*
X19692702D02*
D03*
X992698D02*
D03*
X927699D02*
D03*
X862701D02*
D03*
X992698Y2515601D02*
D03*
X927699D02*
D03*
X862701D02*
D03*
X6092698D02*
D03*
X6027699D02*
D03*
X5962701D02*
D03*
Y2800599D02*
D03*
X6092698D02*
D03*
X6027699D02*
D03*
X9362699Y2515601D02*
D03*
X9427698D02*
D03*
X9492701D02*
D03*
X9362699Y2800599D02*
D03*
X9492701D02*
D03*
X9427698D02*
D03*
X2692700Y2515601D02*
D03*
X2627701D02*
D03*
X2562697D02*
D03*
Y2800599D02*
D03*
X2627701D02*
D03*
X2692700D02*
D03*
X4392701Y2515601D02*
D03*
X4327698D02*
D03*
X4262699D02*
D03*
Y2800599D02*
D03*
X4327698D02*
D03*
X4392701D02*
D03*
X7662697Y2515601D02*
D03*
X7727701D02*
D03*
X7792700D02*
D03*
X7662697Y2800599D02*
D03*
X7727701D02*
D03*
X7792700D02*
D03*
X11192698Y2515601D02*
D03*
X11127699D02*
D03*
X11062701D02*
D03*
Y2800599D02*
D03*
X11127699D02*
D03*
X11192698D02*
D03*
X12892700Y2515601D02*
D03*
X12827701D02*
D03*
X12762697D02*
D03*
Y2800599D02*
D03*
X12892700D02*
D03*
X12827701D02*
D03*
X14592702Y2515601D02*
D03*
X14527698D02*
D03*
X14462698D02*
D03*
Y2800599D02*
D03*
X14527698D02*
D03*
X14592702D02*
D03*
X17992700Y2515601D02*
D03*
X17927701D02*
D03*
X17862697D02*
D03*
Y2800599D02*
D03*
X17992700D02*
D03*
X17927701D02*
D03*
X21392699Y2515601D02*
D03*
X21327699D02*
D03*
X21262701D02*
D03*
Y2800599D02*
D03*
X21392699D02*
D03*
X21327699D02*
D03*
X23092700Y2515601D02*
D03*
X23027701D02*
D03*
X22962697D02*
D03*
Y2800599D02*
D03*
X23027701D02*
D03*
X23092700D02*
D03*
X24792702Y2515601D02*
D03*
X24727698D02*
D03*
X24662698D02*
D03*
Y2800599D02*
D03*
X24792702D02*
D03*
X24727698D02*
D03*
X26492697Y2515601D02*
D03*
X26427698D02*
D03*
X26362701D02*
D03*
Y2800599D02*
D03*
X26427698D02*
D03*
X26492697D02*
D03*
D48*
X12738100Y1333500D02*
D03*
D49*
X12992101D02*
D03*
X8788400Y1155700D02*
D03*
Y1409700D02*
D03*
D50*
Y901700D02*
D03*
D51*
X13549899Y939800D02*
D03*
Y685800D02*
D03*
X13803899Y939800D02*
D03*
Y685800D02*
D03*
X14057899Y939800D02*
D03*
X14311899D02*
D03*
X14565900D02*
D03*
X14057899Y685800D02*
D03*
X14311899D02*
D03*
X14565900D02*
D03*
X15835899Y939800D02*
D03*
Y685800D02*
D03*
X16343900Y939800D02*
D03*
Y685800D02*
D03*
X16851900Y939800D02*
D03*
Y685800D02*
D03*
X17359898Y939800D02*
D03*
Y685800D02*
D03*
X17613899Y939800D02*
D03*
X17105899Y685800D02*
D03*
Y939800D02*
D03*
X16597899Y685800D02*
D03*
Y939800D02*
D03*
X16089899Y685800D02*
D03*
Y939800D02*
D03*
X15581898Y685800D02*
D03*
Y939800D02*
D03*
X15327899Y685800D02*
D03*
Y939800D02*
D03*
X15073898Y685800D02*
D03*
Y939800D02*
D03*
X14819899Y685800D02*
D03*
Y939800D02*
D03*
X13295898Y685800D02*
D03*
X13041899D02*
D03*
X13295898Y939800D02*
D03*
X13041899D02*
D03*
X12787899Y685800D02*
D03*
X12533899D02*
D03*
X12279899D02*
D03*
X12025899D02*
D03*
X11771899D02*
D03*
X11517899D02*
D03*
X11263899D02*
D03*
X11009899D02*
D03*
X10755899D02*
D03*
X10501899D02*
D03*
X10247899D02*
D03*
X9993899D02*
D03*
X9739899D02*
D03*
X12787899Y939800D02*
D03*
X12533899D02*
D03*
X12279899D02*
D03*
X12025899D02*
D03*
X11771899D02*
D03*
X11517899D02*
D03*
X11263899D02*
D03*
X11009899D02*
D03*
X10755899D02*
D03*
X10501899D02*
D03*
X10247899D02*
D03*
X9993899D02*
D03*
X9739899D02*
D03*
D52*
X17613899Y685800D02*
D03*
D53*
X26806799Y2606672D02*
D03*
X13728700Y2463800D02*
D03*
X11052100Y2057400D02*
D03*
X11391900Y1498600D02*
D03*
X11125200Y1689100D02*
D03*
X8978900Y1803400D02*
D03*
X10833100Y1676400D02*
D03*
X9601200Y1714500D02*
D03*
X10579100Y1689100D02*
D03*
X10185400Y1498600D02*
D03*
X9626600Y1358900D02*
D03*
X10487028Y2905400D02*
D03*
X13258800Y1511300D02*
D03*
X11836400D02*
D03*
X9994900Y1917700D02*
D03*
X25831799Y1003300D02*
D03*
X26837701Y135900D02*
D03*
X25837701D02*
D03*
X24837701D02*
D03*
X23837701D02*
D03*
X21337701Y1135900D02*
D03*
X20337701D02*
D03*
X19337701D02*
D03*
X18337701D02*
D03*
X14337701D02*
D03*
X13337701D02*
D03*
X12337700D02*
D03*
X8337700D02*
D03*
X7337700D02*
D03*
X6337700D02*
D03*
X5337700D02*
D03*
X4337700D02*
D03*
X2837700Y135900D02*
D03*
X2337700Y1135900D02*
D03*
X1837700Y135900D02*
D03*
X1337700Y1135900D02*
D03*
X837700Y135900D02*
D03*
X13792200Y1155700D02*
D03*
X13804984Y1244516D02*
D03*
X24001266Y1551907D02*
D03*
X25117429Y2740300D02*
D03*
X23420534Y2733007D02*
D03*
X21717000Y2616200D02*
D03*
X21701128Y2740300D02*
D03*
X20018372D02*
D03*
X18297528D02*
D03*
X17891129Y2308500D02*
D03*
X16646529Y2740300D02*
D03*
X16078200Y2298700D02*
D03*
X14909801Y2616200D02*
D03*
X14893929Y2740300D02*
D03*
X13197034Y2733007D02*
D03*
X11493500Y2616200D02*
D03*
X10502900Y2527300D02*
D03*
X11490328Y2740300D02*
D03*
X9801228D02*
D03*
X8099428D02*
D03*
X7731128Y2330200D02*
D03*
X5562600Y2438400D02*
D03*
X6410328Y2740300D02*
D03*
Y2568300D02*
D03*
X5727700Y2336800D02*
D03*
X4759328Y2740300D02*
D03*
Y2574102D02*
D03*
X3044828Y2740300D02*
D03*
Y2574102D02*
D03*
X1482728Y2740300D02*
D03*
Y2574102D02*
D03*
X13296899Y2374900D02*
D03*
X13030200Y2257400D02*
D03*
X13268327Y2263500D02*
D03*
X14185899Y2374900D02*
D03*
X16941800Y2286000D02*
D03*
X13892067Y1120107D02*
D03*
X14147800Y1333500D02*
D03*
X13982700Y1130300D02*
D03*
X9423400Y2260767D02*
D03*
X12484100Y2400300D02*
D03*
X17132300Y2501900D02*
D03*
X17386301Y2374900D02*
D03*
X23657593Y1119333D02*
D03*
X19621500Y566251D02*
D03*
X24358968Y1308467D02*
D03*
X15363828Y1104600D02*
D03*
X10642600Y2438400D02*
D03*
X12230874Y2278233D02*
D03*
X24076300Y2111372D02*
D03*
X22489194Y2449367D02*
D03*
X20881972Y2415900D02*
D03*
X19116672Y2403200D02*
D03*
X20736932Y1813079D02*
D03*
X17881599Y1397000D02*
D03*
X3962400D02*
D03*
X4025900Y1270000D02*
D03*
X23967799Y2905820D02*
D03*
X24193500Y1930400D02*
D03*
X24485600Y596900D02*
D03*
X25514301D02*
D03*
X25831799Y1422400D02*
D03*
X26898599Y2692400D02*
D03*
X9867900Y2438400D02*
D03*
Y1879600D02*
D03*
X8089900Y2616200D02*
D03*
X9766300Y2362200D02*
D03*
X9791700Y2616200D02*
D03*
X13169901D02*
D03*
X20027901Y2603500D02*
D03*
X16637000Y2622001D02*
D03*
X18288000Y2616200D02*
D03*
X18897600Y2501900D02*
D03*
X18770599Y2400300D02*
D03*
X15328900Y2857500D02*
D03*
X13779500D02*
D03*
X20421600Y2908300D02*
D03*
X17094200D02*
D03*
X18884900D02*
D03*
X25666699Y2832100D02*
D03*
X17183099Y2349500D02*
D03*
X26492200Y2324100D02*
D03*
X23393401Y2616200D02*
D03*
X19634283Y2324184D02*
D03*
X14109700Y2527300D02*
D03*
X22313901Y1981200D02*
D03*
X22303706Y988867D02*
D03*
X21729700Y520700D02*
D03*
X21348700D02*
D03*
X19510100Y2314572D02*
D03*
X21218301Y520700D02*
D03*
X19126199Y1968500D02*
D03*
X17246600Y1892300D02*
D03*
X9448800Y1663700D02*
D03*
X25196800Y2235200D02*
D03*
X23863300Y1965302D02*
D03*
X14389101Y2311400D02*
D03*
X14516100Y2324100D02*
D03*
X15455901Y1574800D02*
D03*
X5740400Y660400D02*
D03*
X5613400D02*
D03*
X5359400D02*
D03*
X6032500Y622300D02*
D03*
X2387600Y2336800D02*
D03*
X2197100Y1651000D02*
D03*
X24079201Y2425700D02*
D03*
X22199600Y2908300D02*
D03*
X8562972Y2905400D02*
D03*
X6943728D02*
D03*
X13906500Y2438400D02*
D03*
X23964900Y1663700D02*
D03*
X23177499Y1879600D02*
D03*
X22174200D02*
D03*
X25539700Y1663700D02*
D03*
X26149301Y2133600D02*
D03*
X24066499Y723900D02*
D03*
X24422099Y1041400D02*
D03*
X24725198Y2324100D02*
D03*
X23025101D02*
D03*
X23279100Y1117600D02*
D03*
X21348700Y2324100D02*
D03*
X22529800Y927100D02*
D03*
X22415500Y812800D02*
D03*
X25907999Y2425700D02*
D03*
X24485600Y2324100D02*
D03*
X22872701Y2336800D02*
D03*
X21234399Y2324100D02*
D03*
X8020029Y699716D02*
D03*
X8509087Y2269475D02*
D03*
X16954500Y1193800D02*
D03*
X12395200Y2540000D02*
D03*
X889000Y2286000D02*
D03*
X2527300Y2336800D02*
D03*
X4025900Y2311400D02*
D03*
X4152900Y2298700D02*
D03*
X5727700Y2095500D02*
D03*
X9220200Y2324100D02*
D03*
X9678671Y1880871D02*
D03*
X7353300Y2400300D02*
D03*
X10769600Y2374900D02*
D03*
X16230600Y2324100D02*
D03*
X19761200Y562000D02*
D03*
X19888200D02*
D03*
X20002499D02*
D03*
X21107401Y520700D02*
D03*
X20967700D02*
D03*
X21475700D02*
D03*
X21602699D02*
D03*
X21856700D02*
D03*
X10871200Y2286000D02*
D03*
X7886700Y673100D02*
D03*
X7505700Y723900D02*
D03*
X7632700Y673100D02*
D03*
X7112000Y647700D02*
D03*
X17487900Y2438400D02*
D03*
X15646400D02*
D03*
X20510500Y2514600D02*
D03*
X7759700Y660400D02*
D03*
X7378700Y714400D02*
D03*
X7251700Y736600D02*
D03*
X6032500Y1727200D02*
D03*
X5943600Y2311400D02*
D03*
X5232400Y660400D02*
D03*
X5473700D02*
D03*
X7188200Y2476500D02*
D03*
X5232400Y2514600D02*
D03*
X3784600Y1473200D02*
D03*
X3949700Y2425700D02*
D03*
X2197100Y2451100D02*
D03*
X25107899Y2616200D02*
D03*
X6946900Y2517800D02*
D03*
X1828800Y2514600D02*
D03*
X25679401D02*
D03*
X23901401D02*
D03*
X22288499D02*
D03*
X15506700Y2501900D02*
D03*
X12192000Y2527300D02*
D03*
X12179300Y2857500D02*
D03*
X8585200Y2527300D02*
D03*
X5194300Y2857500D02*
D03*
X3657600Y2806700D02*
D03*
X3632200Y2501900D02*
D03*
X482600Y2578100D02*
D03*
X1828800Y2781300D02*
D03*
X482600Y2794000D02*
D03*
D54*
X13665199Y3352800D02*
D03*
X10706100Y3492500D02*
D03*
X9677400Y3086100D02*
D03*
X9994900Y1282700D02*
D03*
X10071100Y3213100D02*
D03*
X26670001Y3276600D02*
D03*
X25958801Y2908300D02*
D03*
X27096219Y1271770D02*
D03*
X18072099Y3035300D02*
D03*
X17462500Y2806700D02*
D03*
X17564101Y3467100D02*
D03*
X18436606Y3196606D02*
D03*
X16598900Y3035300D02*
D03*
X25958801Y812800D02*
D03*
X1498600Y2921000D02*
D03*
X27051001Y2781300D02*
D03*
X25082500Y3035300D02*
D03*
X23406100D02*
D03*
X21678900D02*
D03*
X20002499Y3022600D02*
D03*
X14947900D02*
D03*
X13220700Y3035300D02*
D03*
X11544300Y3022600D02*
D03*
X8102600D02*
D03*
X6413500Y3009900D02*
D03*
X4711700Y2971800D02*
D03*
X3022600D02*
D03*
X1134086Y3473742D02*
D03*
X25984201Y3517900D02*
D03*
X24307800Y3505200D02*
D03*
X22656799Y3492500D02*
D03*
X20980400Y3505200D02*
D03*
X19177000Y3454400D02*
D03*
X12458700Y3530600D02*
D03*
X2133600Y3505200D02*
D03*
X3898900Y3492500D02*
D03*
X5486400Y3505200D02*
D03*
X7226300Y3492500D02*
D03*
X8978900Y3517900D02*
D03*
X14071600Y3543300D02*
D03*
X15833115Y3497562D02*
D03*
X26022299Y1727200D02*
D03*
X25946100Y508000D02*
D03*
X24333200Y2794000D02*
D03*
X22606000Y2806700D02*
D03*
X20853400D02*
D03*
X19227800D02*
D03*
X15786099Y2819400D02*
D03*
X14109700D02*
D03*
X12420600D02*
D03*
X26822400Y2844800D02*
D03*
X25260300Y3187700D02*
D03*
X23533099Y3175000D02*
D03*
X21856700Y3200400D02*
D03*
X20129500Y3175000D02*
D03*
X16764000Y3200400D02*
D03*
X15151100Y3175000D02*
D03*
X13427753Y3197544D02*
D03*
X11696700Y3175000D02*
D03*
X8261642Y3166086D02*
D03*
X10718800Y2806700D02*
D03*
X8991600D02*
D03*
X7264400D02*
D03*
X6610642Y3178786D02*
D03*
X4838700Y3162300D02*
D03*
X3911600Y2933700D02*
D03*
X2222500Y2882900D02*
D03*
X3149600Y3124200D02*
D03*
X469900Y2959100D02*
D03*
X1587500Y3314700D02*
D03*
X5600700Y2794000D02*
D03*
D55*
X23837698Y535900D02*
D03*
X2237700D02*
D03*
D56*
X27590799Y342900D02*
D03*
X640800D02*
D03*
Y3235100D02*
D03*
X27590799D02*
D03*
%TF.MD5,aca0954e88e6db9d862ff2ef7b0d1e80*%
M02*
